%TF.GenerationSoftware,KiCad,Pcbnew,7.0.7-7.0.7~ubuntu22.04.1*%
%TF.CreationDate,2024-01-12T16:25:32+05:30*%
%TF.ProjectId,24-ch-relay-driver-kicad,32342d63-682d-4726-956c-61792d647269,1.1.0*%
%TF.SameCoordinates,Original*%
%TF.FileFunction,Copper,L2,Bot*%
%TF.FilePolarity,Positive*%
%FSLAX46Y46*%
G04 Gerber Fmt 4.6, Leading zero omitted, Abs format (unit mm)*
G04 Created by KiCad (PCBNEW 7.0.7-7.0.7~ubuntu22.04.1) date 2024-01-12 16:25:32*
%MOMM*%
%LPD*%
G01*
G04 APERTURE LIST*
%TA.AperFunction,ComponentPad*%
%ADD10C,5.000000*%
%TD*%
%TA.AperFunction,ComponentPad*%
%ADD11R,1.700000X1.700000*%
%TD*%
%TA.AperFunction,ComponentPad*%
%ADD12O,1.700000X1.700000*%
%TD*%
%TA.AperFunction,ComponentPad*%
%ADD13R,2.600000X2.600000*%
%TD*%
%TA.AperFunction,ComponentPad*%
%ADD14C,2.600000*%
%TD*%
%TA.AperFunction,ComponentPad*%
%ADD15O,2.100000X1.000000*%
%TD*%
%TA.AperFunction,ComponentPad*%
%ADD16O,1.800000X1.000000*%
%TD*%
%TA.AperFunction,ViaPad*%
%ADD17C,0.800000*%
%TD*%
%TA.AperFunction,Conductor*%
%ADD18C,0.250000*%
%TD*%
%TA.AperFunction,Conductor*%
%ADD19C,0.500000*%
%TD*%
G04 APERTURE END LIST*
D10*
%TO.P,H103,1,1*%
%TO.N,GND*%
X172847000Y-98800000D03*
%TD*%
D11*
%TO.P,J302,1,Pin_1*%
%TO.N,/output-stage/RLY8*%
X142400000Y-78058000D03*
D12*
%TO.P,J302,2,Pin_2*%
%TO.N,/output-stage/RLY9*%
X142400000Y-80598000D03*
%TO.P,J302,3,Pin_3*%
%TO.N,/output-stage/RLY10*%
X142400000Y-83138000D03*
%TO.P,J302,4,Pin_4*%
%TO.N,/output-stage/RLY11*%
X142400000Y-85678000D03*
%TO.P,J302,5,Pin_5*%
%TO.N,GND*%
X142400000Y-88218000D03*
%TD*%
D11*
%TO.P,J303,1,Pin_1*%
%TO.N,/output-stage/RLY16*%
X118270000Y-78058000D03*
D12*
%TO.P,J303,2,Pin_2*%
%TO.N,/output-stage/RLY17*%
X118270000Y-80598000D03*
%TO.P,J303,3,Pin_3*%
%TO.N,/output-stage/RLY18*%
X118270000Y-83138000D03*
%TO.P,J303,4,Pin_4*%
%TO.N,/output-stage/RLY19*%
X118270000Y-85678000D03*
%TO.P,J303,5,Pin_5*%
%TO.N,GND*%
X118270000Y-88218000D03*
%TD*%
D11*
%TO.P,J305,1,Pin_1*%
%TO.N,/output-stage/RLY15*%
X162400000Y-78058000D03*
D12*
%TO.P,J305,2,Pin_2*%
%TO.N,/output-stage/RLY14*%
X162400000Y-80598000D03*
%TO.P,J305,3,Pin_3*%
%TO.N,/output-stage/RLY13*%
X162400000Y-83138000D03*
%TO.P,J305,4,Pin_4*%
%TO.N,/output-stage/RLY12*%
X162400000Y-85678000D03*
%TO.P,J305,5,Pin_5*%
%TO.N,GND*%
X162400000Y-88218000D03*
%TD*%
D11*
%TO.P,J306,1,Pin_1*%
%TO.N,/output-stage/RLY23*%
X138270000Y-78058000D03*
D12*
%TO.P,J306,2,Pin_2*%
%TO.N,/output-stage/RLY22*%
X138270000Y-80598000D03*
%TO.P,J306,3,Pin_3*%
%TO.N,/output-stage/RLY21*%
X138270000Y-83138000D03*
%TO.P,J306,4,Pin_4*%
%TO.N,/output-stage/RLY20*%
X138270000Y-85678000D03*
%TO.P,J306,5,Pin_5*%
%TO.N,GND*%
X138270000Y-88218000D03*
%TD*%
D11*
%TO.P,J304,1,Pin_1*%
%TO.N,/output-stage/RLY7*%
X186530000Y-78033800D03*
D12*
%TO.P,J304,2,Pin_2*%
%TO.N,/output-stage/RLY6*%
X186530000Y-80573800D03*
%TO.P,J304,3,Pin_3*%
%TO.N,/output-stage/RLY5*%
X186530000Y-83113800D03*
%TO.P,J304,4,Pin_4*%
%TO.N,/output-stage/RLY4*%
X186530000Y-85653800D03*
%TO.P,J304,5,Pin_5*%
%TO.N,GND*%
X186530000Y-88193800D03*
%TD*%
D10*
%TO.P,H102,1,1*%
%TO.N,GND*%
X183515000Y-73500000D03*
%TD*%
%TO.P,H104,1,1*%
%TO.N,GND*%
X135000000Y-73500000D03*
%TD*%
D13*
%TO.P,J202,1,Pin_1*%
%TO.N,GND*%
X182575001Y-99000000D03*
D14*
%TO.P,J202,2,Pin_2*%
%TO.N,Net-(J202-Pin_2)*%
X182575001Y-93920000D03*
%TD*%
D11*
%TO.P,J301,1,Pin_1*%
%TO.N,/output-stage/RLY0*%
X166530000Y-78033800D03*
D12*
%TO.P,J301,2,Pin_2*%
%TO.N,/output-stage/RLY1*%
X166530000Y-80573800D03*
%TO.P,J301,3,Pin_3*%
%TO.N,/output-stage/RLY2*%
X166530000Y-83113800D03*
%TO.P,J301,4,Pin_4*%
%TO.N,/output-stage/RLY3*%
X166530000Y-85653800D03*
%TO.P,J301,5,Pin_5*%
%TO.N,GND*%
X166530000Y-88193800D03*
%TD*%
D11*
%TO.P,JP202,1,A*%
%TO.N,GND*%
X163068000Y-92837000D03*
D12*
%TO.P,JP202,2,B*%
%TO.N,Net-(JP202-B)*%
X160528000Y-92837000D03*
%TD*%
D11*
%TO.P,JP203,1,A*%
%TO.N,Net-(J202-Pin_2)*%
X136383000Y-92202000D03*
D12*
%TO.P,JP203,2,C*%
%TO.N,+5V*%
X133843000Y-92202000D03*
%TO.P,JP203,3,B*%
%TO.N,VBUS*%
X131303000Y-92202000D03*
%TD*%
D10*
%TO.P,H101,1,1*%
%TO.N,GND*%
X143891000Y-98800000D03*
%TD*%
D15*
%TO.P,J201,S1,SHIELD*%
%TO.N,Net-(J201-SHIELD)*%
X120132000Y-92454000D03*
D16*
X115932000Y-92454000D03*
D15*
X120132000Y-101094000D03*
D16*
X115932000Y-101094000D03*
%TD*%
D17*
%TO.N,GND*%
X164500000Y-102000000D03*
X140250000Y-87000000D03*
X183750000Y-89250000D03*
X123750000Y-71750000D03*
X174000000Y-89250000D03*
X174000000Y-82000000D03*
X127750000Y-82000000D03*
X186500000Y-98000000D03*
X131000000Y-87750000D03*
X164500000Y-71750000D03*
X183750000Y-91250000D03*
X178000000Y-91250000D03*
X141000000Y-71750000D03*
X153250000Y-80000000D03*
X129500000Y-89250000D03*
X127750000Y-80000000D03*
X186500000Y-95750000D03*
X178000000Y-78000000D03*
X164500000Y-82000000D03*
X129500000Y-83750000D03*
X164500000Y-73500000D03*
X188250000Y-84500000D03*
X115000000Y-87000000D03*
X151750000Y-80000000D03*
X176000000Y-91250000D03*
X175500000Y-87750000D03*
X131000000Y-85500000D03*
X157000000Y-73500000D03*
X150500000Y-76500000D03*
X147750000Y-71750000D03*
X127000000Y-99500000D03*
X155250000Y-82000000D03*
X153250000Y-78000000D03*
X131000000Y-89250000D03*
X178000000Y-82000000D03*
X126000000Y-82000000D03*
X186500000Y-100250000D03*
X176000000Y-89250000D03*
X164500000Y-84500000D03*
X150000000Y-82000000D03*
X129500000Y-80000000D03*
X171750000Y-73500000D03*
X123750000Y-73500000D03*
X153500000Y-82000000D03*
X188250000Y-82000000D03*
X179000000Y-83750000D03*
X140250000Y-84500000D03*
X155250000Y-83750000D03*
X164500000Y-87000000D03*
X129500000Y-82000000D03*
X129500000Y-87750000D03*
X178000000Y-89250000D03*
X127750000Y-83750000D03*
X118247000Y-100003000D03*
X115000000Y-84500000D03*
X140250000Y-82000000D03*
X141000000Y-73500000D03*
X178000000Y-95750000D03*
X131000000Y-82000000D03*
X157000000Y-71750000D03*
X164500000Y-79500000D03*
X178000000Y-98000000D03*
X165750000Y-94250000D03*
X131000000Y-83750000D03*
X186500000Y-93250000D03*
X157000000Y-102000000D03*
X188250000Y-79500000D03*
X115000000Y-82000000D03*
X147750000Y-73500000D03*
X151750000Y-82000000D03*
X127750000Y-85500000D03*
X171750000Y-71750000D03*
X133250000Y-99500000D03*
X115000000Y-79500000D03*
X188250000Y-87000000D03*
X174000000Y-91250000D03*
X118247000Y-93753000D03*
X178000000Y-100250000D03*
X126000000Y-83750000D03*
X125500000Y-76500000D03*
X140250000Y-79500000D03*
X176000000Y-80000000D03*
X176000000Y-78000000D03*
X176000000Y-82000000D03*
X178000000Y-80000000D03*
%TO.N,/output-stage/LATCH-CLK*%
X134747000Y-87757000D03*
X179070000Y-87503000D03*
X152400000Y-87503000D03*
X148487701Y-90275500D03*
X148500000Y-97500000D03*
X149860000Y-84963000D03*
%TO.N,/output-stage/OUT-ENABLE*%
X125730000Y-87503000D03*
X149860000Y-87503000D03*
X150000000Y-97500000D03*
X173990000Y-87503000D03*
%TO.N,/control-mod/SHIFT-DATA*%
X126000000Y-80000000D03*
X136500000Y-101000000D03*
%TO.N,/output-stage/RESET*%
X149860000Y-86233000D03*
X125730000Y-86233000D03*
X143000000Y-91000000D03*
X173990000Y-86233000D03*
%TO.N,/output-stage/SHIFT-CLK*%
X140500000Y-89500000D03*
X179070000Y-86233000D03*
X136017000Y-87757000D03*
X153797000Y-86233000D03*
X149860000Y-83820000D03*
%TO.N,Net-(U301-SEROUT)*%
X149860000Y-79883000D03*
X131191000Y-79883000D03*
%TO.N,Net-(U302-SEROUT)*%
X155067000Y-79883000D03*
X173990000Y-79883000D03*
%TD*%
D18*
%TO.N,GND*%
X145591000Y-100500000D02*
X143891000Y-98800000D01*
%TO.N,Net-(J201-SHIELD)*%
X115932000Y-92454000D02*
X120132000Y-92454000D01*
X115932000Y-92454000D02*
X115932000Y-101094000D01*
X115932000Y-101094000D02*
X120132000Y-101094000D01*
D19*
%TO.N,Net-(J202-Pin_2)*%
X176524000Y-93726000D02*
X182575000Y-93726000D01*
X137431000Y-93250000D02*
X137500000Y-93250000D01*
X175298000Y-92500000D02*
X176524000Y-93726000D01*
X146250000Y-93250000D02*
X147250000Y-94250000D01*
X147250000Y-98250000D02*
X148250000Y-99250000D01*
X137431000Y-93250000D02*
X146250000Y-93250000D01*
X163500000Y-99250000D02*
X164750000Y-98000000D01*
X164750000Y-98000000D02*
X164750000Y-93750000D01*
X166000000Y-92500000D02*
X175298000Y-92500000D01*
X148250000Y-99250000D02*
X163500000Y-99250000D01*
D18*
X182575000Y-93726000D02*
X182289000Y-94012000D01*
D19*
X136383000Y-92202000D02*
X137431000Y-93250000D01*
D18*
X146250000Y-93250000D02*
X137500000Y-93250000D01*
D19*
X164750000Y-93750000D02*
X166000000Y-92500000D01*
X147250000Y-94250000D02*
X147250000Y-98250000D01*
D18*
%TO.N,/output-stage/LATCH-CLK*%
X139000000Y-90500000D02*
X142000000Y-90500000D01*
X147955000Y-84963000D02*
X149860000Y-84963000D01*
X167778000Y-90286000D02*
X152897000Y-90286000D01*
X152897000Y-90286000D02*
X152400000Y-89789000D01*
X176403000Y-86614000D02*
X176403000Y-85725000D01*
X146812000Y-86106000D02*
X147955000Y-84963000D01*
X134747000Y-87757000D02*
X134747000Y-89281000D01*
X146812000Y-89152604D02*
X146812000Y-86106000D01*
X134747000Y-89281000D02*
X135382000Y-89916000D01*
X179070000Y-87503000D02*
X177292000Y-87503000D01*
X148500000Y-97500000D02*
X148500000Y-90287799D01*
X152400000Y-89789000D02*
X152400000Y-87503000D01*
X138416000Y-89916000D02*
X139000000Y-90500000D01*
X135382000Y-89916000D02*
X138416000Y-89916000D01*
X142517698Y-89982302D02*
X145982302Y-89982302D01*
X148500000Y-90287799D02*
X148487701Y-90275500D01*
X151257000Y-84963000D02*
X149860000Y-84963000D01*
X168714000Y-89350000D02*
X167778000Y-90286000D01*
X177292000Y-87503000D02*
X176403000Y-86614000D01*
X152400000Y-87503000D02*
X152400000Y-86106000D01*
X168714000Y-86556000D02*
X168714000Y-89350000D01*
X145982302Y-89982302D02*
X146812000Y-89152604D01*
X142000000Y-90500000D02*
X142517698Y-89982302D01*
X176403000Y-85725000D02*
X175641000Y-84963000D01*
X175641000Y-84963000D02*
X170307000Y-84963000D01*
X152400000Y-86106000D02*
X151257000Y-84963000D01*
X170307000Y-84963000D02*
X168714000Y-86556000D01*
%TO.N,/output-stage/OUT-ENABLE*%
X170434000Y-87503000D02*
X169672000Y-88265000D01*
X150749000Y-91186000D02*
X149860000Y-90297000D01*
X147828000Y-89535000D02*
X147828000Y-88265000D01*
X169672000Y-89916000D02*
X168402000Y-91186000D01*
X137932000Y-90932000D02*
X138500000Y-91500000D01*
X143750000Y-92000000D02*
X144693500Y-91056500D01*
X146306500Y-91056500D02*
X147828000Y-89535000D01*
X169672000Y-88265000D02*
X169672000Y-89916000D01*
X126365000Y-90932000D02*
X137932000Y-90932000D01*
X142500000Y-92000000D02*
X143750000Y-92000000D01*
X149860000Y-90297000D02*
X149860000Y-87503000D01*
X144693500Y-91056500D02*
X146306500Y-91056500D01*
X150000000Y-91935000D02*
X150749000Y-91186000D01*
X125730000Y-90297000D02*
X126365000Y-90932000D01*
X147828000Y-88265000D02*
X148590000Y-87503000D01*
X125730000Y-87503000D02*
X125730000Y-90297000D01*
X148590000Y-87503000D02*
X149860000Y-87503000D01*
X173990000Y-87503000D02*
X170434000Y-87503000D01*
X168402000Y-91186000D02*
X150749000Y-91186000D01*
X150000000Y-97500000D02*
X150000000Y-91935000D01*
X138500000Y-91500000D02*
X142000000Y-91500000D01*
X142000000Y-91500000D02*
X142500000Y-92000000D01*
%TO.N,/control-mod/SHIFT-DATA*%
X124000000Y-81000000D02*
X125000000Y-80000000D01*
X124000000Y-99000000D02*
X124000000Y-81000000D01*
X124500000Y-99500000D02*
X124000000Y-99000000D01*
X125000000Y-80000000D02*
X126000000Y-80000000D01*
X136500000Y-101000000D02*
X126000000Y-101000000D01*
X126000000Y-101000000D02*
X124500000Y-99500000D01*
%TO.N,/output-stage/RESET*%
X144000000Y-91000000D02*
X144500000Y-90500000D01*
X168215604Y-90736000D02*
X152077000Y-90736000D01*
X148017000Y-86233000D02*
X149860000Y-86233000D01*
X127000000Y-86868000D02*
X127000000Y-89916000D01*
X151130000Y-89789000D02*
X151130000Y-86868000D01*
X127508000Y-90424000D02*
X138060396Y-90424000D01*
X143000000Y-91000000D02*
X144000000Y-91000000D01*
X173990000Y-86233000D02*
X170434000Y-86233000D01*
X169164000Y-87503000D02*
X169164000Y-89787604D01*
X138060396Y-90424000D02*
X138636396Y-91000000D01*
X138636396Y-91000000D02*
X143000000Y-91000000D01*
X170434000Y-86233000D02*
X169164000Y-87503000D01*
X127000000Y-89916000D02*
X127508000Y-90424000D01*
X152077000Y-90736000D02*
X151130000Y-89789000D01*
X126365000Y-86233000D02*
X127000000Y-86868000D01*
X144500000Y-90500000D02*
X146101000Y-90500000D01*
X146101000Y-90500000D02*
X147262000Y-89339000D01*
X169164000Y-89787604D02*
X168215604Y-90736000D01*
X147320000Y-86930000D02*
X148017000Y-86233000D01*
X125730000Y-86233000D02*
X126365000Y-86233000D01*
X151130000Y-86868000D02*
X150495000Y-86233000D01*
X150495000Y-86233000D02*
X149860000Y-86233000D01*
X147320000Y-89281000D02*
X147320000Y-86930000D01*
%TO.N,/output-stage/SHIFT-CLK*%
X169926000Y-83947000D02*
X168264000Y-85609000D01*
X147447000Y-83820000D02*
X149860000Y-83820000D01*
X154479000Y-89836000D02*
X153797000Y-89154000D01*
X136017000Y-89027000D02*
X136456000Y-89466000D01*
X177927000Y-86233000D02*
X177419000Y-85725000D01*
X136017000Y-87757000D02*
X136017000Y-89027000D01*
X140500000Y-89500000D02*
X145704000Y-89500000D01*
X146362000Y-88842000D02*
X146362000Y-84905000D01*
X179070000Y-86233000D02*
X177927000Y-86233000D01*
X145704000Y-89500000D02*
X146362000Y-88842000D01*
X136456000Y-89466000D02*
X140466000Y-89466000D01*
X176784000Y-83947000D02*
X169926000Y-83947000D01*
X177419000Y-85725000D02*
X177419000Y-84582000D01*
X146362000Y-84905000D02*
X147447000Y-83820000D01*
X168264000Y-89038000D02*
X167466000Y-89836000D01*
X149860000Y-83820000D02*
X152570000Y-83820000D01*
X153797000Y-89154000D02*
X153797000Y-86233000D01*
X168264000Y-85609000D02*
X168264000Y-89038000D01*
X140466000Y-89466000D02*
X140500000Y-89500000D01*
X153797000Y-85047000D02*
X152570000Y-83820000D01*
X177419000Y-84582000D02*
X176784000Y-83947000D01*
X167466000Y-89836000D02*
X154479000Y-89836000D01*
X153797000Y-86233000D02*
X153797000Y-85047000D01*
%TO.N,Net-(U301-SEROUT)*%
X150000000Y-79743000D02*
X149860000Y-79883000D01*
X148750000Y-76250000D02*
X150000000Y-77500000D01*
X131191000Y-79883000D02*
X131191000Y-78059000D01*
X137000000Y-76250000D02*
X148750000Y-76250000D01*
X150000000Y-77500000D02*
X150000000Y-79743000D01*
X136000000Y-77250000D02*
X137000000Y-76250000D01*
X131191000Y-78059000D02*
X132000000Y-77250000D01*
X132000000Y-77250000D02*
X136000000Y-77250000D01*
%TO.N,Net-(U302-SEROUT)*%
X174000000Y-77250000D02*
X174000000Y-79873000D01*
X156250000Y-76250000D02*
X173000000Y-76250000D01*
X173000000Y-76250000D02*
X174000000Y-77250000D01*
X155067000Y-79883000D02*
X155067000Y-77433000D01*
X155067000Y-77433000D02*
X156250000Y-76250000D01*
X174000000Y-79873000D02*
X173990000Y-79883000D01*
%TD*%
%TA.AperFunction,Conductor*%
%TO.N,GND*%
G36*
X159405323Y-91839502D02*
G01*
X159451816Y-91893158D01*
X159461920Y-91963432D01*
X159442685Y-92014415D01*
X159329141Y-92188206D01*
X159238703Y-92394386D01*
X159238702Y-92394387D01*
X159183437Y-92612624D01*
X159183436Y-92612630D01*
X159183436Y-92612632D01*
X159164844Y-92837000D01*
X159182232Y-93046844D01*
X159183437Y-93061375D01*
X159238702Y-93279612D01*
X159238703Y-93279613D01*
X159238704Y-93279616D01*
X159307760Y-93437048D01*
X159329141Y-93485793D01*
X159452275Y-93674265D01*
X159452279Y-93674270D01*
X159604762Y-93839908D01*
X159659331Y-93882381D01*
X159782424Y-93978189D01*
X159980426Y-94085342D01*
X159980427Y-94085342D01*
X159980428Y-94085343D01*
X160070810Y-94116371D01*
X160193365Y-94158444D01*
X160415431Y-94195500D01*
X160415435Y-94195500D01*
X160640565Y-94195500D01*
X160640569Y-94195500D01*
X160862635Y-94158444D01*
X161075574Y-94085342D01*
X161273576Y-93978189D01*
X161451240Y-93839906D01*
X161512626Y-93773222D01*
X161573476Y-93736654D01*
X161644441Y-93738787D01*
X161702986Y-93778949D01*
X161723380Y-93814529D01*
X161767553Y-93932961D01*
X161767555Y-93932965D01*
X161855095Y-94049904D01*
X161972034Y-94137444D01*
X162108906Y-94188494D01*
X162169402Y-94194999D01*
X162169415Y-94195000D01*
X162814000Y-94195000D01*
X162814000Y-93451033D01*
X162834002Y-93382912D01*
X162887658Y-93336419D01*
X162957926Y-93326315D01*
X163032237Y-93337000D01*
X163103763Y-93337000D01*
X163178069Y-93326316D01*
X163248341Y-93336419D01*
X163301997Y-93382911D01*
X163322000Y-93451031D01*
X163322000Y-94195000D01*
X163865500Y-94195000D01*
X163933621Y-94215002D01*
X163980114Y-94268658D01*
X163991500Y-94321000D01*
X163991500Y-97633629D01*
X163971498Y-97701750D01*
X163954595Y-97722724D01*
X163222724Y-98454595D01*
X163160412Y-98488621D01*
X163133629Y-98491500D01*
X150568738Y-98491500D01*
X150500617Y-98471498D01*
X150454124Y-98417842D01*
X150444020Y-98347568D01*
X150473514Y-98282988D01*
X150494677Y-98263564D01*
X150538542Y-98231694D01*
X150611253Y-98178866D01*
X150611255Y-98178864D01*
X150739034Y-98036951D01*
X150739035Y-98036949D01*
X150739040Y-98036944D01*
X150834527Y-97871556D01*
X150893542Y-97689928D01*
X150913504Y-97500000D01*
X150893542Y-97310072D01*
X150834527Y-97128444D01*
X150739040Y-96963056D01*
X150665863Y-96881784D01*
X150635146Y-96817776D01*
X150633500Y-96797474D01*
X150633500Y-92249595D01*
X150653502Y-92181474D01*
X150670405Y-92160499D01*
X150974501Y-91856404D01*
X151036813Y-91822379D01*
X151063596Y-91819500D01*
X159337202Y-91819500D01*
X159405323Y-91839502D01*
G37*
%TD.AperFunction*%
%TA.AperFunction,Conductor*%
G36*
X165135934Y-76903502D02*
G01*
X165182427Y-76957158D01*
X165192531Y-77027432D01*
X165185868Y-77053534D01*
X165178010Y-77074598D01*
X165178009Y-77074603D01*
X165171500Y-77135150D01*
X165171500Y-78932449D01*
X165178009Y-78992996D01*
X165178011Y-78993004D01*
X165229110Y-79130002D01*
X165229112Y-79130007D01*
X165316738Y-79247061D01*
X165433791Y-79334686D01*
X165433792Y-79334686D01*
X165433796Y-79334689D01*
X165548810Y-79377587D01*
X165605642Y-79420132D01*
X165630453Y-79486652D01*
X165615362Y-79556026D01*
X165597475Y-79580979D01*
X165454280Y-79736529D01*
X165454275Y-79736534D01*
X165331141Y-79925006D01*
X165240703Y-80131186D01*
X165240702Y-80131187D01*
X165185437Y-80349424D01*
X165185436Y-80349430D01*
X165185436Y-80349432D01*
X165166844Y-80573800D01*
X165185104Y-80794165D01*
X165185437Y-80798175D01*
X165240702Y-81016412D01*
X165240703Y-81016413D01*
X165240704Y-81016416D01*
X165251318Y-81040613D01*
X165331141Y-81222593D01*
X165454275Y-81411065D01*
X165454279Y-81411070D01*
X165606762Y-81576708D01*
X165637852Y-81600906D01*
X165784424Y-81714989D01*
X165817680Y-81732986D01*
X165868071Y-81783000D01*
X165883423Y-81852316D01*
X165858862Y-81918929D01*
X165817680Y-81954613D01*
X165784426Y-81972610D01*
X165784424Y-81972611D01*
X165606762Y-82110891D01*
X165454279Y-82276529D01*
X165454275Y-82276534D01*
X165331141Y-82465006D01*
X165240703Y-82671186D01*
X165240702Y-82671187D01*
X165185437Y-82889424D01*
X165185436Y-82889430D01*
X165185436Y-82889432D01*
X165166844Y-83113800D01*
X165185232Y-83335712D01*
X165185437Y-83338175D01*
X165240702Y-83556412D01*
X165240703Y-83556413D01*
X165240704Y-83556416D01*
X165251318Y-83580613D01*
X165331141Y-83762593D01*
X165454275Y-83951065D01*
X165454279Y-83951070D01*
X165582539Y-84090395D01*
X165605017Y-84114813D01*
X165606762Y-84116708D01*
X165637852Y-84140906D01*
X165784424Y-84254989D01*
X165817680Y-84272986D01*
X165868071Y-84323000D01*
X165883423Y-84392316D01*
X165858862Y-84458929D01*
X165817680Y-84494613D01*
X165784426Y-84512610D01*
X165784424Y-84512611D01*
X165606762Y-84650891D01*
X165454279Y-84816529D01*
X165454275Y-84816534D01*
X165331141Y-85005006D01*
X165240703Y-85211186D01*
X165240702Y-85211187D01*
X165185437Y-85429424D01*
X165185436Y-85429430D01*
X165185436Y-85429432D01*
X165166844Y-85653800D01*
X165184940Y-85872184D01*
X165185437Y-85878175D01*
X165240702Y-86096412D01*
X165240703Y-86096413D01*
X165240704Y-86096416D01*
X165251318Y-86120613D01*
X165331141Y-86302593D01*
X165454275Y-86491065D01*
X165454279Y-86491070D01*
X165548864Y-86593815D01*
X165604136Y-86653856D01*
X165606762Y-86656708D01*
X165619641Y-86666732D01*
X165784424Y-86794989D01*
X165818205Y-86813270D01*
X165868596Y-86863282D01*
X165883949Y-86932599D01*
X165859389Y-86999212D01*
X165818209Y-87034896D01*
X165784704Y-87053028D01*
X165784698Y-87053032D01*
X165607097Y-87191265D01*
X165454674Y-87356841D01*
X165331580Y-87545251D01*
X165241179Y-87751343D01*
X165241176Y-87751350D01*
X165193455Y-87939799D01*
X165193456Y-87939800D01*
X165915156Y-87939800D01*
X165983277Y-87959802D01*
X166029770Y-88013458D01*
X166039874Y-88083732D01*
X166036053Y-88101296D01*
X166030000Y-88121911D01*
X166030000Y-88265688D01*
X166036053Y-88286304D01*
X166036052Y-88357300D01*
X165997667Y-88417026D01*
X165933086Y-88446518D01*
X165915156Y-88447800D01*
X165193455Y-88447800D01*
X165241176Y-88636249D01*
X165241179Y-88636256D01*
X165331581Y-88842351D01*
X165439534Y-89007585D01*
X165460047Y-89075553D01*
X165440558Y-89143822D01*
X165387253Y-89190717D01*
X165334051Y-89202500D01*
X163611759Y-89202500D01*
X163543638Y-89182498D01*
X163497145Y-89128842D01*
X163487041Y-89058568D01*
X163506276Y-89007584D01*
X163598419Y-88866548D01*
X163688820Y-88660456D01*
X163688823Y-88660449D01*
X163736544Y-88472000D01*
X163014844Y-88472000D01*
X162946723Y-88451998D01*
X162900230Y-88398342D01*
X162890126Y-88328068D01*
X162893947Y-88310504D01*
X162898758Y-88294118D01*
X162900000Y-88289889D01*
X162900000Y-88146111D01*
X162893946Y-88125496D01*
X162893948Y-88054500D01*
X162932333Y-87994774D01*
X162996914Y-87965282D01*
X163014844Y-87964000D01*
X163736544Y-87964000D01*
X163736544Y-87963999D01*
X163688823Y-87775550D01*
X163688820Y-87775543D01*
X163598419Y-87569451D01*
X163475325Y-87381041D01*
X163322902Y-87215465D01*
X163145301Y-87077232D01*
X163145300Y-87077231D01*
X163111791Y-87059097D01*
X163061401Y-87009083D01*
X163046050Y-86939766D01*
X163070612Y-86873153D01*
X163111790Y-86837472D01*
X163145576Y-86819189D01*
X163323240Y-86680906D01*
X163475722Y-86515268D01*
X163598860Y-86326791D01*
X163689296Y-86120616D01*
X163744564Y-85902368D01*
X163763156Y-85678000D01*
X163744564Y-85453632D01*
X163744562Y-85453624D01*
X163689297Y-85235387D01*
X163689296Y-85235386D01*
X163689296Y-85235384D01*
X163598860Y-85029209D01*
X163545222Y-84947110D01*
X163475724Y-84840734D01*
X163475720Y-84840729D01*
X163323237Y-84675091D01*
X163201012Y-84579959D01*
X163145576Y-84536811D01*
X163143092Y-84535467D01*
X163112320Y-84518814D01*
X163061929Y-84468802D01*
X163046576Y-84399485D01*
X163071136Y-84332872D01*
X163112320Y-84297186D01*
X163119678Y-84293204D01*
X163145576Y-84279189D01*
X163323240Y-84140906D01*
X163475722Y-83975268D01*
X163598860Y-83786791D01*
X163689296Y-83580616D01*
X163744564Y-83362368D01*
X163763156Y-83138000D01*
X163744564Y-82913632D01*
X163689296Y-82695384D01*
X163598860Y-82489209D01*
X163583047Y-82465006D01*
X163475724Y-82300734D01*
X163475720Y-82300729D01*
X163323237Y-82135091D01*
X163241382Y-82071381D01*
X163145576Y-81996811D01*
X163112319Y-81978813D01*
X163061929Y-81928802D01*
X163046576Y-81859485D01*
X163071136Y-81792872D01*
X163112320Y-81757186D01*
X163112324Y-81757184D01*
X163145576Y-81739189D01*
X163323240Y-81600906D01*
X163475722Y-81435268D01*
X163598860Y-81246791D01*
X163689296Y-81040616D01*
X163744564Y-80822368D01*
X163763156Y-80598000D01*
X163744564Y-80373632D01*
X163698044Y-80189928D01*
X163689297Y-80155387D01*
X163689296Y-80155386D01*
X163689296Y-80155384D01*
X163598860Y-79949209D01*
X163555603Y-79882999D01*
X163475724Y-79760734D01*
X163475719Y-79760729D01*
X163332524Y-79605179D01*
X163301103Y-79541514D01*
X163309090Y-79470968D01*
X163353948Y-79415939D01*
X163381183Y-79401789D01*
X163496204Y-79358889D01*
X163528532Y-79334689D01*
X163613261Y-79271261D01*
X163700887Y-79154207D01*
X163700887Y-79154206D01*
X163700889Y-79154204D01*
X163751989Y-79017201D01*
X163754591Y-78993004D01*
X163758499Y-78956649D01*
X163758500Y-78956632D01*
X163758500Y-77159367D01*
X163758499Y-77159350D01*
X163751990Y-77098803D01*
X163751989Y-77098802D01*
X163751989Y-77098799D01*
X163735104Y-77053531D01*
X163730040Y-76982717D01*
X163764065Y-76920405D01*
X163826377Y-76886380D01*
X163853161Y-76883500D01*
X165067813Y-76883500D01*
X165135934Y-76903502D01*
G37*
%TD.AperFunction*%
%TA.AperFunction,Conductor*%
G36*
X141014960Y-76903502D02*
G01*
X141061453Y-76957158D01*
X141071557Y-77027432D01*
X141064896Y-77053528D01*
X141048011Y-77098799D01*
X141048010Y-77098802D01*
X141048009Y-77098803D01*
X141041500Y-77159350D01*
X141041500Y-78956649D01*
X141048009Y-79017196D01*
X141048011Y-79017204D01*
X141099110Y-79154202D01*
X141099112Y-79154207D01*
X141186738Y-79271261D01*
X141303791Y-79358886D01*
X141303792Y-79358886D01*
X141303796Y-79358889D01*
X141418810Y-79401787D01*
X141475642Y-79444332D01*
X141500453Y-79510852D01*
X141485362Y-79580226D01*
X141467475Y-79605179D01*
X141324280Y-79760729D01*
X141324275Y-79760734D01*
X141201141Y-79949206D01*
X141110703Y-80155386D01*
X141110702Y-80155387D01*
X141055437Y-80373624D01*
X141055436Y-80373630D01*
X141055436Y-80373632D01*
X141036844Y-80598000D01*
X141055393Y-80821855D01*
X141055437Y-80822375D01*
X141110702Y-81040612D01*
X141110703Y-81040613D01*
X141201141Y-81246793D01*
X141324275Y-81435265D01*
X141324279Y-81435270D01*
X141476762Y-81600908D01*
X141531331Y-81643381D01*
X141654424Y-81739189D01*
X141687676Y-81757184D01*
X141687680Y-81757186D01*
X141738071Y-81807200D01*
X141753423Y-81876516D01*
X141728862Y-81943129D01*
X141687680Y-81978813D01*
X141654426Y-81996810D01*
X141654424Y-81996811D01*
X141476762Y-82135091D01*
X141324279Y-82300729D01*
X141324275Y-82300734D01*
X141201141Y-82489206D01*
X141110703Y-82695386D01*
X141110702Y-82695387D01*
X141055437Y-82913624D01*
X141055436Y-82913630D01*
X141055436Y-82913632D01*
X141036844Y-83138000D01*
X141055321Y-83360982D01*
X141055437Y-83362375D01*
X141110702Y-83580612D01*
X141110703Y-83580613D01*
X141201141Y-83786793D01*
X141324275Y-83975265D01*
X141324279Y-83975270D01*
X141476762Y-84140908D01*
X141531331Y-84183381D01*
X141654424Y-84279189D01*
X141680322Y-84293204D01*
X141687680Y-84297186D01*
X141738071Y-84347200D01*
X141753423Y-84416516D01*
X141728862Y-84483129D01*
X141687680Y-84518813D01*
X141654426Y-84536810D01*
X141654424Y-84536811D01*
X141476762Y-84675091D01*
X141324279Y-84840729D01*
X141324275Y-84840734D01*
X141201141Y-85029206D01*
X141110703Y-85235386D01*
X141110702Y-85235387D01*
X141055437Y-85453624D01*
X141055436Y-85453630D01*
X141055436Y-85453632D01*
X141036844Y-85678000D01*
X141053431Y-85878175D01*
X141055437Y-85902375D01*
X141110702Y-86120612D01*
X141110703Y-86120613D01*
X141201141Y-86326793D01*
X141324275Y-86515265D01*
X141324279Y-86515270D01*
X141476762Y-86680908D01*
X141519135Y-86713888D01*
X141654424Y-86819189D01*
X141688205Y-86837470D01*
X141738596Y-86887482D01*
X141753949Y-86956799D01*
X141729389Y-87023412D01*
X141688209Y-87059096D01*
X141654704Y-87077228D01*
X141654698Y-87077232D01*
X141477097Y-87215465D01*
X141324674Y-87381041D01*
X141201580Y-87569451D01*
X141111179Y-87775543D01*
X141111176Y-87775550D01*
X141063455Y-87963999D01*
X141063456Y-87964000D01*
X141785156Y-87964000D01*
X141853277Y-87984002D01*
X141899770Y-88037658D01*
X141909874Y-88107932D01*
X141906052Y-88125496D01*
X141900000Y-88146111D01*
X141900000Y-88289889D01*
X141901242Y-88294118D01*
X141906053Y-88310504D01*
X141906052Y-88381500D01*
X141867667Y-88441226D01*
X141803086Y-88470718D01*
X141785156Y-88472000D01*
X141063456Y-88472000D01*
X141080909Y-88540924D01*
X141078241Y-88611870D01*
X141037640Y-88670112D01*
X140971996Y-88697157D01*
X140907517Y-88686961D01*
X140782288Y-88631206D01*
X140595487Y-88591500D01*
X140404513Y-88591500D01*
X140217711Y-88631206D01*
X140043247Y-88708882D01*
X139906224Y-88808436D01*
X139839356Y-88832295D01*
X139832163Y-88832500D01*
X139676213Y-88832500D01*
X139608092Y-88812498D01*
X139561599Y-88758842D01*
X139551495Y-88688568D01*
X139558009Y-88665687D01*
X139557129Y-88665385D01*
X139558823Y-88660449D01*
X139606544Y-88472000D01*
X138884844Y-88472000D01*
X138816723Y-88451998D01*
X138770230Y-88398342D01*
X138760126Y-88328068D01*
X138763947Y-88310504D01*
X138768758Y-88294118D01*
X138770000Y-88289889D01*
X138770000Y-88146111D01*
X138763946Y-88125496D01*
X138763948Y-88054500D01*
X138802333Y-87994774D01*
X138866914Y-87965282D01*
X138884844Y-87964000D01*
X139606544Y-87964000D01*
X139606544Y-87963999D01*
X139558823Y-87775550D01*
X139558820Y-87775543D01*
X139468419Y-87569451D01*
X139345325Y-87381041D01*
X139192902Y-87215465D01*
X139015301Y-87077232D01*
X139015300Y-87077231D01*
X138981791Y-87059097D01*
X138931401Y-87009083D01*
X138916050Y-86939766D01*
X138940612Y-86873153D01*
X138981790Y-86837472D01*
X139015576Y-86819189D01*
X139193240Y-86680906D01*
X139345722Y-86515268D01*
X139468860Y-86326791D01*
X139559296Y-86120616D01*
X139614564Y-85902368D01*
X139633156Y-85678000D01*
X139614564Y-85453632D01*
X139614562Y-85453624D01*
X139559297Y-85235387D01*
X139559296Y-85235386D01*
X139559296Y-85235384D01*
X139468860Y-85029209D01*
X139415222Y-84947110D01*
X139345724Y-84840734D01*
X139345720Y-84840729D01*
X139193237Y-84675091D01*
X139071012Y-84579959D01*
X139015576Y-84536811D01*
X139013092Y-84535467D01*
X138982320Y-84518814D01*
X138931929Y-84468802D01*
X138916576Y-84399485D01*
X138941136Y-84332872D01*
X138982320Y-84297186D01*
X138989678Y-84293204D01*
X139015576Y-84279189D01*
X139193240Y-84140906D01*
X139345722Y-83975268D01*
X139468860Y-83786791D01*
X139559296Y-83580616D01*
X139614564Y-83362368D01*
X139633156Y-83138000D01*
X139614564Y-82913632D01*
X139559296Y-82695384D01*
X139468860Y-82489209D01*
X139453047Y-82465006D01*
X139345724Y-82300734D01*
X139345720Y-82300729D01*
X139193237Y-82135091D01*
X139111382Y-82071381D01*
X139015576Y-81996811D01*
X138982319Y-81978813D01*
X138931929Y-81928802D01*
X138916576Y-81859485D01*
X138941136Y-81792872D01*
X138982320Y-81757186D01*
X138982324Y-81757184D01*
X139015576Y-81739189D01*
X139193240Y-81600906D01*
X139345722Y-81435268D01*
X139468860Y-81246791D01*
X139559296Y-81040616D01*
X139614564Y-80822368D01*
X139633156Y-80598000D01*
X139614564Y-80373632D01*
X139568044Y-80189928D01*
X139559297Y-80155387D01*
X139559296Y-80155386D01*
X139559296Y-80155384D01*
X139468860Y-79949209D01*
X139425603Y-79882999D01*
X139345724Y-79760734D01*
X139345719Y-79760729D01*
X139202524Y-79605179D01*
X139171103Y-79541514D01*
X139179090Y-79470968D01*
X139223948Y-79415939D01*
X139251183Y-79401789D01*
X139366204Y-79358889D01*
X139398532Y-79334689D01*
X139483261Y-79271261D01*
X139570887Y-79154207D01*
X139570887Y-79154206D01*
X139570889Y-79154204D01*
X139621989Y-79017201D01*
X139624591Y-78993004D01*
X139628499Y-78956649D01*
X139628500Y-78956632D01*
X139628500Y-77159367D01*
X139628499Y-77159350D01*
X139621990Y-77098803D01*
X139621989Y-77098802D01*
X139621989Y-77098799D01*
X139605104Y-77053531D01*
X139600040Y-76982717D01*
X139634065Y-76920405D01*
X139696377Y-76886380D01*
X139723161Y-76883500D01*
X140946839Y-76883500D01*
X141014960Y-76903502D01*
G37*
%TD.AperFunction*%
%TA.AperFunction,Conductor*%
G36*
X187001899Y-70000614D02*
G01*
X187099023Y-70006489D01*
X187274922Y-70018019D01*
X187282116Y-70018911D01*
X187407537Y-70041895D01*
X187553258Y-70070881D01*
X187559682Y-70072516D01*
X187686922Y-70112166D01*
X187822712Y-70158261D01*
X187828309Y-70160464D01*
X187936072Y-70208964D01*
X187952106Y-70216181D01*
X188079071Y-70278793D01*
X188083774Y-70281367D01*
X188199935Y-70351589D01*
X188202310Y-70353100D01*
X188318281Y-70430589D01*
X188322091Y-70433349D01*
X188429338Y-70517372D01*
X188431997Y-70519577D01*
X188477175Y-70559197D01*
X188536525Y-70611246D01*
X188539519Y-70614050D01*
X188635947Y-70710478D01*
X188638752Y-70713473D01*
X188730413Y-70817991D01*
X188732633Y-70820669D01*
X188787407Y-70890582D01*
X188816640Y-70927895D01*
X188819416Y-70931727D01*
X188892156Y-71040590D01*
X188896886Y-71047669D01*
X188898418Y-71050078D01*
X188968623Y-71166211D01*
X188971212Y-71170941D01*
X189033818Y-71297893D01*
X189089529Y-71421677D01*
X189091737Y-71427285D01*
X189137842Y-71563104D01*
X189177478Y-71690301D01*
X189179121Y-71696758D01*
X189208110Y-71842494D01*
X189231084Y-71967860D01*
X189231982Y-71975102D01*
X189243517Y-72151102D01*
X189249385Y-72248098D01*
X189249500Y-72251903D01*
X189249500Y-101498096D01*
X189249385Y-101501901D01*
X189243517Y-101598897D01*
X189231982Y-101774896D01*
X189231084Y-101782138D01*
X189208110Y-101907505D01*
X189179121Y-102053240D01*
X189177478Y-102059697D01*
X189137842Y-102186895D01*
X189091737Y-102322713D01*
X189089529Y-102328321D01*
X189033818Y-102452106D01*
X188971212Y-102579057D01*
X188968623Y-102583787D01*
X188898418Y-102699920D01*
X188896886Y-102702329D01*
X188819432Y-102818249D01*
X188816640Y-102822103D01*
X188732640Y-102929321D01*
X188730413Y-102932007D01*
X188638752Y-103036525D01*
X188635933Y-103039535D01*
X188539535Y-103135933D01*
X188536525Y-103138752D01*
X188432007Y-103230413D01*
X188429321Y-103232640D01*
X188322103Y-103316640D01*
X188318249Y-103319432D01*
X188202329Y-103396886D01*
X188199920Y-103398418D01*
X188083787Y-103468623D01*
X188079057Y-103471212D01*
X187952106Y-103533818D01*
X187828321Y-103589529D01*
X187822713Y-103591737D01*
X187686895Y-103637842D01*
X187559697Y-103677478D01*
X187553240Y-103679121D01*
X187407505Y-103708110D01*
X187282138Y-103731084D01*
X187274896Y-103731982D01*
X187098897Y-103743517D01*
X187006405Y-103749112D01*
X187001900Y-103749385D01*
X186998097Y-103749500D01*
X116251903Y-103749500D01*
X116248099Y-103749385D01*
X116243309Y-103749095D01*
X116151102Y-103743517D01*
X115975102Y-103731982D01*
X115967860Y-103731084D01*
X115842494Y-103708110D01*
X115696758Y-103679121D01*
X115690301Y-103677478D01*
X115563104Y-103637842D01*
X115427285Y-103591737D01*
X115421677Y-103589529D01*
X115297893Y-103533818D01*
X115170941Y-103471212D01*
X115166211Y-103468623D01*
X115050078Y-103398418D01*
X115047669Y-103396886D01*
X115040590Y-103392156D01*
X114931727Y-103319416D01*
X114927895Y-103316640D01*
X114820677Y-103232640D01*
X114817991Y-103230413D01*
X114713473Y-103138752D01*
X114710478Y-103135947D01*
X114614050Y-103039519D01*
X114611246Y-103036525D01*
X114519585Y-102932007D01*
X114517372Y-102929338D01*
X114433349Y-102822091D01*
X114430589Y-102818281D01*
X114353100Y-102702310D01*
X114351580Y-102699920D01*
X114331315Y-102666397D01*
X114281367Y-102583774D01*
X114278786Y-102579057D01*
X114216181Y-102452106D01*
X114204126Y-102425322D01*
X114160464Y-102328309D01*
X114158261Y-102322712D01*
X114112166Y-102186922D01*
X114072516Y-102059682D01*
X114070881Y-102053258D01*
X114041889Y-101907505D01*
X114018911Y-101782116D01*
X114018019Y-101774922D01*
X114006489Y-101599023D01*
X114000614Y-101501899D01*
X114000500Y-101498098D01*
X114000500Y-101094003D01*
X114518620Y-101094003D01*
X114538090Y-101291694D01*
X114538091Y-101291700D01*
X114538092Y-101291701D01*
X114595759Y-101481804D01*
X114689405Y-101657004D01*
X114815432Y-101810568D01*
X114968996Y-101936595D01*
X115144196Y-102030241D01*
X115334299Y-102087908D01*
X115334303Y-102087908D01*
X115334305Y-102087909D01*
X115418513Y-102096202D01*
X115482453Y-102102500D01*
X115482462Y-102102500D01*
X116381538Y-102102500D01*
X116381547Y-102102500D01*
X116465761Y-102094205D01*
X116529694Y-102087909D01*
X116529695Y-102087908D01*
X116529701Y-102087908D01*
X116719804Y-102030241D01*
X116895004Y-101936595D01*
X117048568Y-101810568D01*
X117050676Y-101808000D01*
X117078933Y-101773568D01*
X117137609Y-101733598D01*
X117176333Y-101727500D01*
X118737667Y-101727500D01*
X118805788Y-101747502D01*
X118835067Y-101773568D01*
X118865429Y-101810566D01*
X118936379Y-101868793D01*
X119018996Y-101936595D01*
X119194196Y-102030241D01*
X119384299Y-102087908D01*
X119384303Y-102087908D01*
X119384305Y-102087909D01*
X119468513Y-102096202D01*
X119532453Y-102102500D01*
X119532462Y-102102500D01*
X120731538Y-102102500D01*
X120731547Y-102102500D01*
X120815761Y-102094205D01*
X120879694Y-102087909D01*
X120879695Y-102087908D01*
X120879701Y-102087908D01*
X121069804Y-102030241D01*
X121245004Y-101936595D01*
X121398568Y-101810568D01*
X121524595Y-101657004D01*
X121618241Y-101481804D01*
X121675908Y-101291701D01*
X121694889Y-101098993D01*
X121695380Y-101094003D01*
X121695380Y-101093996D01*
X121675909Y-100896305D01*
X121675908Y-100896303D01*
X121675908Y-100896299D01*
X121618241Y-100706196D01*
X121524595Y-100530996D01*
X121398568Y-100377432D01*
X121245004Y-100251405D01*
X121069804Y-100157759D01*
X120879701Y-100100092D01*
X120879700Y-100100091D01*
X120879694Y-100100090D01*
X120731553Y-100085500D01*
X120731547Y-100085500D01*
X120248897Y-100085500D01*
X120180776Y-100065498D01*
X120134283Y-100011842D01*
X120124179Y-99941568D01*
X120132485Y-99911291D01*
X120172687Y-99814236D01*
X120192466Y-99664000D01*
X120172687Y-99513764D01*
X120114698Y-99373767D01*
X120114693Y-99373760D01*
X120022451Y-99253548D01*
X119902239Y-99161306D01*
X119902231Y-99161301D01*
X119762234Y-99103312D01*
X119649722Y-99088500D01*
X119649720Y-99088500D01*
X119574280Y-99088500D01*
X119574277Y-99088500D01*
X119461765Y-99103312D01*
X119321768Y-99161301D01*
X119321760Y-99161306D01*
X119201548Y-99253548D01*
X119109306Y-99373760D01*
X119109301Y-99373768D01*
X119051312Y-99513765D01*
X119031534Y-99663999D01*
X119031534Y-99664000D01*
X119051312Y-99814234D01*
X119104283Y-99942115D01*
X119109302Y-99954233D01*
X119154335Y-100012921D01*
X119179936Y-100079141D01*
X119165672Y-100148690D01*
X119116071Y-100199486D01*
X119113770Y-100200747D01*
X119018993Y-100251406D01*
X118865429Y-100377433D01*
X118835067Y-100414432D01*
X118776391Y-100454402D01*
X118737667Y-100460500D01*
X117176333Y-100460500D01*
X117108212Y-100440498D01*
X117078933Y-100414432D01*
X117048570Y-100377433D01*
X116895004Y-100251405D01*
X116719803Y-100157758D01*
X116719798Y-100157756D01*
X116654924Y-100138077D01*
X116595543Y-100099162D01*
X116566627Y-100034321D01*
X116565500Y-100017503D01*
X116565500Y-93530496D01*
X116585502Y-93462375D01*
X116639158Y-93415882D01*
X116654917Y-93409923D01*
X116719804Y-93390241D01*
X116895004Y-93296595D01*
X117048568Y-93170568D01*
X117050842Y-93167798D01*
X117078933Y-93133568D01*
X117137609Y-93093598D01*
X117176333Y-93087500D01*
X118737667Y-93087500D01*
X118805788Y-93107502D01*
X118835067Y-93133568D01*
X118865429Y-93170566D01*
X118876853Y-93179941D01*
X119018996Y-93296595D01*
X119082166Y-93330360D01*
X119113769Y-93347252D01*
X119164417Y-93397004D01*
X119180127Y-93466241D01*
X119155911Y-93532980D01*
X119154336Y-93535078D01*
X119109303Y-93593765D01*
X119109301Y-93593768D01*
X119051312Y-93733765D01*
X119031534Y-93883999D01*
X119031534Y-93884000D01*
X119051312Y-94034234D01*
X119109301Y-94174231D01*
X119109306Y-94174239D01*
X119201548Y-94294451D01*
X119307782Y-94375967D01*
X119321767Y-94386698D01*
X119461764Y-94444687D01*
X119574280Y-94459500D01*
X119574287Y-94459500D01*
X119649713Y-94459500D01*
X119649720Y-94459500D01*
X119762236Y-94444687D01*
X119902233Y-94386698D01*
X120022451Y-94294451D01*
X120114698Y-94174233D01*
X120172687Y-94034236D01*
X120192466Y-93884000D01*
X120172687Y-93733764D01*
X120132487Y-93636714D01*
X120124899Y-93566129D01*
X120156678Y-93502642D01*
X120217736Y-93466414D01*
X120248897Y-93462500D01*
X120731538Y-93462500D01*
X120731547Y-93462500D01*
X120815761Y-93454205D01*
X120879694Y-93447909D01*
X120879695Y-93447908D01*
X120879701Y-93447908D01*
X121069804Y-93390241D01*
X121245004Y-93296595D01*
X121398568Y-93170568D01*
X121524595Y-93017004D01*
X121618241Y-92841804D01*
X121675908Y-92651701D01*
X121676607Y-92644612D01*
X121695380Y-92454003D01*
X121695380Y-92453996D01*
X121675909Y-92256305D01*
X121675908Y-92256303D01*
X121675908Y-92256299D01*
X121618241Y-92066196D01*
X121524595Y-91890996D01*
X121398568Y-91737432D01*
X121245004Y-91611405D01*
X121069804Y-91517759D01*
X120879701Y-91460092D01*
X120879700Y-91460091D01*
X120879694Y-91460090D01*
X120731553Y-91445500D01*
X120731547Y-91445500D01*
X119532453Y-91445500D01*
X119532446Y-91445500D01*
X119384305Y-91460090D01*
X119194195Y-91517759D01*
X119018995Y-91611405D01*
X118865429Y-91737433D01*
X118835067Y-91774432D01*
X118776391Y-91814402D01*
X118737667Y-91820500D01*
X117176333Y-91820500D01*
X117108212Y-91800498D01*
X117078933Y-91774432D01*
X117048570Y-91737433D01*
X116895004Y-91611405D01*
X116719804Y-91517759D01*
X116613849Y-91485618D01*
X116529701Y-91460092D01*
X116529700Y-91460091D01*
X116529694Y-91460090D01*
X116381553Y-91445500D01*
X116381547Y-91445500D01*
X115482453Y-91445500D01*
X115482446Y-91445500D01*
X115334305Y-91460090D01*
X115144195Y-91517759D01*
X114968995Y-91611405D01*
X114815432Y-91737432D01*
X114689405Y-91890995D01*
X114595759Y-92066195D01*
X114538090Y-92256305D01*
X114518620Y-92453996D01*
X114518620Y-92454003D01*
X114538090Y-92651694D01*
X114538091Y-92651700D01*
X114538092Y-92651701D01*
X114595759Y-92841804D01*
X114689405Y-93017004D01*
X114815432Y-93170568D01*
X114968996Y-93296595D01*
X115144196Y-93390241D01*
X115209076Y-93409922D01*
X115268456Y-93448836D01*
X115297372Y-93513677D01*
X115298500Y-93530496D01*
X115298500Y-100017503D01*
X115278498Y-100085624D01*
X115224842Y-100132117D01*
X115209076Y-100138077D01*
X115144201Y-100157756D01*
X115144196Y-100157758D01*
X114968995Y-100251405D01*
X114815432Y-100377432D01*
X114689405Y-100530995D01*
X114595759Y-100706195D01*
X114538090Y-100896305D01*
X114518620Y-101093996D01*
X114518620Y-101094003D01*
X114000500Y-101094003D01*
X114000500Y-85678000D01*
X116906844Y-85678000D01*
X116923431Y-85878175D01*
X116925437Y-85902375D01*
X116980702Y-86120612D01*
X116980703Y-86120613D01*
X117071141Y-86326793D01*
X117194275Y-86515265D01*
X117194279Y-86515270D01*
X117346762Y-86680908D01*
X117389135Y-86713888D01*
X117524424Y-86819189D01*
X117558205Y-86837470D01*
X117608596Y-86887482D01*
X117623949Y-86956799D01*
X117599389Y-87023412D01*
X117558209Y-87059096D01*
X117524704Y-87077228D01*
X117524698Y-87077232D01*
X117347097Y-87215465D01*
X117194674Y-87381041D01*
X117071580Y-87569451D01*
X116981179Y-87775543D01*
X116981176Y-87775550D01*
X116933455Y-87963999D01*
X116933456Y-87964000D01*
X117655156Y-87964000D01*
X117723277Y-87984002D01*
X117769770Y-88037658D01*
X117779874Y-88107932D01*
X117776052Y-88125496D01*
X117770000Y-88146111D01*
X117770000Y-88289889D01*
X117771242Y-88294118D01*
X117776053Y-88310504D01*
X117776052Y-88381500D01*
X117737667Y-88441226D01*
X117673086Y-88470718D01*
X117655156Y-88472000D01*
X116933455Y-88472000D01*
X116981176Y-88660449D01*
X116981179Y-88660456D01*
X117071580Y-88866548D01*
X117194674Y-89054958D01*
X117347097Y-89220534D01*
X117524698Y-89358767D01*
X117524699Y-89358768D01*
X117722628Y-89465882D01*
X117722630Y-89465883D01*
X117935483Y-89538955D01*
X117935492Y-89538957D01*
X118016000Y-89552391D01*
X118016000Y-88832033D01*
X118036002Y-88763912D01*
X118089658Y-88717419D01*
X118159926Y-88707315D01*
X118234237Y-88718000D01*
X118305763Y-88718000D01*
X118380068Y-88707316D01*
X118450340Y-88717419D01*
X118503996Y-88763911D01*
X118523999Y-88832031D01*
X118523999Y-89552391D01*
X118604507Y-89538957D01*
X118604516Y-89538955D01*
X118817369Y-89465883D01*
X118817371Y-89465882D01*
X119015300Y-89358768D01*
X119015301Y-89358767D01*
X119192902Y-89220534D01*
X119345325Y-89054958D01*
X119468419Y-88866548D01*
X119558820Y-88660456D01*
X119558823Y-88660449D01*
X119606544Y-88472000D01*
X118884844Y-88472000D01*
X118816723Y-88451998D01*
X118770230Y-88398342D01*
X118760126Y-88328068D01*
X118763947Y-88310504D01*
X118768758Y-88294118D01*
X118770000Y-88289889D01*
X118770000Y-88146111D01*
X118763946Y-88125496D01*
X118763948Y-88054500D01*
X118802333Y-87994774D01*
X118866914Y-87965282D01*
X118884844Y-87964000D01*
X119606544Y-87964000D01*
X119606544Y-87963999D01*
X119558823Y-87775550D01*
X119558820Y-87775543D01*
X119468419Y-87569451D01*
X119345325Y-87381041D01*
X119192902Y-87215465D01*
X119015301Y-87077232D01*
X119015300Y-87077231D01*
X118981791Y-87059097D01*
X118931401Y-87009083D01*
X118916050Y-86939766D01*
X118940612Y-86873153D01*
X118981790Y-86837472D01*
X119015576Y-86819189D01*
X119193240Y-86680906D01*
X119345722Y-86515268D01*
X119468860Y-86326791D01*
X119559296Y-86120616D01*
X119614564Y-85902368D01*
X119633156Y-85678000D01*
X119614564Y-85453632D01*
X119614562Y-85453624D01*
X119559297Y-85235387D01*
X119559296Y-85235386D01*
X119559296Y-85235384D01*
X119468860Y-85029209D01*
X119415222Y-84947110D01*
X119345724Y-84840734D01*
X119345720Y-84840729D01*
X119193237Y-84675091D01*
X119071012Y-84579959D01*
X119015576Y-84536811D01*
X119013092Y-84535467D01*
X118982320Y-84518814D01*
X118931929Y-84468802D01*
X118916576Y-84399485D01*
X118941136Y-84332872D01*
X118982320Y-84297186D01*
X118989678Y-84293204D01*
X119015576Y-84279189D01*
X119193240Y-84140906D01*
X119345722Y-83975268D01*
X119468860Y-83786791D01*
X119559296Y-83580616D01*
X119614564Y-83362368D01*
X119633156Y-83138000D01*
X119614564Y-82913632D01*
X119559296Y-82695384D01*
X119468860Y-82489209D01*
X119453047Y-82465006D01*
X119345724Y-82300734D01*
X119345720Y-82300729D01*
X119193237Y-82135091D01*
X119111382Y-82071381D01*
X119015576Y-81996811D01*
X118982319Y-81978813D01*
X118931929Y-81928802D01*
X118916576Y-81859485D01*
X118941136Y-81792872D01*
X118982320Y-81757186D01*
X118982324Y-81757184D01*
X119015576Y-81739189D01*
X119193240Y-81600906D01*
X119345722Y-81435268D01*
X119468860Y-81246791D01*
X119559296Y-81040616D01*
X119574661Y-80979943D01*
X123361780Y-80979943D01*
X123366220Y-81026917D01*
X123366500Y-81032850D01*
X123366500Y-98916146D01*
X123364751Y-98931988D01*
X123365044Y-98932016D01*
X123364298Y-98939907D01*
X123366500Y-99009957D01*
X123366500Y-99039851D01*
X123366501Y-99039872D01*
X123367378Y-99046820D01*
X123367844Y-99052732D01*
X123369326Y-99099888D01*
X123369327Y-99099893D01*
X123374977Y-99119339D01*
X123378986Y-99138697D01*
X123381525Y-99158793D01*
X123381526Y-99158799D01*
X123398893Y-99202662D01*
X123400816Y-99208279D01*
X123413982Y-99253593D01*
X123424294Y-99271031D01*
X123432988Y-99288779D01*
X123440444Y-99307609D01*
X123440450Y-99307620D01*
X123468177Y-99345783D01*
X123471437Y-99350746D01*
X123495460Y-99391365D01*
X123509779Y-99405684D01*
X123522617Y-99420714D01*
X123534526Y-99437104D01*
X123534530Y-99437109D01*
X123570880Y-99467180D01*
X123575273Y-99471177D01*
X124081788Y-99977693D01*
X124081803Y-99977707D01*
X124810291Y-100706195D01*
X125492753Y-101388657D01*
X125502720Y-101401097D01*
X125502947Y-101400910D01*
X125507999Y-101407017D01*
X125559095Y-101454999D01*
X125580225Y-101476130D01*
X125585768Y-101480430D01*
X125590281Y-101484285D01*
X125624679Y-101516586D01*
X125624680Y-101516586D01*
X125624682Y-101516588D01*
X125642429Y-101526344D01*
X125658959Y-101537202D01*
X125674959Y-101549613D01*
X125706136Y-101563104D01*
X125718251Y-101568347D01*
X125723585Y-101570959D01*
X125764940Y-101593695D01*
X125784562Y-101598733D01*
X125803263Y-101605135D01*
X125821855Y-101613181D01*
X125868470Y-101620563D01*
X125874242Y-101621758D01*
X125919970Y-101633500D01*
X125940231Y-101633500D01*
X125959939Y-101635050D01*
X125979943Y-101638219D01*
X126013459Y-101635051D01*
X126026910Y-101633780D01*
X126032842Y-101633500D01*
X135791800Y-101633500D01*
X135859921Y-101653502D01*
X135885437Y-101675190D01*
X135888747Y-101678866D01*
X136043248Y-101791118D01*
X136217712Y-101868794D01*
X136404513Y-101908500D01*
X136595487Y-101908500D01*
X136782288Y-101868794D01*
X136956752Y-101791118D01*
X137111253Y-101678866D01*
X137181185Y-101601199D01*
X137239034Y-101536951D01*
X137239035Y-101536949D01*
X137239040Y-101536944D01*
X137334527Y-101371556D01*
X137393542Y-101189928D01*
X137413504Y-101000000D01*
X137393542Y-100810072D01*
X137334527Y-100628444D01*
X137239040Y-100463056D01*
X137239038Y-100463054D01*
X137239034Y-100463048D01*
X137111255Y-100321135D01*
X136956752Y-100208882D01*
X136782288Y-100131206D01*
X136595487Y-100091500D01*
X136404513Y-100091500D01*
X136217711Y-100131206D01*
X136043247Y-100208882D01*
X135888747Y-100321133D01*
X135885437Y-100324810D01*
X135824991Y-100362050D01*
X135791800Y-100366500D01*
X126314595Y-100366500D01*
X126246474Y-100346498D01*
X126225500Y-100329595D01*
X124918121Y-99022215D01*
X124918090Y-99022186D01*
X124670404Y-98774500D01*
X124636378Y-98712188D01*
X124633499Y-98685405D01*
X124633499Y-87863815D01*
X124653501Y-87795694D01*
X124707157Y-87749201D01*
X124777431Y-87739097D01*
X124842011Y-87768591D01*
X124879332Y-87824879D01*
X124895471Y-87874552D01*
X124895476Y-87874561D01*
X124987597Y-88034120D01*
X124990960Y-88039944D01*
X125064137Y-88121215D01*
X125094853Y-88185220D01*
X125096500Y-88205524D01*
X125096499Y-90213146D01*
X125094751Y-90228988D01*
X125095044Y-90229016D01*
X125094297Y-90236908D01*
X125096499Y-90306957D01*
X125096499Y-90336861D01*
X125097378Y-90343821D01*
X125097844Y-90349733D01*
X125099326Y-90396888D01*
X125099327Y-90396893D01*
X125104977Y-90416339D01*
X125108986Y-90435697D01*
X125111525Y-90455793D01*
X125111526Y-90455799D01*
X125128893Y-90499662D01*
X125130816Y-90505279D01*
X125143982Y-90550593D01*
X125154294Y-90568031D01*
X125162988Y-90585779D01*
X125170444Y-90604609D01*
X125170450Y-90604620D01*
X125198177Y-90642783D01*
X125201437Y-90647746D01*
X125225460Y-90688365D01*
X125239779Y-90702684D01*
X125252617Y-90717714D01*
X125262156Y-90730843D01*
X125264528Y-90734107D01*
X125284409Y-90750554D01*
X125300886Y-90764185D01*
X125305267Y-90768171D01*
X125633999Y-91096903D01*
X125857753Y-91320657D01*
X125867720Y-91333097D01*
X125867947Y-91332910D01*
X125872999Y-91339017D01*
X125873000Y-91339018D01*
X125924095Y-91386999D01*
X125945231Y-91408135D01*
X125950770Y-91412431D01*
X125955282Y-91416285D01*
X125983729Y-91442999D01*
X125989678Y-91448585D01*
X125989682Y-91448588D01*
X126007430Y-91458345D01*
X126023957Y-91469201D01*
X126039960Y-91481614D01*
X126083259Y-91500351D01*
X126088585Y-91502960D01*
X126129935Y-91525693D01*
X126129938Y-91525694D01*
X126129940Y-91525695D01*
X126149562Y-91530733D01*
X126168263Y-91537135D01*
X126180814Y-91542567D01*
X126186852Y-91545180D01*
X126186853Y-91545180D01*
X126186855Y-91545181D01*
X126233477Y-91552564D01*
X126239262Y-91553763D01*
X126284970Y-91565500D01*
X126305224Y-91565500D01*
X126324934Y-91567051D01*
X126327141Y-91567400D01*
X126344943Y-91570220D01*
X126378870Y-91567012D01*
X126391917Y-91565780D01*
X126397850Y-91565500D01*
X129905892Y-91565500D01*
X129974013Y-91585502D01*
X130020506Y-91639158D01*
X130030610Y-91709432D01*
X130021279Y-91742114D01*
X130013705Y-91759380D01*
X130013702Y-91759387D01*
X129958437Y-91977624D01*
X129958436Y-91977630D01*
X129958436Y-91977632D01*
X129939844Y-92202000D01*
X129957249Y-92412048D01*
X129958437Y-92426375D01*
X130013702Y-92644612D01*
X130013703Y-92644613D01*
X130013704Y-92644616D01*
X130075818Y-92786222D01*
X130104141Y-92850793D01*
X130227275Y-93039265D01*
X130227279Y-93039270D01*
X130379762Y-93204908D01*
X130421094Y-93237078D01*
X130557424Y-93343189D01*
X130755426Y-93450342D01*
X130755427Y-93450342D01*
X130755428Y-93450343D01*
X130858685Y-93485791D01*
X130968365Y-93523444D01*
X131190431Y-93560500D01*
X131190435Y-93560500D01*
X131415565Y-93560500D01*
X131415569Y-93560500D01*
X131637635Y-93523444D01*
X131850574Y-93450342D01*
X132048576Y-93343189D01*
X132226240Y-93204906D01*
X132378722Y-93039268D01*
X132467516Y-92903357D01*
X132521520Y-92857268D01*
X132591868Y-92847693D01*
X132656226Y-92877670D01*
X132678483Y-92903357D01*
X132767275Y-93039265D01*
X132767279Y-93039270D01*
X132919762Y-93204908D01*
X132961094Y-93237078D01*
X133097424Y-93343189D01*
X133295426Y-93450342D01*
X133295427Y-93450342D01*
X133295428Y-93450343D01*
X133398685Y-93485791D01*
X133508365Y-93523444D01*
X133730431Y-93560500D01*
X133730435Y-93560500D01*
X133955565Y-93560500D01*
X133955569Y-93560500D01*
X134177635Y-93523444D01*
X134390574Y-93450342D01*
X134588576Y-93343189D01*
X134766240Y-93204906D01*
X134827245Y-93138637D01*
X134888096Y-93102067D01*
X134959061Y-93104200D01*
X135017606Y-93144362D01*
X135038000Y-93179941D01*
X135082111Y-93298204D01*
X135082112Y-93298207D01*
X135169738Y-93415261D01*
X135286792Y-93502887D01*
X135286794Y-93502888D01*
X135286796Y-93502889D01*
X135341900Y-93523442D01*
X135423795Y-93553988D01*
X135423803Y-93553990D01*
X135484350Y-93560499D01*
X135484355Y-93560499D01*
X135484362Y-93560500D01*
X136616629Y-93560500D01*
X136684750Y-93580502D01*
X136705724Y-93597405D01*
X136849092Y-93740773D01*
X136861065Y-93754627D01*
X136875531Y-93774058D01*
X136878261Y-93776349D01*
X136915975Y-93807994D01*
X136920021Y-93811702D01*
X136925900Y-93817581D01*
X136951895Y-93838135D01*
X137011360Y-93888032D01*
X137011366Y-93888035D01*
X137017495Y-93892067D01*
X137017458Y-93892122D01*
X137023811Y-93896169D01*
X137023847Y-93896113D01*
X137030092Y-93899965D01*
X137030095Y-93899967D01*
X137100452Y-93932775D01*
X137169812Y-93967609D01*
X137169813Y-93967609D01*
X137169817Y-93967611D01*
X137176713Y-93970121D01*
X137176689Y-93970185D01*
X137183805Y-93972659D01*
X137183827Y-93972595D01*
X137190791Y-93974903D01*
X137266849Y-93990607D01*
X137300866Y-93998669D01*
X137342344Y-94008500D01*
X137342350Y-94008500D01*
X137349633Y-94009352D01*
X137349625Y-94009419D01*
X137357122Y-94010185D01*
X137357128Y-94010119D01*
X137364435Y-94010757D01*
X137364442Y-94010759D01*
X137442080Y-94008500D01*
X145883629Y-94008500D01*
X145951750Y-94028502D01*
X145972724Y-94045405D01*
X146454595Y-94527276D01*
X146488621Y-94589588D01*
X146491500Y-94616371D01*
X146491500Y-96875643D01*
X146471498Y-96943764D01*
X146417842Y-96990257D01*
X146347568Y-97000361D01*
X146282988Y-96970867D01*
X146264433Y-96950885D01*
X146199172Y-96863224D01*
X146199168Y-96863220D01*
X146193256Y-96856953D01*
X146193255Y-96856953D01*
X145039542Y-98010667D01*
X144977230Y-98044693D01*
X144906415Y-98039628D01*
X144851936Y-98000132D01*
X144798143Y-97932678D01*
X144686674Y-97835290D01*
X144648534Y-97775408D01*
X144648824Y-97704412D01*
X144680479Y-97651308D01*
X145830782Y-96501005D01*
X145690293Y-96383122D01*
X145397550Y-96190582D01*
X145084422Y-96033323D01*
X145084417Y-96033321D01*
X144755174Y-95913486D01*
X144755169Y-95913485D01*
X144414220Y-95832678D01*
X144414214Y-95832677D01*
X144066199Y-95792000D01*
X143715801Y-95792000D01*
X143367785Y-95832677D01*
X143367779Y-95832678D01*
X143026830Y-95913485D01*
X143026825Y-95913486D01*
X142697582Y-96033321D01*
X142697577Y-96033323D01*
X142384449Y-96190582D01*
X142091700Y-96383126D01*
X141951215Y-96501005D01*
X143099833Y-97649623D01*
X143133859Y-97711935D01*
X143128794Y-97782750D01*
X143086247Y-97839586D01*
X143084801Y-97840652D01*
X143065257Y-97854851D01*
X143065251Y-97854857D01*
X142920369Y-98006392D01*
X142858836Y-98041807D01*
X142787924Y-98038332D01*
X142740202Y-98008413D01*
X141588743Y-96856953D01*
X141588742Y-96856953D01*
X141582835Y-96863215D01*
X141582830Y-96863221D01*
X141373596Y-97144271D01*
X141373586Y-97144287D01*
X141198398Y-97447721D01*
X141198395Y-97447726D01*
X141059617Y-97769452D01*
X141059615Y-97769458D01*
X140959120Y-98105131D01*
X140898274Y-98450205D01*
X140898274Y-98450211D01*
X140877902Y-98799999D01*
X140898274Y-99149788D01*
X140898274Y-99149794D01*
X140959120Y-99494868D01*
X141059615Y-99830541D01*
X141059617Y-99830547D01*
X141198395Y-100152273D01*
X141198398Y-100152278D01*
X141373586Y-100455712D01*
X141373604Y-100455739D01*
X141582827Y-100736775D01*
X141582831Y-100736779D01*
X141588742Y-100743045D01*
X142742455Y-99589331D01*
X142804768Y-99555306D01*
X142875583Y-99560370D01*
X142930062Y-99599866D01*
X142981207Y-99664000D01*
X142983856Y-99667321D01*
X143095324Y-99764708D01*
X143133464Y-99824590D01*
X143133174Y-99895586D01*
X143101519Y-99948690D01*
X141951215Y-101098994D01*
X142091701Y-101216874D01*
X142384449Y-101409417D01*
X142697577Y-101566676D01*
X142697582Y-101566678D01*
X143026825Y-101686513D01*
X143026830Y-101686514D01*
X143367779Y-101767321D01*
X143367785Y-101767322D01*
X143715801Y-101808000D01*
X144066199Y-101808000D01*
X144414214Y-101767322D01*
X144414220Y-101767321D01*
X144755169Y-101686514D01*
X144755174Y-101686513D01*
X145084417Y-101566678D01*
X145084422Y-101566676D01*
X145397550Y-101409417D01*
X145690303Y-101216871D01*
X145830782Y-101098994D01*
X145830783Y-101098993D01*
X144682165Y-99950376D01*
X144648140Y-99888064D01*
X144653204Y-99817249D01*
X144695751Y-99760413D01*
X144697063Y-99759445D01*
X144716747Y-99745144D01*
X144861631Y-99593606D01*
X144923162Y-99558193D01*
X144994074Y-99561667D01*
X145041797Y-99591586D01*
X146193255Y-100743045D01*
X146193258Y-100743045D01*
X146199159Y-100736790D01*
X146199163Y-100736785D01*
X146408403Y-100455728D01*
X146408413Y-100455712D01*
X146583601Y-100152278D01*
X146583604Y-100152273D01*
X146722382Y-99830547D01*
X146722384Y-99830541D01*
X146822879Y-99494868D01*
X146870683Y-99223760D01*
X146902210Y-99160148D01*
X146963124Y-99123678D01*
X147034085Y-99125931D01*
X147083864Y-99156545D01*
X147668092Y-99740773D01*
X147680065Y-99754627D01*
X147694530Y-99774057D01*
X147734975Y-99807994D01*
X147739021Y-99811702D01*
X147744900Y-99817581D01*
X147770895Y-99838135D01*
X147830360Y-99888032D01*
X147830366Y-99888035D01*
X147836495Y-99892067D01*
X147836458Y-99892122D01*
X147842811Y-99896169D01*
X147842847Y-99896113D01*
X147849092Y-99899965D01*
X147849095Y-99899967D01*
X147919452Y-99932775D01*
X147988812Y-99967609D01*
X147988813Y-99967609D01*
X147988817Y-99967611D01*
X147995713Y-99970121D01*
X147995689Y-99970185D01*
X148002805Y-99972659D01*
X148002827Y-99972595D01*
X148009791Y-99974903D01*
X148085849Y-99990607D01*
X148116561Y-99997886D01*
X148161344Y-100008500D01*
X148161350Y-100008500D01*
X148168633Y-100009352D01*
X148168625Y-100009419D01*
X148176122Y-100010185D01*
X148176128Y-100010119D01*
X148183435Y-100010757D01*
X148183442Y-100010759D01*
X148261080Y-100008500D01*
X163435559Y-100008500D01*
X163453819Y-100009830D01*
X163458715Y-100010547D01*
X163477789Y-100013341D01*
X163511146Y-100010422D01*
X163530385Y-100008740D01*
X163535878Y-100008500D01*
X163544176Y-100008500D01*
X163544180Y-100008500D01*
X163570512Y-100005421D01*
X163577096Y-100004652D01*
X163583861Y-100004060D01*
X163654426Y-99997887D01*
X163654432Y-99997884D01*
X163661618Y-99996402D01*
X163661631Y-99996468D01*
X163668987Y-99994836D01*
X163668972Y-99994771D01*
X163676104Y-99993079D01*
X163676113Y-99993079D01*
X163749065Y-99966526D01*
X163822738Y-99942114D01*
X163822740Y-99942112D01*
X163829389Y-99939012D01*
X163829418Y-99939074D01*
X163836203Y-99935789D01*
X163836173Y-99935729D01*
X163842728Y-99932436D01*
X163842732Y-99932435D01*
X163907605Y-99889766D01*
X163973651Y-99849030D01*
X163973660Y-99849020D01*
X163979408Y-99844477D01*
X163979450Y-99844531D01*
X163985289Y-99839775D01*
X163985246Y-99839723D01*
X163990865Y-99835006D01*
X163990874Y-99835001D01*
X164044163Y-99778517D01*
X165022680Y-98799999D01*
X169833902Y-98799999D01*
X169854274Y-99149788D01*
X169854274Y-99149794D01*
X169915120Y-99494868D01*
X170015615Y-99830541D01*
X170015617Y-99830547D01*
X170154395Y-100152273D01*
X170154398Y-100152278D01*
X170329586Y-100455712D01*
X170329604Y-100455739D01*
X170538827Y-100736775D01*
X170538831Y-100736779D01*
X170544742Y-100743045D01*
X171698455Y-99589331D01*
X171760768Y-99555306D01*
X171831583Y-99560370D01*
X171886062Y-99599866D01*
X171937207Y-99664000D01*
X171939856Y-99667321D01*
X172051324Y-99764708D01*
X172089464Y-99824590D01*
X172089174Y-99895586D01*
X172057519Y-99948690D01*
X170907215Y-101098994D01*
X171047701Y-101216874D01*
X171340449Y-101409417D01*
X171653577Y-101566676D01*
X171653582Y-101566678D01*
X171982825Y-101686513D01*
X171982830Y-101686514D01*
X172323779Y-101767321D01*
X172323785Y-101767322D01*
X172671801Y-101808000D01*
X173022199Y-101808000D01*
X173370214Y-101767322D01*
X173370220Y-101767321D01*
X173711169Y-101686514D01*
X173711174Y-101686513D01*
X174040417Y-101566678D01*
X174040422Y-101566676D01*
X174353550Y-101409417D01*
X174646303Y-101216871D01*
X174786782Y-101098994D01*
X174786783Y-101098993D01*
X173638165Y-99950376D01*
X173604140Y-99888064D01*
X173609204Y-99817249D01*
X173651751Y-99760413D01*
X173653063Y-99759445D01*
X173672747Y-99745144D01*
X173817631Y-99593606D01*
X173879162Y-99558193D01*
X173950074Y-99561667D01*
X173997797Y-99591586D01*
X175149255Y-100743045D01*
X175149258Y-100743045D01*
X175155159Y-100736790D01*
X175155163Y-100736785D01*
X175364403Y-100455728D01*
X175364413Y-100455712D01*
X175426256Y-100348597D01*
X180767001Y-100348597D01*
X180773506Y-100409093D01*
X180824556Y-100545964D01*
X180824556Y-100545965D01*
X180912096Y-100662904D01*
X181029035Y-100750444D01*
X181165907Y-100801494D01*
X181226403Y-100807999D01*
X181226416Y-100808000D01*
X182321001Y-100808000D01*
X182321001Y-99768305D01*
X182341003Y-99700184D01*
X182394659Y-99653691D01*
X182464933Y-99643587D01*
X182478326Y-99646261D01*
X182492887Y-99650000D01*
X182492890Y-99650000D01*
X182615891Y-99650000D01*
X182615895Y-99650000D01*
X182687208Y-99640991D01*
X182757299Y-99652297D01*
X182810150Y-99699702D01*
X182829001Y-99765997D01*
X182829001Y-100808000D01*
X183923586Y-100808000D01*
X183923598Y-100807999D01*
X183984094Y-100801494D01*
X184120965Y-100750444D01*
X184120966Y-100750444D01*
X184237905Y-100662904D01*
X184325445Y-100545965D01*
X184325445Y-100545964D01*
X184376495Y-100409093D01*
X184383000Y-100348597D01*
X184383001Y-100348585D01*
X184383001Y-99254000D01*
X183340577Y-99254000D01*
X183272456Y-99233998D01*
X183225963Y-99180342D01*
X183215859Y-99110068D01*
X183216809Y-99104391D01*
X183228873Y-99041146D01*
X183228874Y-99041133D01*
X183218731Y-98879911D01*
X183234416Y-98810669D01*
X183285047Y-98760899D01*
X183344482Y-98746000D01*
X184383001Y-98746000D01*
X184383001Y-97651414D01*
X184383000Y-97651402D01*
X184376495Y-97590906D01*
X184325445Y-97454035D01*
X184325445Y-97454034D01*
X184237905Y-97337095D01*
X184120966Y-97249555D01*
X183984094Y-97198505D01*
X183923598Y-97192000D01*
X182829001Y-97192000D01*
X182829001Y-98231694D01*
X182808999Y-98299815D01*
X182755343Y-98346308D01*
X182685069Y-98356412D01*
X182671668Y-98353736D01*
X182657120Y-98350001D01*
X182657117Y-98350000D01*
X182657115Y-98350000D01*
X182534107Y-98350000D01*
X182534105Y-98350000D01*
X182462792Y-98359009D01*
X182392702Y-98347702D01*
X182339851Y-98300296D01*
X182321001Y-98234002D01*
X182321001Y-97192000D01*
X181226403Y-97192000D01*
X181165907Y-97198505D01*
X181029036Y-97249555D01*
X181029035Y-97249555D01*
X180912096Y-97337095D01*
X180824556Y-97454034D01*
X180824556Y-97454035D01*
X180773506Y-97590906D01*
X180767001Y-97651402D01*
X180767001Y-98746000D01*
X181809425Y-98746000D01*
X181877546Y-98766002D01*
X181924039Y-98819658D01*
X181934143Y-98889932D01*
X181933193Y-98895609D01*
X181921128Y-98958853D01*
X181921128Y-98958862D01*
X181931271Y-99120089D01*
X181915586Y-99189331D01*
X181864955Y-99239101D01*
X181805520Y-99254000D01*
X180767001Y-99254000D01*
X180767001Y-100348597D01*
X175426256Y-100348597D01*
X175539601Y-100152278D01*
X175539604Y-100152273D01*
X175678382Y-99830547D01*
X175678384Y-99830541D01*
X175778879Y-99494868D01*
X175839725Y-99149794D01*
X175839725Y-99149788D01*
X175860097Y-98799999D01*
X175839725Y-98450211D01*
X175839725Y-98450205D01*
X175778879Y-98105131D01*
X175678384Y-97769458D01*
X175678382Y-97769452D01*
X175539604Y-97447726D01*
X175539601Y-97447721D01*
X175364413Y-97144287D01*
X175364395Y-97144260D01*
X175155172Y-96863224D01*
X175155168Y-96863220D01*
X175149256Y-96856953D01*
X175149255Y-96856953D01*
X173995542Y-98010667D01*
X173933230Y-98044693D01*
X173862415Y-98039628D01*
X173807936Y-98000132D01*
X173754143Y-97932678D01*
X173642674Y-97835290D01*
X173604534Y-97775408D01*
X173604824Y-97704412D01*
X173636479Y-97651308D01*
X174786782Y-96501005D01*
X174646293Y-96383122D01*
X174353550Y-96190582D01*
X174040422Y-96033323D01*
X174040417Y-96033321D01*
X173711174Y-95913486D01*
X173711169Y-95913485D01*
X173370220Y-95832678D01*
X173370214Y-95832677D01*
X173022199Y-95792000D01*
X172671801Y-95792000D01*
X172323785Y-95832677D01*
X172323779Y-95832678D01*
X171982830Y-95913485D01*
X171982825Y-95913486D01*
X171653582Y-96033321D01*
X171653577Y-96033323D01*
X171340449Y-96190582D01*
X171047700Y-96383126D01*
X170907215Y-96501005D01*
X172055833Y-97649623D01*
X172089859Y-97711935D01*
X172084794Y-97782750D01*
X172042247Y-97839586D01*
X172040801Y-97840652D01*
X172021257Y-97854851D01*
X172021251Y-97854857D01*
X171876369Y-98006392D01*
X171814836Y-98041807D01*
X171743924Y-98038332D01*
X171696202Y-98008413D01*
X170544743Y-96856953D01*
X170544742Y-96856953D01*
X170538835Y-96863215D01*
X170538830Y-96863221D01*
X170329596Y-97144271D01*
X170329586Y-97144287D01*
X170154398Y-97447721D01*
X170154395Y-97447726D01*
X170015617Y-97769452D01*
X170015615Y-97769458D01*
X169915120Y-98105131D01*
X169854274Y-98450205D01*
X169854274Y-98450211D01*
X169833902Y-98799999D01*
X165022680Y-98799999D01*
X165240784Y-98581895D01*
X165254617Y-98569941D01*
X165274058Y-98555469D01*
X165308001Y-98515015D01*
X165311700Y-98510979D01*
X165317581Y-98505100D01*
X165328334Y-98491500D01*
X165338135Y-98479105D01*
X165362379Y-98450211D01*
X165388032Y-98419640D01*
X165388033Y-98419636D01*
X165388036Y-98419634D01*
X165392070Y-98413502D01*
X165392127Y-98413539D01*
X165396171Y-98407191D01*
X165396112Y-98407155D01*
X165399961Y-98400912D01*
X165399967Y-98400905D01*
X165432775Y-98330547D01*
X165467609Y-98261188D01*
X165467610Y-98261182D01*
X165470119Y-98254291D01*
X165470184Y-98254314D01*
X165472658Y-98247197D01*
X165472594Y-98247176D01*
X165474903Y-98240208D01*
X165490607Y-98164150D01*
X165504595Y-98105131D01*
X165508500Y-98088656D01*
X165508500Y-98088649D01*
X165509352Y-98081368D01*
X165509419Y-98081375D01*
X165510185Y-98073877D01*
X165510119Y-98073872D01*
X165510757Y-98066565D01*
X165510759Y-98066558D01*
X165508500Y-97988920D01*
X165508500Y-94116371D01*
X165528502Y-94048250D01*
X165545405Y-94027276D01*
X166277276Y-93295405D01*
X166339588Y-93261379D01*
X166366371Y-93258500D01*
X174931629Y-93258500D01*
X174999750Y-93278502D01*
X175020724Y-93295405D01*
X175942092Y-94216773D01*
X175954065Y-94230627D01*
X175968530Y-94250057D01*
X176008975Y-94283994D01*
X176013021Y-94287702D01*
X176018900Y-94293581D01*
X176044895Y-94314135D01*
X176104360Y-94364032D01*
X176104366Y-94364035D01*
X176110495Y-94368067D01*
X176110458Y-94368122D01*
X176116811Y-94372169D01*
X176116847Y-94372113D01*
X176123092Y-94375965D01*
X176123095Y-94375967D01*
X176193452Y-94408775D01*
X176262812Y-94443609D01*
X176262813Y-94443609D01*
X176262817Y-94443611D01*
X176269713Y-94446121D01*
X176269689Y-94446185D01*
X176276805Y-94448659D01*
X176276827Y-94448595D01*
X176283791Y-94450903D01*
X176359849Y-94466607D01*
X176393866Y-94474669D01*
X176435344Y-94484500D01*
X176435350Y-94484500D01*
X176442633Y-94485352D01*
X176442625Y-94485419D01*
X176450122Y-94486185D01*
X176450128Y-94486119D01*
X176457435Y-94486757D01*
X176457442Y-94486759D01*
X176535080Y-94484500D01*
X180767847Y-94484500D01*
X180835968Y-94504502D01*
X180882461Y-94558158D01*
X180885137Y-94564467D01*
X180941028Y-94706875D01*
X180941031Y-94706883D01*
X181076555Y-94941617D01*
X181245562Y-95153546D01*
X181392107Y-95289518D01*
X181444258Y-95337907D01*
X181444264Y-95337911D01*
X181668206Y-95490593D01*
X181668213Y-95490597D01*
X181668216Y-95490599D01*
X181809004Y-95558399D01*
X181912424Y-95608204D01*
X181912437Y-95608209D01*
X182171432Y-95688098D01*
X182171434Y-95688098D01*
X182171443Y-95688101D01*
X182439473Y-95728500D01*
X182439477Y-95728500D01*
X182710525Y-95728500D01*
X182710529Y-95728500D01*
X182978559Y-95688101D01*
X182978569Y-95688098D01*
X183237564Y-95608209D01*
X183237566Y-95608207D01*
X183237573Y-95608206D01*
X183237578Y-95608203D01*
X183237582Y-95608202D01*
X183481781Y-95490602D01*
X183481781Y-95490601D01*
X183481787Y-95490599D01*
X183705744Y-95337907D01*
X183904443Y-95153542D01*
X184073444Y-94941621D01*
X184208972Y-94706879D01*
X184308000Y-94454559D01*
X184368316Y-94190299D01*
X184388572Y-93920000D01*
X184368316Y-93649701D01*
X184308000Y-93385441D01*
X184208972Y-93133121D01*
X184208971Y-93133120D01*
X184208970Y-93133116D01*
X184073446Y-92898382D01*
X184056683Y-92877362D01*
X183904443Y-92686458D01*
X183904442Y-92686457D01*
X183904439Y-92686453D01*
X183732955Y-92527341D01*
X183705744Y-92502093D01*
X183689736Y-92491179D01*
X183547769Y-92394387D01*
X183481787Y-92349401D01*
X183481784Y-92349400D01*
X183481782Y-92349398D01*
X183481781Y-92349397D01*
X183237582Y-92231797D01*
X183237564Y-92231790D01*
X182978569Y-92151901D01*
X182978561Y-92151899D01*
X182978559Y-92151899D01*
X182710529Y-92111500D01*
X182439473Y-92111500D01*
X182171443Y-92151899D01*
X182171441Y-92151899D01*
X182171432Y-92151901D01*
X181912437Y-92231790D01*
X181912424Y-92231795D01*
X181668213Y-92349402D01*
X181668206Y-92349406D01*
X181444264Y-92502088D01*
X181444252Y-92502098D01*
X181245562Y-92686453D01*
X181182835Y-92765111D01*
X181076558Y-92898379D01*
X181073024Y-92904499D01*
X181021644Y-92953492D01*
X180963905Y-92967500D01*
X176890371Y-92967500D01*
X176822250Y-92947498D01*
X176801276Y-92930595D01*
X175879908Y-92009227D01*
X175867936Y-91995375D01*
X175854721Y-91977624D01*
X175853469Y-91975942D01*
X175848154Y-91971482D01*
X175813024Y-91942003D01*
X175808970Y-91938289D01*
X175803107Y-91932425D01*
X175777104Y-91911864D01*
X175764121Y-91900970D01*
X175717640Y-91861968D01*
X175717638Y-91861967D01*
X175717636Y-91861965D01*
X175711506Y-91857933D01*
X175711541Y-91857878D01*
X175705187Y-91853829D01*
X175705153Y-91853886D01*
X175698906Y-91850033D01*
X175628540Y-91817220D01*
X175606973Y-91806389D01*
X175559188Y-91782391D01*
X175559186Y-91782390D01*
X175559183Y-91782389D01*
X175552289Y-91779880D01*
X175552311Y-91779817D01*
X175545189Y-91777341D01*
X175545169Y-91777404D01*
X175538209Y-91775097D01*
X175462150Y-91759392D01*
X175386652Y-91741499D01*
X175379367Y-91740648D01*
X175379374Y-91740580D01*
X175371877Y-91739814D01*
X175371872Y-91739881D01*
X175364559Y-91739241D01*
X175364558Y-91739241D01*
X175286920Y-91741500D01*
X169046593Y-91741500D01*
X168978472Y-91721498D01*
X168931979Y-91667842D01*
X168921875Y-91597568D01*
X168951369Y-91532988D01*
X168957498Y-91526405D01*
X169492219Y-90991684D01*
X170060657Y-90423245D01*
X170073092Y-90413284D01*
X170072905Y-90413057D01*
X170079009Y-90408005D01*
X170079018Y-90408000D01*
X170126999Y-90356904D01*
X170148134Y-90335770D01*
X170152429Y-90330232D01*
X170156271Y-90325731D01*
X170188586Y-90291321D01*
X170198345Y-90273567D01*
X170209197Y-90257046D01*
X170221613Y-90241041D01*
X170240347Y-90197748D01*
X170242961Y-90192412D01*
X170265694Y-90151061D01*
X170265695Y-90151060D01*
X170270733Y-90131435D01*
X170277138Y-90112730D01*
X170285181Y-90094145D01*
X170292561Y-90047547D01*
X170293762Y-90041740D01*
X170305500Y-89996030D01*
X170305500Y-89975775D01*
X170307051Y-89956063D01*
X170307084Y-89955856D01*
X170310220Y-89936057D01*
X170307629Y-89908651D01*
X170305780Y-89889080D01*
X170305500Y-89883148D01*
X170305500Y-88579595D01*
X170325502Y-88511474D01*
X170342405Y-88490499D01*
X170659501Y-88173404D01*
X170721813Y-88139379D01*
X170748596Y-88136500D01*
X173281800Y-88136500D01*
X173349921Y-88156502D01*
X173375437Y-88178190D01*
X173378747Y-88181866D01*
X173533248Y-88294118D01*
X173707712Y-88371794D01*
X173894513Y-88411500D01*
X174085487Y-88411500D01*
X174272288Y-88371794D01*
X174446752Y-88294118D01*
X174601253Y-88181866D01*
X174624091Y-88156502D01*
X174729034Y-88039951D01*
X174729035Y-88039949D01*
X174729040Y-88039944D01*
X174824527Y-87874556D01*
X174883542Y-87692928D01*
X174903504Y-87503000D01*
X174883542Y-87313072D01*
X174824527Y-87131444D01*
X174729040Y-86966056D01*
X174716661Y-86952308D01*
X174685945Y-86888301D01*
X174694710Y-86817848D01*
X174716663Y-86783689D01*
X174729040Y-86769944D01*
X174824527Y-86604556D01*
X174883542Y-86422928D01*
X174903504Y-86233000D01*
X174883542Y-86043072D01*
X174824527Y-85861444D01*
X174780681Y-85785500D01*
X174763943Y-85716504D01*
X174787164Y-85649413D01*
X174842971Y-85605526D01*
X174889800Y-85596500D01*
X175326406Y-85596500D01*
X175394527Y-85616502D01*
X175415501Y-85633405D01*
X175732595Y-85950499D01*
X175766621Y-86012811D01*
X175769500Y-86039594D01*
X175769500Y-86530146D01*
X175767751Y-86545988D01*
X175768044Y-86546016D01*
X175767298Y-86553907D01*
X175767298Y-86553909D01*
X175767502Y-86560383D01*
X175769500Y-86623957D01*
X175769500Y-86653851D01*
X175769501Y-86653872D01*
X175770378Y-86660820D01*
X175770844Y-86666732D01*
X175772326Y-86713888D01*
X175772327Y-86713893D01*
X175777977Y-86733339D01*
X175781986Y-86752697D01*
X175784525Y-86772793D01*
X175784526Y-86772799D01*
X175801893Y-86816662D01*
X175803816Y-86822279D01*
X175816982Y-86867593D01*
X175827294Y-86885031D01*
X175835988Y-86902779D01*
X175843444Y-86921609D01*
X175843450Y-86921620D01*
X175871177Y-86959783D01*
X175874437Y-86964746D01*
X175898460Y-87005365D01*
X175912779Y-87019684D01*
X175925617Y-87034714D01*
X175935156Y-87047843D01*
X175937528Y-87051107D01*
X175954850Y-87065437D01*
X175973886Y-87081185D01*
X175978267Y-87085171D01*
X176396096Y-87503000D01*
X176784752Y-87891656D01*
X176794722Y-87904100D01*
X176794950Y-87903913D01*
X176800001Y-87910019D01*
X176851078Y-87957983D01*
X176872223Y-87979129D01*
X176872227Y-87979132D01*
X176872230Y-87979135D01*
X176877782Y-87983442D01*
X176882269Y-87987273D01*
X176904507Y-88008156D01*
X176916677Y-88019585D01*
X176916679Y-88019586D01*
X176934428Y-88029343D01*
X176950953Y-88040198D01*
X176966959Y-88052614D01*
X177008686Y-88070670D01*
X177010262Y-88071352D01*
X177015583Y-88073958D01*
X177056940Y-88096695D01*
X177056948Y-88096697D01*
X177076558Y-88101732D01*
X177095267Y-88108137D01*
X177113855Y-88116181D01*
X177160477Y-88123564D01*
X177166262Y-88124763D01*
X177211970Y-88136500D01*
X177232224Y-88136500D01*
X177251934Y-88138051D01*
X177254141Y-88138400D01*
X177271943Y-88141220D01*
X177305870Y-88138012D01*
X177318917Y-88136780D01*
X177324850Y-88136500D01*
X178361800Y-88136500D01*
X178429921Y-88156502D01*
X178455437Y-88178190D01*
X178458747Y-88181866D01*
X178613248Y-88294118D01*
X178787712Y-88371794D01*
X178974513Y-88411500D01*
X179165487Y-88411500D01*
X179352288Y-88371794D01*
X179526752Y-88294118D01*
X179681253Y-88181866D01*
X179704091Y-88156502D01*
X179809034Y-88039951D01*
X179809035Y-88039949D01*
X179809040Y-88039944D01*
X179904527Y-87874556D01*
X179963542Y-87692928D01*
X179983504Y-87503000D01*
X179963542Y-87313072D01*
X179904527Y-87131444D01*
X179833882Y-87009083D01*
X179809042Y-86966059D01*
X179809041Y-86966058D01*
X179809040Y-86966056D01*
X179796661Y-86952308D01*
X179765945Y-86888301D01*
X179774710Y-86817848D01*
X179796663Y-86783689D01*
X179809040Y-86769944D01*
X179904527Y-86604556D01*
X179963542Y-86422928D01*
X179983504Y-86233000D01*
X179963542Y-86043072D01*
X179904527Y-85861444D01*
X179809040Y-85696056D01*
X179809038Y-85696054D01*
X179809034Y-85696048D01*
X179770994Y-85653800D01*
X185166844Y-85653800D01*
X185184940Y-85872184D01*
X185185437Y-85878175D01*
X185240702Y-86096412D01*
X185240703Y-86096413D01*
X185240704Y-86096416D01*
X185251318Y-86120613D01*
X185331141Y-86302593D01*
X185454275Y-86491065D01*
X185454279Y-86491070D01*
X185548864Y-86593815D01*
X185604136Y-86653856D01*
X185606762Y-86656708D01*
X185619641Y-86666732D01*
X185784424Y-86794989D01*
X185818205Y-86813270D01*
X185868596Y-86863282D01*
X185883949Y-86932599D01*
X185859389Y-86999212D01*
X185818209Y-87034896D01*
X185784704Y-87053028D01*
X185784698Y-87053032D01*
X185607097Y-87191265D01*
X185454674Y-87356841D01*
X185331580Y-87545251D01*
X185241179Y-87751343D01*
X185241176Y-87751350D01*
X185193455Y-87939799D01*
X185193456Y-87939800D01*
X185915156Y-87939800D01*
X185983277Y-87959802D01*
X186029770Y-88013458D01*
X186039874Y-88083732D01*
X186036053Y-88101296D01*
X186030000Y-88121911D01*
X186030000Y-88265688D01*
X186036053Y-88286304D01*
X186036052Y-88357300D01*
X185997667Y-88417026D01*
X185933086Y-88446518D01*
X185915156Y-88447800D01*
X185193455Y-88447800D01*
X185241176Y-88636249D01*
X185241179Y-88636256D01*
X185331580Y-88842348D01*
X185454674Y-89030758D01*
X185607097Y-89196334D01*
X185784698Y-89334567D01*
X185784699Y-89334568D01*
X185982628Y-89441682D01*
X185982630Y-89441683D01*
X186195483Y-89514755D01*
X186195492Y-89514757D01*
X186276000Y-89528191D01*
X186276000Y-88807833D01*
X186296002Y-88739712D01*
X186349658Y-88693219D01*
X186419926Y-88683115D01*
X186494237Y-88693800D01*
X186565763Y-88693800D01*
X186640068Y-88683116D01*
X186710340Y-88693219D01*
X186763996Y-88739711D01*
X186783999Y-88807831D01*
X186783999Y-89528191D01*
X186864507Y-89514757D01*
X186864516Y-89514755D01*
X187077369Y-89441683D01*
X187077371Y-89441682D01*
X187275300Y-89334568D01*
X187275301Y-89334567D01*
X187452902Y-89196334D01*
X187605325Y-89030758D01*
X187728419Y-88842348D01*
X187818820Y-88636256D01*
X187818823Y-88636249D01*
X187866544Y-88447800D01*
X187144844Y-88447800D01*
X187076723Y-88427798D01*
X187030230Y-88374142D01*
X187020126Y-88303868D01*
X187023947Y-88286304D01*
X187030000Y-88265688D01*
X187030000Y-88121911D01*
X187023947Y-88101296D01*
X187023948Y-88030300D01*
X187062333Y-87970574D01*
X187126914Y-87941082D01*
X187144844Y-87939800D01*
X187866544Y-87939800D01*
X187866544Y-87939799D01*
X187818823Y-87751350D01*
X187818820Y-87751343D01*
X187728419Y-87545251D01*
X187605325Y-87356841D01*
X187452902Y-87191265D01*
X187275301Y-87053032D01*
X187275300Y-87053031D01*
X187241791Y-87034897D01*
X187191401Y-86984883D01*
X187176050Y-86915566D01*
X187200612Y-86848953D01*
X187241790Y-86813272D01*
X187275576Y-86794989D01*
X187453240Y-86656706D01*
X187605722Y-86491068D01*
X187728860Y-86302591D01*
X187819296Y-86096416D01*
X187874564Y-85878168D01*
X187893156Y-85653800D01*
X187874564Y-85429432D01*
X187819296Y-85211184D01*
X187728860Y-85005009D01*
X187709597Y-84975525D01*
X187605724Y-84816534D01*
X187605720Y-84816529D01*
X187457606Y-84655637D01*
X187453240Y-84650894D01*
X187453239Y-84650893D01*
X187453237Y-84650891D01*
X187351914Y-84572028D01*
X187275576Y-84512611D01*
X187267083Y-84508015D01*
X187242320Y-84494614D01*
X187191929Y-84444602D01*
X187176576Y-84375285D01*
X187201136Y-84308672D01*
X187242320Y-84272986D01*
X187275576Y-84254989D01*
X187453240Y-84116706D01*
X187605722Y-83951068D01*
X187728860Y-83762591D01*
X187819296Y-83556416D01*
X187874564Y-83338168D01*
X187893156Y-83113800D01*
X187874564Y-82889432D01*
X187819296Y-82671184D01*
X187728860Y-82465009D01*
X187722140Y-82454724D01*
X187605724Y-82276534D01*
X187605720Y-82276529D01*
X187453237Y-82110891D01*
X187371382Y-82047181D01*
X187275576Y-81972611D01*
X187242319Y-81954613D01*
X187191929Y-81904602D01*
X187176576Y-81835285D01*
X187201136Y-81768672D01*
X187242320Y-81732986D01*
X187275576Y-81714989D01*
X187453240Y-81576706D01*
X187605722Y-81411068D01*
X187728860Y-81222591D01*
X187819296Y-81016416D01*
X187874564Y-80798168D01*
X187893156Y-80573800D01*
X187874564Y-80349432D01*
X187819296Y-80131184D01*
X187728860Y-79925009D01*
X187653768Y-79810072D01*
X187605724Y-79736534D01*
X187605719Y-79736529D01*
X187462524Y-79580979D01*
X187431103Y-79517314D01*
X187439090Y-79446768D01*
X187483948Y-79391739D01*
X187511183Y-79377589D01*
X187626204Y-79334689D01*
X187644312Y-79321134D01*
X187743261Y-79247061D01*
X187830887Y-79130007D01*
X187830887Y-79130006D01*
X187830889Y-79130004D01*
X187881989Y-78993001D01*
X187885899Y-78956638D01*
X187888499Y-78932449D01*
X187888500Y-78932432D01*
X187888500Y-77135167D01*
X187888499Y-77135150D01*
X187881990Y-77074603D01*
X187881988Y-77074595D01*
X187843136Y-76970432D01*
X187830889Y-76937596D01*
X187830888Y-76937594D01*
X187830887Y-76937592D01*
X187743261Y-76820538D01*
X187626207Y-76732912D01*
X187626202Y-76732910D01*
X187489204Y-76681811D01*
X187489196Y-76681809D01*
X187428649Y-76675300D01*
X187428638Y-76675300D01*
X185631362Y-76675300D01*
X185631350Y-76675300D01*
X185570803Y-76681809D01*
X185570795Y-76681811D01*
X185433797Y-76732910D01*
X185433792Y-76732912D01*
X185316738Y-76820538D01*
X185229112Y-76937592D01*
X185229110Y-76937597D01*
X185178011Y-77074595D01*
X185178009Y-77074603D01*
X185171500Y-77135150D01*
X185171500Y-78932449D01*
X185178009Y-78992996D01*
X185178011Y-78993004D01*
X185229110Y-79130002D01*
X185229112Y-79130007D01*
X185316738Y-79247061D01*
X185433791Y-79334686D01*
X185433792Y-79334686D01*
X185433796Y-79334689D01*
X185548810Y-79377587D01*
X185605642Y-79420132D01*
X185630453Y-79486652D01*
X185615362Y-79556026D01*
X185597475Y-79580979D01*
X185454280Y-79736529D01*
X185454275Y-79736534D01*
X185331141Y-79925006D01*
X185240703Y-80131186D01*
X185240702Y-80131187D01*
X185185437Y-80349424D01*
X185185436Y-80349430D01*
X185185436Y-80349432D01*
X185166844Y-80573800D01*
X185185104Y-80794165D01*
X185185437Y-80798175D01*
X185240702Y-81016412D01*
X185240703Y-81016413D01*
X185240704Y-81016416D01*
X185251318Y-81040613D01*
X185331141Y-81222593D01*
X185454275Y-81411065D01*
X185454279Y-81411070D01*
X185606762Y-81576708D01*
X185637852Y-81600906D01*
X185784424Y-81714989D01*
X185817680Y-81732986D01*
X185868071Y-81783000D01*
X185883423Y-81852316D01*
X185858862Y-81918929D01*
X185817680Y-81954613D01*
X185784426Y-81972610D01*
X185784424Y-81972611D01*
X185606762Y-82110891D01*
X185454279Y-82276529D01*
X185454275Y-82276534D01*
X185331141Y-82465006D01*
X185240703Y-82671186D01*
X185240702Y-82671187D01*
X185185437Y-82889424D01*
X185185436Y-82889430D01*
X185185436Y-82889432D01*
X185166844Y-83113800D01*
X185185232Y-83335712D01*
X185185437Y-83338175D01*
X185240702Y-83556412D01*
X185240703Y-83556413D01*
X185240704Y-83556416D01*
X185251318Y-83580613D01*
X185331141Y-83762593D01*
X185454275Y-83951065D01*
X185454279Y-83951070D01*
X185582539Y-84090395D01*
X185605017Y-84114813D01*
X185606762Y-84116708D01*
X185637852Y-84140906D01*
X185784424Y-84254989D01*
X185817680Y-84272986D01*
X185868071Y-84323000D01*
X185883423Y-84392316D01*
X185858862Y-84458929D01*
X185817680Y-84494613D01*
X185784426Y-84512610D01*
X185784424Y-84512611D01*
X185606762Y-84650891D01*
X185454279Y-84816529D01*
X185454275Y-84816534D01*
X185331141Y-85005006D01*
X185240703Y-85211186D01*
X185240702Y-85211187D01*
X185185437Y-85429424D01*
X185185436Y-85429430D01*
X185185436Y-85429432D01*
X185166844Y-85653800D01*
X179770994Y-85653800D01*
X179681255Y-85554135D01*
X179526752Y-85441882D01*
X179352288Y-85364206D01*
X179165487Y-85324500D01*
X178974513Y-85324500D01*
X178787711Y-85364206D01*
X178613247Y-85441882D01*
X178458747Y-85554133D01*
X178455437Y-85557810D01*
X178394991Y-85595050D01*
X178361800Y-85599500D01*
X178241595Y-85599500D01*
X178173474Y-85579498D01*
X178152500Y-85562595D01*
X178089405Y-85499500D01*
X178055379Y-85437188D01*
X178052500Y-85410405D01*
X178052500Y-84665854D01*
X178054249Y-84650012D01*
X178053956Y-84649985D01*
X178054700Y-84642099D01*
X178054702Y-84642092D01*
X178052500Y-84572028D01*
X178052500Y-84542144D01*
X178051620Y-84535182D01*
X178051156Y-84529293D01*
X178049674Y-84482111D01*
X178044020Y-84462652D01*
X178040012Y-84443297D01*
X178037474Y-84423203D01*
X178020103Y-84379329D01*
X178018189Y-84373740D01*
X178005019Y-84328407D01*
X177994703Y-84310964D01*
X177986005Y-84293209D01*
X177978552Y-84274383D01*
X177950818Y-84236210D01*
X177947558Y-84231247D01*
X177923542Y-84190638D01*
X177909214Y-84176310D01*
X177896384Y-84161289D01*
X177884472Y-84144893D01*
X177884469Y-84144891D01*
X177884469Y-84144890D01*
X177848113Y-84114813D01*
X177843721Y-84110817D01*
X177291241Y-83558336D01*
X177281280Y-83545901D01*
X177281053Y-83546090D01*
X177276000Y-83539982D01*
X177224920Y-83492015D01*
X177203777Y-83470871D01*
X177203772Y-83470866D01*
X177198225Y-83466563D01*
X177193717Y-83462712D01*
X177159325Y-83430417D01*
X177159319Y-83430413D01*
X177141563Y-83420651D01*
X177125047Y-83409802D01*
X177109041Y-83397386D01*
X177078289Y-83384078D01*
X177065740Y-83378648D01*
X177060408Y-83376036D01*
X177019061Y-83353305D01*
X176999436Y-83348266D01*
X176980736Y-83341864D01*
X176962145Y-83333819D01*
X176962143Y-83333818D01*
X176962142Y-83333818D01*
X176915542Y-83326437D01*
X176909729Y-83325233D01*
X176864030Y-83313500D01*
X176843776Y-83313500D01*
X176824066Y-83311949D01*
X176804057Y-83308780D01*
X176804056Y-83308780D01*
X176757083Y-83313220D01*
X176751150Y-83313500D01*
X170009853Y-83313500D01*
X169994011Y-83311750D01*
X169993984Y-83312044D01*
X169986091Y-83311297D01*
X169916028Y-83313500D01*
X169886144Y-83313500D01*
X169886140Y-83313500D01*
X169886129Y-83313501D01*
X169879190Y-83314377D01*
X169873277Y-83314843D01*
X169826114Y-83316325D01*
X169826107Y-83316327D01*
X169806649Y-83321979D01*
X169787304Y-83325985D01*
X169767206Y-83328525D01*
X169767197Y-83328527D01*
X169723331Y-83345894D01*
X169717716Y-83347817D01*
X169672408Y-83360981D01*
X169654964Y-83371297D01*
X169637218Y-83379990D01*
X169618382Y-83387448D01*
X169580209Y-83415181D01*
X169575248Y-83418440D01*
X169534638Y-83442458D01*
X169520311Y-83456784D01*
X169505285Y-83469617D01*
X169488895Y-83481525D01*
X169488893Y-83481527D01*
X169458808Y-83517892D01*
X169454812Y-83522283D01*
X167933422Y-85043672D01*
X167871110Y-85077698D01*
X167800295Y-85072633D01*
X167743459Y-85030086D01*
X167731467Y-85009524D01*
X167731341Y-85009593D01*
X167729205Y-85005646D01*
X167728939Y-85005190D01*
X167728860Y-85005009D01*
X167709597Y-84975525D01*
X167605724Y-84816534D01*
X167605720Y-84816529D01*
X167457606Y-84655637D01*
X167453240Y-84650894D01*
X167453239Y-84650893D01*
X167453237Y-84650891D01*
X167351914Y-84572028D01*
X167275576Y-84512611D01*
X167267083Y-84508015D01*
X167242320Y-84494614D01*
X167191929Y-84444602D01*
X167176576Y-84375285D01*
X167201136Y-84308672D01*
X167242320Y-84272986D01*
X167275576Y-84254989D01*
X167453240Y-84116706D01*
X167605722Y-83951068D01*
X167728860Y-83762591D01*
X167819296Y-83556416D01*
X167874564Y-83338168D01*
X167893156Y-83113800D01*
X167874564Y-82889432D01*
X167819296Y-82671184D01*
X167728860Y-82465009D01*
X167722140Y-82454724D01*
X167605724Y-82276534D01*
X167605720Y-82276529D01*
X167453237Y-82110891D01*
X167371382Y-82047181D01*
X167275576Y-81972611D01*
X167242319Y-81954613D01*
X167191929Y-81904602D01*
X167176576Y-81835285D01*
X167201136Y-81768672D01*
X167242320Y-81732986D01*
X167275576Y-81714989D01*
X167453240Y-81576706D01*
X167605722Y-81411068D01*
X167728860Y-81222591D01*
X167819296Y-81016416D01*
X167874564Y-80798168D01*
X167893156Y-80573800D01*
X167874564Y-80349432D01*
X167819296Y-80131184D01*
X167728860Y-79925009D01*
X167653768Y-79810072D01*
X167605724Y-79736534D01*
X167605719Y-79736529D01*
X167462524Y-79580979D01*
X167431103Y-79517314D01*
X167439090Y-79446768D01*
X167483948Y-79391739D01*
X167511183Y-79377589D01*
X167626204Y-79334689D01*
X167644312Y-79321134D01*
X167743261Y-79247061D01*
X167830887Y-79130007D01*
X167830887Y-79130006D01*
X167830889Y-79130004D01*
X167881989Y-78993001D01*
X167885899Y-78956638D01*
X167888499Y-78932449D01*
X167888500Y-78932432D01*
X167888500Y-77135167D01*
X167888499Y-77135150D01*
X167881990Y-77074603D01*
X167881989Y-77074598D01*
X167874132Y-77053534D01*
X167869066Y-76982718D01*
X167903091Y-76920405D01*
X167965403Y-76886380D01*
X167992187Y-76883500D01*
X172685406Y-76883500D01*
X172753527Y-76903502D01*
X172774501Y-76920405D01*
X173329595Y-77475499D01*
X173363621Y-77537811D01*
X173366500Y-77564594D01*
X173366500Y-79169368D01*
X173346498Y-79237489D01*
X173334137Y-79253678D01*
X173250957Y-79346059D01*
X173155476Y-79511438D01*
X173155473Y-79511444D01*
X173145703Y-79541514D01*
X173096457Y-79693072D01*
X173076496Y-79882999D01*
X173096457Y-80072927D01*
X173123250Y-80155384D01*
X173155473Y-80254556D01*
X173155476Y-80254561D01*
X173250958Y-80419941D01*
X173250965Y-80419951D01*
X173378744Y-80561864D01*
X173414881Y-80588119D01*
X173533248Y-80674118D01*
X173707712Y-80751794D01*
X173894513Y-80791500D01*
X174085487Y-80791500D01*
X174272288Y-80751794D01*
X174446752Y-80674118D01*
X174601253Y-80561866D01*
X174601255Y-80561864D01*
X174729034Y-80419951D01*
X174729035Y-80419949D01*
X174729040Y-80419944D01*
X174824527Y-80254556D01*
X174883542Y-80072928D01*
X174903504Y-79883000D01*
X174883542Y-79693072D01*
X174824527Y-79511444D01*
X174742475Y-79369326D01*
X174729042Y-79346059D01*
X174729041Y-79346058D01*
X174729040Y-79346056D01*
X174665863Y-79275890D01*
X174635146Y-79211882D01*
X174633500Y-79191580D01*
X174633500Y-77333854D01*
X174635249Y-77318012D01*
X174634956Y-77317985D01*
X174635700Y-77310099D01*
X174635702Y-77310092D01*
X174633500Y-77240028D01*
X174633500Y-77210144D01*
X174632620Y-77203182D01*
X174632156Y-77197293D01*
X174630674Y-77150111D01*
X174625020Y-77130652D01*
X174621012Y-77111297D01*
X174618474Y-77091203D01*
X174601103Y-77047329D01*
X174599189Y-77041740D01*
X174586019Y-76996407D01*
X174575703Y-76978964D01*
X174567005Y-76961209D01*
X174559552Y-76942383D01*
X174531818Y-76904210D01*
X174528558Y-76899247D01*
X174504542Y-76858638D01*
X174490214Y-76844310D01*
X174477384Y-76829289D01*
X174465472Y-76812893D01*
X174465469Y-76812891D01*
X174465469Y-76812890D01*
X174429107Y-76782808D01*
X174424726Y-76778822D01*
X173507247Y-75861343D01*
X173497280Y-75848902D01*
X173497053Y-75849091D01*
X173491999Y-75842981D01*
X173440920Y-75795015D01*
X173419777Y-75773871D01*
X173419772Y-75773866D01*
X173414225Y-75769563D01*
X173409717Y-75765712D01*
X173375325Y-75733417D01*
X173375319Y-75733413D01*
X173357563Y-75723651D01*
X173341047Y-75712802D01*
X173325041Y-75700386D01*
X173284843Y-75682991D01*
X173281740Y-75681648D01*
X173276408Y-75679036D01*
X173235061Y-75656305D01*
X173215436Y-75651266D01*
X173196736Y-75644864D01*
X173178145Y-75636819D01*
X173178143Y-75636818D01*
X173178142Y-75636818D01*
X173131542Y-75629437D01*
X173125729Y-75628233D01*
X173080030Y-75616500D01*
X173059776Y-75616500D01*
X173040066Y-75614949D01*
X173020057Y-75611780D01*
X173020056Y-75611780D01*
X172973083Y-75616220D01*
X172967150Y-75616500D01*
X156333854Y-75616500D01*
X156318012Y-75614750D01*
X156317985Y-75615044D01*
X156310092Y-75614297D01*
X156240029Y-75616500D01*
X156210144Y-75616500D01*
X156210140Y-75616500D01*
X156210129Y-75616501D01*
X156203190Y-75617377D01*
X156197277Y-75617843D01*
X156150111Y-75619325D01*
X156130650Y-75624979D01*
X156111304Y-75628985D01*
X156091204Y-75631525D01*
X156091203Y-75631525D01*
X156047335Y-75648893D01*
X156041720Y-75650815D01*
X155996413Y-75663978D01*
X155996404Y-75663982D01*
X155978962Y-75674297D01*
X155961215Y-75682991D01*
X155942383Y-75690447D01*
X155942381Y-75690448D01*
X155904214Y-75718178D01*
X155899254Y-75721436D01*
X155858636Y-75745459D01*
X155858633Y-75745461D01*
X155844312Y-75759783D01*
X155829283Y-75772619D01*
X155812893Y-75784527D01*
X155782808Y-75820892D01*
X155778812Y-75825283D01*
X154678336Y-76925757D01*
X154665901Y-76935721D01*
X154666089Y-76935948D01*
X154659980Y-76941001D01*
X154612015Y-76992079D01*
X154590866Y-77013227D01*
X154586560Y-77018777D01*
X154582714Y-77023279D01*
X154550417Y-77057674D01*
X154550411Y-77057683D01*
X154540651Y-77075435D01*
X154529803Y-77091950D01*
X154517386Y-77107958D01*
X154498645Y-77151264D01*
X154496034Y-77156594D01*
X154473305Y-77197939D01*
X154473303Y-77197944D01*
X154468267Y-77217559D01*
X154461864Y-77236262D01*
X154453819Y-77254852D01*
X154446437Y-77301456D01*
X154445233Y-77307268D01*
X154433500Y-77352968D01*
X154433500Y-77373223D01*
X154431949Y-77392933D01*
X154428780Y-77412942D01*
X154428780Y-77412943D01*
X154433220Y-77459917D01*
X154433500Y-77465850D01*
X154433500Y-79180474D01*
X154413498Y-79248595D01*
X154401137Y-79264784D01*
X154327957Y-79346059D01*
X154232476Y-79511438D01*
X154232473Y-79511444D01*
X154222703Y-79541514D01*
X154173457Y-79693072D01*
X154153496Y-79882999D01*
X154173457Y-80072927D01*
X154200250Y-80155384D01*
X154232473Y-80254556D01*
X154232476Y-80254561D01*
X154327958Y-80419941D01*
X154327965Y-80419951D01*
X154455744Y-80561864D01*
X154491881Y-80588119D01*
X154610248Y-80674118D01*
X154784712Y-80751794D01*
X154971513Y-80791500D01*
X155162487Y-80791500D01*
X155349288Y-80751794D01*
X155523752Y-80674118D01*
X155678253Y-80561866D01*
X155678255Y-80561864D01*
X155806034Y-80419951D01*
X155806035Y-80419949D01*
X155806040Y-80419944D01*
X155901527Y-80254556D01*
X155960542Y-80072928D01*
X155980504Y-79883000D01*
X155960542Y-79693072D01*
X155901527Y-79511444D01*
X155819475Y-79369326D01*
X155806042Y-79346059D01*
X155806041Y-79346058D01*
X155806040Y-79346056D01*
X155732863Y-79264784D01*
X155702146Y-79200776D01*
X155700500Y-79180474D01*
X155700500Y-77747594D01*
X155720502Y-77679473D01*
X155737405Y-77658499D01*
X156475499Y-76920405D01*
X156537811Y-76886379D01*
X156564594Y-76883500D01*
X160946839Y-76883500D01*
X161014960Y-76903502D01*
X161061453Y-76957158D01*
X161071557Y-77027432D01*
X161064896Y-77053528D01*
X161048011Y-77098799D01*
X161048010Y-77098802D01*
X161048009Y-77098803D01*
X161041500Y-77159350D01*
X161041500Y-78956649D01*
X161048009Y-79017196D01*
X161048011Y-79017204D01*
X161099110Y-79154202D01*
X161099112Y-79154207D01*
X161186738Y-79271261D01*
X161303791Y-79358886D01*
X161303792Y-79358886D01*
X161303796Y-79358889D01*
X161418810Y-79401787D01*
X161475642Y-79444332D01*
X161500453Y-79510852D01*
X161485362Y-79580226D01*
X161467475Y-79605179D01*
X161324280Y-79760729D01*
X161324275Y-79760734D01*
X161201141Y-79949206D01*
X161110703Y-80155386D01*
X161110702Y-80155387D01*
X161055437Y-80373624D01*
X161055436Y-80373630D01*
X161055436Y-80373632D01*
X161036844Y-80598000D01*
X161055393Y-80821855D01*
X161055437Y-80822375D01*
X161110702Y-81040612D01*
X161110703Y-81040613D01*
X161201141Y-81246793D01*
X161324275Y-81435265D01*
X161324279Y-81435270D01*
X161476762Y-81600908D01*
X161531331Y-81643381D01*
X161654424Y-81739189D01*
X161687676Y-81757184D01*
X161687680Y-81757186D01*
X161738071Y-81807200D01*
X161753423Y-81876516D01*
X161728862Y-81943129D01*
X161687680Y-81978813D01*
X161654426Y-81996810D01*
X161654424Y-81996811D01*
X161476762Y-82135091D01*
X161324279Y-82300729D01*
X161324275Y-82300734D01*
X161201141Y-82489206D01*
X161110703Y-82695386D01*
X161110702Y-82695387D01*
X161055437Y-82913624D01*
X161055436Y-82913630D01*
X161055436Y-82913632D01*
X161036844Y-83138000D01*
X161055321Y-83360982D01*
X161055437Y-83362375D01*
X161110702Y-83580612D01*
X161110703Y-83580613D01*
X161201141Y-83786793D01*
X161324275Y-83975265D01*
X161324279Y-83975270D01*
X161476762Y-84140908D01*
X161531331Y-84183381D01*
X161654424Y-84279189D01*
X161680322Y-84293204D01*
X161687680Y-84297186D01*
X161738071Y-84347200D01*
X161753423Y-84416516D01*
X161728862Y-84483129D01*
X161687680Y-84518813D01*
X161654426Y-84536810D01*
X161654424Y-84536811D01*
X161476762Y-84675091D01*
X161324279Y-84840729D01*
X161324275Y-84840734D01*
X161201141Y-85029206D01*
X161110703Y-85235386D01*
X161110702Y-85235387D01*
X161055437Y-85453624D01*
X161055436Y-85453630D01*
X161055436Y-85453632D01*
X161036844Y-85678000D01*
X161053431Y-85878175D01*
X161055437Y-85902375D01*
X161110702Y-86120612D01*
X161110703Y-86120613D01*
X161201141Y-86326793D01*
X161324275Y-86515265D01*
X161324279Y-86515270D01*
X161476762Y-86680908D01*
X161519135Y-86713888D01*
X161654424Y-86819189D01*
X161688205Y-86837470D01*
X161738596Y-86887482D01*
X161753949Y-86956799D01*
X161729389Y-87023412D01*
X161688209Y-87059096D01*
X161654704Y-87077228D01*
X161654698Y-87077232D01*
X161477097Y-87215465D01*
X161324674Y-87381041D01*
X161201580Y-87569451D01*
X161111179Y-87775543D01*
X161111176Y-87775550D01*
X161063455Y-87963999D01*
X161063456Y-87964000D01*
X161785156Y-87964000D01*
X161853277Y-87984002D01*
X161899770Y-88037658D01*
X161909874Y-88107932D01*
X161906052Y-88125496D01*
X161900000Y-88146111D01*
X161900000Y-88289889D01*
X161901242Y-88294118D01*
X161906053Y-88310504D01*
X161906052Y-88381500D01*
X161867667Y-88441226D01*
X161803086Y-88470718D01*
X161785156Y-88472000D01*
X161063455Y-88472000D01*
X161111176Y-88660449D01*
X161111179Y-88660456D01*
X161201580Y-88866548D01*
X161293724Y-89007584D01*
X161314237Y-89075553D01*
X161294748Y-89143822D01*
X161241444Y-89190717D01*
X161188241Y-89202500D01*
X154793595Y-89202500D01*
X154725474Y-89182498D01*
X154704499Y-89165595D01*
X154467404Y-88928499D01*
X154433379Y-88866187D01*
X154430500Y-88839404D01*
X154430500Y-86935524D01*
X154450502Y-86867403D01*
X154462858Y-86851220D01*
X154536040Y-86769944D01*
X154631527Y-86604556D01*
X154690542Y-86422928D01*
X154710504Y-86233000D01*
X154690542Y-86043072D01*
X154631527Y-85861444D01*
X154547846Y-85716504D01*
X154536042Y-85696059D01*
X154536041Y-85696058D01*
X154536040Y-85696056D01*
X154462863Y-85614784D01*
X154432146Y-85550776D01*
X154430500Y-85530474D01*
X154430500Y-85130855D01*
X154432249Y-85115014D01*
X154431956Y-85114987D01*
X154432701Y-85107094D01*
X154432702Y-85107091D01*
X154430500Y-85037042D01*
X154430500Y-85007144D01*
X154429619Y-85000178D01*
X154429155Y-84994282D01*
X154427673Y-84947111D01*
X154422022Y-84927664D01*
X154418012Y-84908300D01*
X154417899Y-84907404D01*
X154415474Y-84888203D01*
X154398097Y-84844314D01*
X154396183Y-84838723D01*
X154383018Y-84793407D01*
X154372706Y-84775970D01*
X154364010Y-84758221D01*
X154356552Y-84739383D01*
X154328812Y-84701203D01*
X154325564Y-84696258D01*
X154301542Y-84655638D01*
X154287214Y-84641310D01*
X154274384Y-84626289D01*
X154262472Y-84609893D01*
X154262469Y-84609891D01*
X154262469Y-84609890D01*
X154226107Y-84579808D01*
X154221726Y-84575822D01*
X153077244Y-83431339D01*
X153067279Y-83418901D01*
X153067052Y-83419090D01*
X153062001Y-83412984D01*
X153062000Y-83412982D01*
X153058610Y-83409799D01*
X153010920Y-83365015D01*
X152989777Y-83343871D01*
X152989772Y-83343866D01*
X152984225Y-83339563D01*
X152979717Y-83335712D01*
X152945325Y-83303417D01*
X152945319Y-83303413D01*
X152927563Y-83293651D01*
X152911047Y-83282802D01*
X152895041Y-83270386D01*
X152864289Y-83257078D01*
X152851740Y-83251648D01*
X152846408Y-83249036D01*
X152805061Y-83226305D01*
X152785436Y-83221266D01*
X152766736Y-83214864D01*
X152748145Y-83206819D01*
X152748143Y-83206818D01*
X152748142Y-83206818D01*
X152701542Y-83199437D01*
X152695729Y-83198233D01*
X152650030Y-83186500D01*
X152629776Y-83186500D01*
X152610066Y-83184949D01*
X152590057Y-83181780D01*
X152590056Y-83181780D01*
X152543083Y-83186220D01*
X152537150Y-83186500D01*
X150568200Y-83186500D01*
X150500079Y-83166498D01*
X150474563Y-83144810D01*
X150471252Y-83141133D01*
X150316752Y-83028882D01*
X150142288Y-82951206D01*
X149955487Y-82911500D01*
X149764513Y-82911500D01*
X149577711Y-82951206D01*
X149403247Y-83028882D01*
X149248747Y-83141133D01*
X149245437Y-83144810D01*
X149184991Y-83182050D01*
X149151800Y-83186500D01*
X147530854Y-83186500D01*
X147515012Y-83184750D01*
X147514985Y-83185044D01*
X147507092Y-83184297D01*
X147437029Y-83186500D01*
X147407144Y-83186500D01*
X147407140Y-83186500D01*
X147407129Y-83186501D01*
X147400190Y-83187377D01*
X147394277Y-83187843D01*
X147347114Y-83189325D01*
X147347107Y-83189327D01*
X147327649Y-83194979D01*
X147308304Y-83198985D01*
X147288206Y-83201525D01*
X147288197Y-83201527D01*
X147244331Y-83218894D01*
X147238716Y-83220817D01*
X147193408Y-83233981D01*
X147175964Y-83244297D01*
X147158218Y-83252990D01*
X147139382Y-83260448D01*
X147101209Y-83288181D01*
X147096248Y-83291440D01*
X147055638Y-83315458D01*
X147041311Y-83329784D01*
X147026285Y-83342617D01*
X147009895Y-83354525D01*
X147009893Y-83354527D01*
X146979808Y-83390892D01*
X146975812Y-83395283D01*
X145973340Y-84397754D01*
X145960903Y-84407719D01*
X145961091Y-84407946D01*
X145954982Y-84412999D01*
X145907015Y-84464079D01*
X145885866Y-84485227D01*
X145881560Y-84490777D01*
X145877714Y-84495279D01*
X145845417Y-84529674D01*
X145845411Y-84529683D01*
X145835651Y-84547435D01*
X145824803Y-84563950D01*
X145812386Y-84579958D01*
X145793645Y-84623264D01*
X145791034Y-84628594D01*
X145768305Y-84669939D01*
X145768303Y-84669944D01*
X145763267Y-84689559D01*
X145756864Y-84708262D01*
X145748819Y-84726852D01*
X145741437Y-84773456D01*
X145740233Y-84779268D01*
X145728500Y-84824968D01*
X145728500Y-84845223D01*
X145726949Y-84864933D01*
X145723780Y-84884942D01*
X145723780Y-84884943D01*
X145728220Y-84931917D01*
X145728500Y-84937850D01*
X145728500Y-88527405D01*
X145708498Y-88595526D01*
X145691595Y-88616500D01*
X145478500Y-88829595D01*
X145416188Y-88863621D01*
X145389405Y-88866500D01*
X143791299Y-88866500D01*
X143723178Y-88846498D01*
X143676685Y-88792842D01*
X143666581Y-88722568D01*
X143675911Y-88689887D01*
X143688822Y-88660450D01*
X143688823Y-88660449D01*
X143736544Y-88472000D01*
X143014844Y-88472000D01*
X142946723Y-88451998D01*
X142900230Y-88398342D01*
X142890126Y-88328068D01*
X142893947Y-88310504D01*
X142898758Y-88294118D01*
X142900000Y-88289889D01*
X142900000Y-88146111D01*
X142893946Y-88125496D01*
X142893948Y-88054500D01*
X142932333Y-87994774D01*
X142996914Y-87965282D01*
X143014844Y-87964000D01*
X143736544Y-87964000D01*
X143736544Y-87963999D01*
X143688823Y-87775550D01*
X143688820Y-87775543D01*
X143598419Y-87569451D01*
X143475325Y-87381041D01*
X143322902Y-87215465D01*
X143145301Y-87077232D01*
X143145300Y-87077231D01*
X143111791Y-87059097D01*
X143061401Y-87009083D01*
X143046050Y-86939766D01*
X143070612Y-86873153D01*
X143111790Y-86837472D01*
X143145576Y-86819189D01*
X143323240Y-86680906D01*
X143475722Y-86515268D01*
X143598860Y-86326791D01*
X143689296Y-86120616D01*
X143744564Y-85902368D01*
X143763156Y-85678000D01*
X143744564Y-85453632D01*
X143744562Y-85453624D01*
X143689297Y-85235387D01*
X143689296Y-85235386D01*
X143689296Y-85235384D01*
X143598860Y-85029209D01*
X143545222Y-84947110D01*
X143475724Y-84840734D01*
X143475720Y-84840729D01*
X143323237Y-84675091D01*
X143201012Y-84579959D01*
X143145576Y-84536811D01*
X143143092Y-84535467D01*
X143112320Y-84518814D01*
X143061929Y-84468802D01*
X143046576Y-84399485D01*
X143071136Y-84332872D01*
X143112320Y-84297186D01*
X143119678Y-84293204D01*
X143145576Y-84279189D01*
X143323240Y-84140906D01*
X143475722Y-83975268D01*
X143598860Y-83786791D01*
X143689296Y-83580616D01*
X143744564Y-83362368D01*
X143763156Y-83138000D01*
X143744564Y-82913632D01*
X143689296Y-82695384D01*
X143598860Y-82489209D01*
X143583047Y-82465006D01*
X143475724Y-82300734D01*
X143475720Y-82300729D01*
X143323237Y-82135091D01*
X143241382Y-82071381D01*
X143145576Y-81996811D01*
X143112319Y-81978813D01*
X143061929Y-81928802D01*
X143046576Y-81859485D01*
X143071136Y-81792872D01*
X143112320Y-81757186D01*
X143112324Y-81757184D01*
X143145576Y-81739189D01*
X143323240Y-81600906D01*
X143475722Y-81435268D01*
X143598860Y-81246791D01*
X143689296Y-81040616D01*
X143744564Y-80822368D01*
X143763156Y-80598000D01*
X143744564Y-80373632D01*
X143698044Y-80189928D01*
X143689297Y-80155387D01*
X143689296Y-80155386D01*
X143689296Y-80155384D01*
X143598860Y-79949209D01*
X143555603Y-79882999D01*
X143475724Y-79760734D01*
X143475719Y-79760729D01*
X143332524Y-79605179D01*
X143301103Y-79541514D01*
X143309090Y-79470968D01*
X143353948Y-79415939D01*
X143381183Y-79401789D01*
X143496204Y-79358889D01*
X143528532Y-79334689D01*
X143613261Y-79271261D01*
X143700887Y-79154207D01*
X143700887Y-79154206D01*
X143700889Y-79154204D01*
X143751989Y-79017201D01*
X143754591Y-78993004D01*
X143758499Y-78956649D01*
X143758500Y-78956632D01*
X143758500Y-77159367D01*
X143758499Y-77159350D01*
X143751990Y-77098803D01*
X143751989Y-77098802D01*
X143751989Y-77098799D01*
X143735104Y-77053531D01*
X143730040Y-76982717D01*
X143764065Y-76920405D01*
X143826377Y-76886380D01*
X143853161Y-76883500D01*
X148435406Y-76883500D01*
X148503527Y-76903502D01*
X148524501Y-76920405D01*
X149329595Y-77725499D01*
X149363621Y-77787811D01*
X149366500Y-77814594D01*
X149366500Y-79054380D01*
X149346498Y-79122501D01*
X149314562Y-79156315D01*
X149248745Y-79204134D01*
X149248744Y-79204135D01*
X149120965Y-79346048D01*
X149120958Y-79346058D01*
X149025476Y-79511438D01*
X149025473Y-79511444D01*
X149015703Y-79541514D01*
X148966457Y-79693072D01*
X148946496Y-79882999D01*
X148966457Y-80072927D01*
X148993250Y-80155384D01*
X149025473Y-80254556D01*
X149025476Y-80254561D01*
X149120958Y-80419941D01*
X149120965Y-80419951D01*
X149248744Y-80561864D01*
X149284881Y-80588119D01*
X149403248Y-80674118D01*
X149577712Y-80751794D01*
X149764513Y-80791500D01*
X149955487Y-80791500D01*
X150142288Y-80751794D01*
X150316752Y-80674118D01*
X150471253Y-80561866D01*
X150471255Y-80561864D01*
X150599034Y-80419951D01*
X150599035Y-80419949D01*
X150599040Y-80419944D01*
X150694527Y-80254556D01*
X150753542Y-80072928D01*
X150773504Y-79883000D01*
X150753542Y-79693072D01*
X150694527Y-79511444D01*
X150662985Y-79456811D01*
X150650381Y-79434980D01*
X150633500Y-79371980D01*
X150633500Y-77583853D01*
X150635249Y-77568011D01*
X150634956Y-77567984D01*
X150635702Y-77560091D01*
X150633500Y-77490028D01*
X150633500Y-77460150D01*
X150633500Y-77460144D01*
X150632620Y-77453182D01*
X150632156Y-77447293D01*
X150630674Y-77400111D01*
X150625017Y-77380642D01*
X150621012Y-77361298D01*
X150618474Y-77341203D01*
X150601100Y-77297322D01*
X150599181Y-77291716D01*
X150586018Y-77246407D01*
X150575706Y-77228970D01*
X150567010Y-77211221D01*
X150559552Y-77192383D01*
X150531812Y-77154203D01*
X150528564Y-77149258D01*
X150504542Y-77108638D01*
X150490214Y-77094310D01*
X150477384Y-77079289D01*
X150465472Y-77062893D01*
X150465469Y-77062891D01*
X150465469Y-77062890D01*
X150429107Y-77032808D01*
X150424726Y-77028822D01*
X149257244Y-75861339D01*
X149247279Y-75848901D01*
X149247052Y-75849090D01*
X149242001Y-75842984D01*
X149242000Y-75842982D01*
X149190920Y-75795015D01*
X149180432Y-75784527D01*
X149169777Y-75773871D01*
X149169772Y-75773866D01*
X149164225Y-75769563D01*
X149159717Y-75765712D01*
X149125325Y-75733417D01*
X149125319Y-75733413D01*
X149107563Y-75723651D01*
X149091047Y-75712802D01*
X149075041Y-75700386D01*
X149034843Y-75682991D01*
X149031740Y-75681648D01*
X149026408Y-75679036D01*
X148985061Y-75656305D01*
X148965436Y-75651266D01*
X148946736Y-75644864D01*
X148928145Y-75636819D01*
X148928143Y-75636818D01*
X148928142Y-75636818D01*
X148881542Y-75629437D01*
X148875729Y-75628233D01*
X148830030Y-75616500D01*
X148809776Y-75616500D01*
X148790066Y-75614949D01*
X148770057Y-75611780D01*
X148770056Y-75611780D01*
X148723083Y-75616220D01*
X148717150Y-75616500D01*
X137425259Y-75616500D01*
X137357138Y-75596498D01*
X137310645Y-75542842D01*
X137300541Y-75472568D01*
X137324191Y-75415258D01*
X137517403Y-75155728D01*
X137517413Y-75155712D01*
X137692601Y-74852278D01*
X137692604Y-74852273D01*
X137831382Y-74530547D01*
X137831384Y-74530541D01*
X137931879Y-74194868D01*
X137992725Y-73849794D01*
X137992725Y-73849788D01*
X138013097Y-73500000D01*
X180501902Y-73500000D01*
X180522274Y-73849788D01*
X180522274Y-73849794D01*
X180583120Y-74194868D01*
X180683615Y-74530541D01*
X180683617Y-74530547D01*
X180822395Y-74852273D01*
X180822398Y-74852278D01*
X180997586Y-75155712D01*
X180997604Y-75155739D01*
X181206827Y-75436775D01*
X181206831Y-75436779D01*
X181212742Y-75443045D01*
X182366455Y-74289331D01*
X182428768Y-74255306D01*
X182499583Y-74260370D01*
X182554062Y-74299866D01*
X182607856Y-74367321D01*
X182719324Y-74464708D01*
X182757464Y-74524590D01*
X182757174Y-74595586D01*
X182725519Y-74648690D01*
X181575215Y-75798994D01*
X181715701Y-75916874D01*
X182008449Y-76109417D01*
X182321577Y-76266676D01*
X182321582Y-76266678D01*
X182650825Y-76386513D01*
X182650830Y-76386514D01*
X182991779Y-76467321D01*
X182991785Y-76467322D01*
X183339801Y-76508000D01*
X183690199Y-76508000D01*
X184038214Y-76467322D01*
X184038220Y-76467321D01*
X184379169Y-76386514D01*
X184379174Y-76386513D01*
X184708417Y-76266678D01*
X184708422Y-76266676D01*
X185021550Y-76109417D01*
X185314303Y-75916871D01*
X185454782Y-75798994D01*
X185454783Y-75798993D01*
X184306165Y-74650376D01*
X184272140Y-74588064D01*
X184277204Y-74517249D01*
X184319751Y-74460413D01*
X184321063Y-74459445D01*
X184340747Y-74445144D01*
X184485631Y-74293606D01*
X184547162Y-74258193D01*
X184618074Y-74261667D01*
X184665797Y-74291586D01*
X185817255Y-75443045D01*
X185817258Y-75443045D01*
X185823159Y-75436790D01*
X185823163Y-75436785D01*
X186032403Y-75155728D01*
X186032413Y-75155712D01*
X186207601Y-74852278D01*
X186207604Y-74852273D01*
X186346382Y-74530547D01*
X186346384Y-74530541D01*
X186446879Y-74194868D01*
X186507725Y-73849794D01*
X186507725Y-73849788D01*
X186528097Y-73500000D01*
X186507725Y-73150211D01*
X186507725Y-73150205D01*
X186446879Y-72805131D01*
X186346384Y-72469458D01*
X186346382Y-72469452D01*
X186207604Y-72147726D01*
X186207601Y-72147721D01*
X186032413Y-71844287D01*
X186032395Y-71844260D01*
X185823172Y-71563224D01*
X185823168Y-71563220D01*
X185817256Y-71556953D01*
X185817255Y-71556953D01*
X184663542Y-72710667D01*
X184601230Y-72744693D01*
X184530415Y-72739628D01*
X184475936Y-72700132D01*
X184422143Y-72632678D01*
X184310674Y-72535290D01*
X184272534Y-72475408D01*
X184272824Y-72404412D01*
X184304479Y-72351308D01*
X185454782Y-71201005D01*
X185314293Y-71083122D01*
X185021550Y-70890582D01*
X184708422Y-70733323D01*
X184708417Y-70733321D01*
X184379174Y-70613486D01*
X184379169Y-70613485D01*
X184038220Y-70532678D01*
X184038214Y-70532677D01*
X183690199Y-70492000D01*
X183339801Y-70492000D01*
X182991785Y-70532677D01*
X182991779Y-70532678D01*
X182650830Y-70613485D01*
X182650825Y-70613486D01*
X182321582Y-70733321D01*
X182321577Y-70733323D01*
X182008449Y-70890582D01*
X181715700Y-71083126D01*
X181575215Y-71201005D01*
X182723833Y-72349623D01*
X182757859Y-72411935D01*
X182752794Y-72482750D01*
X182710247Y-72539586D01*
X182708801Y-72540652D01*
X182689257Y-72554851D01*
X182689251Y-72554857D01*
X182544369Y-72706392D01*
X182482836Y-72741807D01*
X182411924Y-72738332D01*
X182364202Y-72708413D01*
X181212743Y-71556953D01*
X181212742Y-71556953D01*
X181206835Y-71563215D01*
X181206830Y-71563221D01*
X180997596Y-71844271D01*
X180997586Y-71844287D01*
X180822398Y-72147721D01*
X180822395Y-72147726D01*
X180683617Y-72469452D01*
X180683615Y-72469458D01*
X180583120Y-72805131D01*
X180522274Y-73150205D01*
X180522274Y-73150211D01*
X180501902Y-73500000D01*
X138013097Y-73500000D01*
X138013097Y-73499999D01*
X137992725Y-73150211D01*
X137992725Y-73150205D01*
X137931879Y-72805131D01*
X137831384Y-72469458D01*
X137831382Y-72469452D01*
X137692604Y-72147726D01*
X137692601Y-72147721D01*
X137517413Y-71844287D01*
X137517395Y-71844260D01*
X137308172Y-71563224D01*
X137308168Y-71563220D01*
X137302256Y-71556953D01*
X137302255Y-71556953D01*
X136148542Y-72710667D01*
X136086230Y-72744693D01*
X136015415Y-72739628D01*
X135960936Y-72700132D01*
X135907143Y-72632678D01*
X135795674Y-72535290D01*
X135757534Y-72475408D01*
X135757824Y-72404412D01*
X135789479Y-72351308D01*
X136939782Y-71201005D01*
X136799293Y-71083122D01*
X136506550Y-70890582D01*
X136193422Y-70733323D01*
X136193417Y-70733321D01*
X135864174Y-70613486D01*
X135864169Y-70613485D01*
X135523220Y-70532678D01*
X135523214Y-70532677D01*
X135175199Y-70492000D01*
X134824801Y-70492000D01*
X134476785Y-70532677D01*
X134476779Y-70532678D01*
X134135830Y-70613485D01*
X134135825Y-70613486D01*
X133806582Y-70733321D01*
X133806577Y-70733323D01*
X133493449Y-70890582D01*
X133200700Y-71083126D01*
X133060215Y-71201005D01*
X134208833Y-72349623D01*
X134242859Y-72411935D01*
X134237794Y-72482750D01*
X134195247Y-72539586D01*
X134193801Y-72540652D01*
X134174257Y-72554851D01*
X134174251Y-72554857D01*
X134029369Y-72706392D01*
X133967836Y-72741807D01*
X133896924Y-72738332D01*
X133849202Y-72708413D01*
X132697743Y-71556953D01*
X132697742Y-71556953D01*
X132691835Y-71563215D01*
X132691830Y-71563221D01*
X132482596Y-71844271D01*
X132482586Y-71844287D01*
X132307398Y-72147721D01*
X132307395Y-72147726D01*
X132168617Y-72469452D01*
X132168615Y-72469458D01*
X132068120Y-72805131D01*
X132007274Y-73150205D01*
X132007274Y-73150211D01*
X131986902Y-73499999D01*
X132007274Y-73849788D01*
X132007274Y-73849794D01*
X132068120Y-74194868D01*
X132168615Y-74530541D01*
X132168617Y-74530547D01*
X132307395Y-74852273D01*
X132307398Y-74852278D01*
X132482586Y-75155712D01*
X132482604Y-75155739D01*
X132691827Y-75436775D01*
X132691831Y-75436779D01*
X132697742Y-75443045D01*
X133851455Y-74289331D01*
X133913768Y-74255306D01*
X133984583Y-74260370D01*
X134039062Y-74299866D01*
X134092856Y-74367321D01*
X134204324Y-74464708D01*
X134242464Y-74524590D01*
X134242174Y-74595586D01*
X134210519Y-74648690D01*
X133060215Y-75798994D01*
X133200701Y-75916874D01*
X133493449Y-76109417D01*
X133806577Y-76266676D01*
X133806582Y-76266678D01*
X134096223Y-76372099D01*
X134153395Y-76414193D01*
X134178733Y-76480514D01*
X134164192Y-76550006D01*
X134114390Y-76600605D01*
X134053129Y-76616500D01*
X132083854Y-76616500D01*
X132068012Y-76614750D01*
X132067985Y-76615044D01*
X132060092Y-76614297D01*
X131990029Y-76616500D01*
X131960144Y-76616500D01*
X131960140Y-76616500D01*
X131960129Y-76616501D01*
X131953190Y-76617377D01*
X131947277Y-76617843D01*
X131900114Y-76619325D01*
X131900107Y-76619327D01*
X131880649Y-76624979D01*
X131861304Y-76628985D01*
X131841206Y-76631525D01*
X131841197Y-76631527D01*
X131797331Y-76648894D01*
X131791716Y-76650817D01*
X131746408Y-76663981D01*
X131728964Y-76674297D01*
X131711218Y-76682990D01*
X131692382Y-76690448D01*
X131654209Y-76718181D01*
X131649248Y-76721440D01*
X131608638Y-76745458D01*
X131594311Y-76759784D01*
X131579285Y-76772617D01*
X131562895Y-76784525D01*
X131562893Y-76784527D01*
X131532808Y-76820892D01*
X131528812Y-76825283D01*
X130802340Y-77551754D01*
X130789903Y-77561719D01*
X130790091Y-77561946D01*
X130783982Y-77566999D01*
X130736015Y-77618079D01*
X130714866Y-77639227D01*
X130710560Y-77644777D01*
X130706714Y-77649279D01*
X130674417Y-77683674D01*
X130674411Y-77683683D01*
X130664651Y-77701435D01*
X130653803Y-77717950D01*
X130641386Y-77733958D01*
X130622645Y-77777264D01*
X130620034Y-77782594D01*
X130597305Y-77823939D01*
X130597303Y-77823944D01*
X130592267Y-77843559D01*
X130585864Y-77862262D01*
X130577819Y-77880852D01*
X130570437Y-77927456D01*
X130569233Y-77933268D01*
X130557500Y-77978968D01*
X130557500Y-77999223D01*
X130555949Y-78018933D01*
X130552780Y-78038942D01*
X130552780Y-78038943D01*
X130557220Y-78085917D01*
X130557500Y-78091850D01*
X130557500Y-79180474D01*
X130537498Y-79248595D01*
X130525137Y-79264784D01*
X130451957Y-79346059D01*
X130356476Y-79511438D01*
X130356473Y-79511444D01*
X130346703Y-79541514D01*
X130297457Y-79693072D01*
X130277496Y-79882999D01*
X130297457Y-80072927D01*
X130324250Y-80155384D01*
X130356473Y-80254556D01*
X130356476Y-80254561D01*
X130451958Y-80419941D01*
X130451965Y-80419951D01*
X130579744Y-80561864D01*
X130615881Y-80588119D01*
X130734248Y-80674118D01*
X130908712Y-80751794D01*
X131095513Y-80791500D01*
X131286487Y-80791500D01*
X131473288Y-80751794D01*
X131647752Y-80674118D01*
X131802253Y-80561866D01*
X131802255Y-80561864D01*
X131930034Y-80419951D01*
X131930035Y-80419949D01*
X131930040Y-80419944D01*
X132025527Y-80254556D01*
X132084542Y-80072928D01*
X132104504Y-79883000D01*
X132084542Y-79693072D01*
X132025527Y-79511444D01*
X131943475Y-79369326D01*
X131930042Y-79346059D01*
X131930041Y-79346058D01*
X131930040Y-79346056D01*
X131856863Y-79264784D01*
X131826146Y-79200776D01*
X131824500Y-79180474D01*
X131824500Y-78373595D01*
X131844502Y-78305474D01*
X131861405Y-78284499D01*
X132225501Y-77920404D01*
X132287813Y-77886379D01*
X132314596Y-77883500D01*
X135916147Y-77883500D01*
X135931988Y-77885249D01*
X135932016Y-77884956D01*
X135939902Y-77885700D01*
X135939909Y-77885702D01*
X136009958Y-77883500D01*
X136039856Y-77883500D01*
X136046818Y-77882619D01*
X136052719Y-77882154D01*
X136099889Y-77880673D01*
X136119347Y-77875019D01*
X136138694Y-77871013D01*
X136158797Y-77868474D01*
X136202679Y-77851099D01*
X136208274Y-77849183D01*
X136236816Y-77840891D01*
X136253591Y-77836019D01*
X136253595Y-77836017D01*
X136271026Y-77825708D01*
X136288780Y-77817009D01*
X136307617Y-77809552D01*
X136345786Y-77781818D01*
X136350744Y-77778562D01*
X136391362Y-77754542D01*
X136405685Y-77740218D01*
X136420724Y-77727374D01*
X136423305Y-77725499D01*
X136437107Y-77715472D01*
X136467193Y-77679103D01*
X136471172Y-77674730D01*
X136696407Y-77449495D01*
X136758717Y-77415472D01*
X136829533Y-77420537D01*
X136886368Y-77463084D01*
X136911179Y-77529605D01*
X136911500Y-77538593D01*
X136911500Y-78956649D01*
X136918009Y-79017196D01*
X136918011Y-79017204D01*
X136969110Y-79154202D01*
X136969112Y-79154207D01*
X137056738Y-79271261D01*
X137173791Y-79358886D01*
X137173792Y-79358886D01*
X137173796Y-79358889D01*
X137288810Y-79401787D01*
X137345642Y-79444332D01*
X137370453Y-79510852D01*
X137355362Y-79580226D01*
X137337475Y-79605179D01*
X137194280Y-79760729D01*
X137194275Y-79760734D01*
X137071141Y-79949206D01*
X136980703Y-80155386D01*
X136980702Y-80155387D01*
X136925437Y-80373624D01*
X136925436Y-80373630D01*
X136925436Y-80373632D01*
X136906844Y-80598000D01*
X136925393Y-80821855D01*
X136925437Y-80822375D01*
X136980702Y-81040612D01*
X136980703Y-81040613D01*
X137071141Y-81246793D01*
X137194275Y-81435265D01*
X137194279Y-81435270D01*
X137346762Y-81600908D01*
X137401331Y-81643381D01*
X137524424Y-81739189D01*
X137557680Y-81757186D01*
X137608070Y-81807196D01*
X137623423Y-81876513D01*
X137598864Y-81943126D01*
X137557683Y-81978811D01*
X137524430Y-81996807D01*
X137524424Y-81996811D01*
X137346762Y-82135091D01*
X137194279Y-82300729D01*
X137194275Y-82300734D01*
X137071141Y-82489206D01*
X136980703Y-82695386D01*
X136980702Y-82695387D01*
X136925437Y-82913624D01*
X136925436Y-82913630D01*
X136925436Y-82913632D01*
X136906844Y-83138000D01*
X136925321Y-83360982D01*
X136925437Y-83362375D01*
X136980702Y-83580612D01*
X136980703Y-83580613D01*
X137071141Y-83786793D01*
X137194275Y-83975265D01*
X137194279Y-83975270D01*
X137346762Y-84140908D01*
X137401331Y-84183381D01*
X137524424Y-84279189D01*
X137550322Y-84293204D01*
X137557680Y-84297186D01*
X137608071Y-84347200D01*
X137623423Y-84416516D01*
X137598862Y-84483129D01*
X137557680Y-84518813D01*
X137524426Y-84536810D01*
X137524424Y-84536811D01*
X137346762Y-84675091D01*
X137194279Y-84840729D01*
X137194275Y-84840734D01*
X137071141Y-85029206D01*
X136980703Y-85235386D01*
X136980702Y-85235387D01*
X136925437Y-85453624D01*
X136925436Y-85453630D01*
X136925436Y-85453632D01*
X136906844Y-85678000D01*
X136923431Y-85878175D01*
X136925437Y-85902375D01*
X136980702Y-86120612D01*
X136980703Y-86120613D01*
X137071141Y-86326793D01*
X137194275Y-86515265D01*
X137194279Y-86515270D01*
X137346762Y-86680908D01*
X137389135Y-86713888D01*
X137524424Y-86819189D01*
X137558205Y-86837470D01*
X137608596Y-86887482D01*
X137623949Y-86956799D01*
X137599389Y-87023412D01*
X137558209Y-87059096D01*
X137524704Y-87077228D01*
X137524698Y-87077232D01*
X137347097Y-87215465D01*
X137194674Y-87381042D01*
X137108519Y-87512912D01*
X137054515Y-87559000D01*
X136984167Y-87568575D01*
X136919810Y-87538597D01*
X136883203Y-87482933D01*
X136851527Y-87385444D01*
X136756040Y-87220056D01*
X136756038Y-87220054D01*
X136756034Y-87220048D01*
X136628255Y-87078135D01*
X136473752Y-86965882D01*
X136299288Y-86888206D01*
X136112487Y-86848500D01*
X135921513Y-86848500D01*
X135734711Y-86888206D01*
X135560247Y-86965882D01*
X135456061Y-87041578D01*
X135389193Y-87065437D01*
X135320041Y-87049356D01*
X135307939Y-87041578D01*
X135203752Y-86965882D01*
X135029288Y-86888206D01*
X134842487Y-86848500D01*
X134651513Y-86848500D01*
X134464711Y-86888206D01*
X134290247Y-86965882D01*
X134135744Y-87078135D01*
X134007965Y-87220048D01*
X134007958Y-87220058D01*
X133912476Y-87385438D01*
X133912473Y-87385445D01*
X133853457Y-87567072D01*
X133833496Y-87757000D01*
X133853457Y-87946927D01*
X133880547Y-88030300D01*
X133912473Y-88128556D01*
X134007960Y-88293944D01*
X134081137Y-88375215D01*
X134111853Y-88439220D01*
X134113500Y-88459524D01*
X134113500Y-89197146D01*
X134111751Y-89212988D01*
X134112044Y-89213016D01*
X134111298Y-89220907D01*
X134111298Y-89220909D01*
X134113500Y-89290957D01*
X134113500Y-89320851D01*
X134113501Y-89320872D01*
X134114378Y-89327820D01*
X134114844Y-89333732D01*
X134116326Y-89380888D01*
X134116327Y-89380893D01*
X134121977Y-89400339D01*
X134125986Y-89419697D01*
X134128525Y-89439793D01*
X134128526Y-89439799D01*
X134145893Y-89483662D01*
X134147816Y-89489279D01*
X134160982Y-89534593D01*
X134171294Y-89552031D01*
X134179988Y-89569779D01*
X134187444Y-89588609D01*
X134187451Y-89588623D01*
X134188773Y-89590442D01*
X134189367Y-89592107D01*
X134191267Y-89595563D01*
X134190709Y-89595869D01*
X134212630Y-89657310D01*
X134196547Y-89726461D01*
X134145632Y-89775940D01*
X134086835Y-89790500D01*
X127822595Y-89790500D01*
X127754474Y-89770498D01*
X127733500Y-89753595D01*
X127670405Y-89690500D01*
X127636379Y-89628188D01*
X127633500Y-89601405D01*
X127633500Y-86951854D01*
X127635249Y-86936012D01*
X127634956Y-86935985D01*
X127635700Y-86928099D01*
X127635702Y-86928092D01*
X127633500Y-86858028D01*
X127633500Y-86828144D01*
X127632620Y-86821182D01*
X127632156Y-86815293D01*
X127630674Y-86768111D01*
X127625020Y-86748652D01*
X127621012Y-86729297D01*
X127618474Y-86709203D01*
X127601103Y-86665329D01*
X127599189Y-86659740D01*
X127586019Y-86614407D01*
X127575703Y-86596964D01*
X127567005Y-86579209D01*
X127559552Y-86560383D01*
X127531818Y-86522210D01*
X127528558Y-86517247D01*
X127527386Y-86515265D01*
X127504542Y-86476638D01*
X127490214Y-86462310D01*
X127477384Y-86447289D01*
X127465472Y-86430893D01*
X127465469Y-86430891D01*
X127465469Y-86430890D01*
X127429113Y-86400813D01*
X127424721Y-86396817D01*
X126872241Y-85844336D01*
X126862280Y-85831901D01*
X126862053Y-85832090D01*
X126857000Y-85825982D01*
X126805920Y-85778015D01*
X126784777Y-85756871D01*
X126784772Y-85756866D01*
X126779225Y-85752563D01*
X126774717Y-85748712D01*
X126740325Y-85716417D01*
X126740319Y-85716413D01*
X126722563Y-85706651D01*
X126706047Y-85695802D01*
X126690041Y-85683386D01*
X126656547Y-85668892D01*
X126646740Y-85664648D01*
X126641408Y-85662036D01*
X126600061Y-85639305D01*
X126580436Y-85634266D01*
X126561736Y-85627864D01*
X126543145Y-85619819D01*
X126543143Y-85619818D01*
X126543142Y-85619818D01*
X126496542Y-85612437D01*
X126490729Y-85611233D01*
X126445030Y-85599500D01*
X126438199Y-85599500D01*
X126370078Y-85579498D01*
X126344566Y-85557813D01*
X126341253Y-85554134D01*
X126341252Y-85554133D01*
X126341250Y-85554131D01*
X126186752Y-85441882D01*
X126012288Y-85364206D01*
X125825487Y-85324500D01*
X125634513Y-85324500D01*
X125447711Y-85364206D01*
X125273247Y-85441882D01*
X125118744Y-85554135D01*
X124990965Y-85696048D01*
X124990958Y-85696058D01*
X124905350Y-85844336D01*
X124895473Y-85861444D01*
X124890039Y-85878168D01*
X124879332Y-85911121D01*
X124839258Y-85969726D01*
X124773861Y-85997363D01*
X124703904Y-85985256D01*
X124651599Y-85937249D01*
X124633499Y-85872184D01*
X124633499Y-81314595D01*
X124653501Y-81246474D01*
X124670404Y-81225500D01*
X125213844Y-80682060D01*
X125276156Y-80648034D01*
X125346971Y-80653099D01*
X125383303Y-80675124D01*
X125383405Y-80674985D01*
X125385071Y-80676196D01*
X125387241Y-80677511D01*
X125388743Y-80678863D01*
X125388746Y-80678865D01*
X125388747Y-80678866D01*
X125543248Y-80791118D01*
X125717712Y-80868794D01*
X125904513Y-80908500D01*
X126095487Y-80908500D01*
X126282288Y-80868794D01*
X126456752Y-80791118D01*
X126611253Y-80678866D01*
X126613657Y-80676196D01*
X126739034Y-80536951D01*
X126739035Y-80536949D01*
X126739040Y-80536944D01*
X126834527Y-80371556D01*
X126893542Y-80189928D01*
X126913504Y-80000000D01*
X126893542Y-79810072D01*
X126834527Y-79628444D01*
X126739040Y-79463056D01*
X126739038Y-79463054D01*
X126739034Y-79463048D01*
X126611255Y-79321135D01*
X126456752Y-79208882D01*
X126282288Y-79131206D01*
X126095487Y-79091500D01*
X125904513Y-79091500D01*
X125717711Y-79131206D01*
X125543247Y-79208882D01*
X125388747Y-79321133D01*
X125385437Y-79324810D01*
X125324991Y-79362050D01*
X125291800Y-79366500D01*
X125083854Y-79366500D01*
X125068012Y-79364750D01*
X125067985Y-79365044D01*
X125060092Y-79364297D01*
X124990029Y-79366500D01*
X124960144Y-79366500D01*
X124960140Y-79366500D01*
X124960129Y-79366501D01*
X124953190Y-79367377D01*
X124947277Y-79367843D01*
X124900111Y-79369325D01*
X124880650Y-79374979D01*
X124861304Y-79378985D01*
X124841204Y-79381525D01*
X124841203Y-79381525D01*
X124797335Y-79398893D01*
X124791720Y-79400815D01*
X124746413Y-79413978D01*
X124746404Y-79413982D01*
X124728962Y-79424297D01*
X124711215Y-79432991D01*
X124692383Y-79440447D01*
X124692381Y-79440448D01*
X124654214Y-79468178D01*
X124649254Y-79471436D01*
X124608636Y-79495459D01*
X124608633Y-79495461D01*
X124594312Y-79509783D01*
X124579283Y-79522619D01*
X124562893Y-79534527D01*
X124532808Y-79570892D01*
X124528812Y-79575283D01*
X123611340Y-80492754D01*
X123598903Y-80502719D01*
X123599091Y-80502946D01*
X123592982Y-80507999D01*
X123545015Y-80559079D01*
X123523866Y-80580227D01*
X123519560Y-80585777D01*
X123515714Y-80590279D01*
X123483417Y-80624674D01*
X123483411Y-80624683D01*
X123473651Y-80642435D01*
X123462803Y-80658950D01*
X123450386Y-80674958D01*
X123431645Y-80718264D01*
X123429034Y-80723594D01*
X123406305Y-80764939D01*
X123406303Y-80764944D01*
X123401267Y-80784559D01*
X123394864Y-80803262D01*
X123386819Y-80821852D01*
X123379437Y-80868456D01*
X123378233Y-80874268D01*
X123366500Y-80919968D01*
X123366500Y-80940223D01*
X123364949Y-80959933D01*
X123361780Y-80979942D01*
X123361780Y-80979943D01*
X119574661Y-80979943D01*
X119614564Y-80822368D01*
X119633156Y-80598000D01*
X119614564Y-80373632D01*
X119568044Y-80189928D01*
X119559297Y-80155387D01*
X119559296Y-80155386D01*
X119559296Y-80155384D01*
X119468860Y-79949209D01*
X119425603Y-79882999D01*
X119345724Y-79760734D01*
X119345719Y-79760729D01*
X119202524Y-79605179D01*
X119171103Y-79541514D01*
X119179090Y-79470968D01*
X119223948Y-79415939D01*
X119251183Y-79401789D01*
X119366204Y-79358889D01*
X119398532Y-79334689D01*
X119483261Y-79271261D01*
X119570887Y-79154207D01*
X119570887Y-79154206D01*
X119570889Y-79154204D01*
X119621989Y-79017201D01*
X119624591Y-78993004D01*
X119628499Y-78956649D01*
X119628500Y-78956632D01*
X119628500Y-77159367D01*
X119628499Y-77159350D01*
X119621990Y-77098803D01*
X119621988Y-77098795D01*
X119582184Y-76992079D01*
X119570889Y-76961796D01*
X119570888Y-76961794D01*
X119570887Y-76961792D01*
X119483261Y-76844738D01*
X119366207Y-76757112D01*
X119366202Y-76757110D01*
X119229204Y-76706011D01*
X119229196Y-76706009D01*
X119168649Y-76699500D01*
X119168638Y-76699500D01*
X117371362Y-76699500D01*
X117371350Y-76699500D01*
X117310803Y-76706009D01*
X117310795Y-76706011D01*
X117173797Y-76757110D01*
X117173792Y-76757112D01*
X117056738Y-76844738D01*
X116969112Y-76961792D01*
X116969110Y-76961797D01*
X116918011Y-77098795D01*
X116918009Y-77098803D01*
X116911500Y-77159350D01*
X116911500Y-78956649D01*
X116918009Y-79017196D01*
X116918011Y-79017204D01*
X116969110Y-79154202D01*
X116969112Y-79154207D01*
X117056738Y-79271261D01*
X117173791Y-79358886D01*
X117173792Y-79358886D01*
X117173796Y-79358889D01*
X117288810Y-79401787D01*
X117345642Y-79444332D01*
X117370453Y-79510852D01*
X117355362Y-79580226D01*
X117337475Y-79605179D01*
X117194280Y-79760729D01*
X117194275Y-79760734D01*
X117071141Y-79949206D01*
X116980703Y-80155386D01*
X116980702Y-80155387D01*
X116925437Y-80373624D01*
X116925436Y-80373630D01*
X116925436Y-80373632D01*
X116906844Y-80598000D01*
X116925393Y-80821855D01*
X116925437Y-80822375D01*
X116980702Y-81040612D01*
X116980703Y-81040613D01*
X117071141Y-81246793D01*
X117194275Y-81435265D01*
X117194279Y-81435270D01*
X117346762Y-81600908D01*
X117401331Y-81643381D01*
X117524424Y-81739189D01*
X117557676Y-81757184D01*
X117557680Y-81757186D01*
X117608071Y-81807200D01*
X117623423Y-81876516D01*
X117598862Y-81943129D01*
X117557680Y-81978813D01*
X117524426Y-81996810D01*
X117524424Y-81996811D01*
X117346762Y-82135091D01*
X117194279Y-82300729D01*
X117194275Y-82300734D01*
X117071141Y-82489206D01*
X116980703Y-82695386D01*
X116980702Y-82695387D01*
X116925437Y-82913624D01*
X116925436Y-82913630D01*
X116925436Y-82913632D01*
X116906844Y-83138000D01*
X116925321Y-83360982D01*
X116925437Y-83362375D01*
X116980702Y-83580612D01*
X116980703Y-83580613D01*
X117071141Y-83786793D01*
X117194275Y-83975265D01*
X117194279Y-83975270D01*
X117346762Y-84140908D01*
X117401331Y-84183381D01*
X117524424Y-84279189D01*
X117550322Y-84293204D01*
X117557680Y-84297186D01*
X117608071Y-84347200D01*
X117623423Y-84416516D01*
X117598862Y-84483129D01*
X117557680Y-84518813D01*
X117524426Y-84536810D01*
X117524424Y-84536811D01*
X117346762Y-84675091D01*
X117194279Y-84840729D01*
X117194275Y-84840734D01*
X117071141Y-85029206D01*
X116980703Y-85235386D01*
X116980702Y-85235387D01*
X116925437Y-85453624D01*
X116925436Y-85453630D01*
X116925436Y-85453632D01*
X116906844Y-85678000D01*
X114000500Y-85678000D01*
X114000500Y-72251900D01*
X114000615Y-72248096D01*
X114006484Y-72151064D01*
X114018019Y-71975072D01*
X114018910Y-71967888D01*
X114041893Y-71842474D01*
X114070883Y-71696732D01*
X114072513Y-71690326D01*
X114112161Y-71563091D01*
X114158266Y-71427271D01*
X114160455Y-71421711D01*
X114216185Y-71297884D01*
X114278803Y-71170907D01*
X114281356Y-71166245D01*
X114351614Y-71050023D01*
X114353074Y-71047728D01*
X114430607Y-70931692D01*
X114433330Y-70927933D01*
X114517400Y-70820625D01*
X114519546Y-70818037D01*
X114611264Y-70713453D01*
X114614020Y-70710510D01*
X114710510Y-70614020D01*
X114713453Y-70611264D01*
X114818037Y-70519546D01*
X114820625Y-70517400D01*
X114927933Y-70433330D01*
X114931692Y-70430607D01*
X115047728Y-70353074D01*
X115050023Y-70351614D01*
X115166245Y-70281356D01*
X115170907Y-70278803D01*
X115297883Y-70216185D01*
X115421711Y-70160455D01*
X115427271Y-70158266D01*
X115563091Y-70112161D01*
X115690326Y-70072513D01*
X115696732Y-70070883D01*
X115842474Y-70041893D01*
X115967888Y-70018910D01*
X115975072Y-70018019D01*
X116150921Y-70006492D01*
X116248100Y-70000614D01*
X116251902Y-70000500D01*
X186998098Y-70000500D01*
X187001899Y-70000614D01*
G37*
%TD.AperFunction*%
%TD*%
M02*
