M48
; DRILL file {KiCad 7.0.7-7.0.7~ubuntu22.04.1} date Fri 12 Jan 2024 04:25:40 PM +0530
; FORMAT={-:-/ absolute / inch / decimal}
; #@! TF.CreationDate,2024-01-12T16:25:40+05:30
; #@! TF.GenerationSoftware,Kicad,Pcbnew,7.0.7-7.0.7~ubuntu22.04.1
; #@! TF.FileFunction,Plated,1,2,PTH
FMAT,2
INCH
; #@! TA.AperFunction,Plated,PTH,ViaDrill
T1C0.0157
; #@! TA.AperFunction,Plated,PTH,ComponentDrill
T2C0.0236
; #@! TA.AperFunction,Plated,PTH,ComponentDrill
T3C0.0394
; #@! TA.AperFunction,Plated,PTH,ComponentDrill
T4C0.0512
; #@! TA.AperFunction,Plated,PTH,ComponentDrill
T5C0.0984
%
G90
G05
T1
X4.5276Y-3.1299
X4.5276Y-3.2283
X4.5276Y-3.3268
X4.5276Y-3.4252
X4.6554Y-3.6911
X4.6554Y-3.9371
X4.872Y-2.8248
X4.872Y-2.8937
X4.9409Y-3.0118
X4.95Y-3.395
X4.95Y-3.445
X4.9606Y-3.1496
X4.9606Y-3.2283
X4.9606Y-3.2972
X5.0Y-3.9173
X5.0295Y-3.1496
X5.0295Y-3.2283
X5.0295Y-3.2972
X5.0295Y-3.3661
X5.0984Y-3.1496
X5.0984Y-3.2283
X5.0984Y-3.2972
X5.0984Y-3.4547
X5.0984Y-3.5138
X5.1575Y-3.2283
X5.1575Y-3.2972
X5.1575Y-3.3661
X5.1575Y-3.4547
X5.1575Y-3.5138
X5.165Y-3.145
X5.2461Y-3.9173
X5.305Y-3.455
X5.355Y-3.455
X5.374Y-3.9764
X5.5217Y-3.1299
X5.5217Y-3.2283
X5.5217Y-3.3268
X5.5217Y-3.4252
X5.5315Y-3.5236
X5.5512Y-2.8248
X5.5512Y-2.8937
X5.6299Y-3.5827
X5.8169Y-2.8248
X5.8169Y-2.8937
X5.846Y-3.5542
X5.8465Y-3.8386
X5.9Y-3.145
X5.9Y-3.3
X5.9Y-3.345
X5.9Y-3.395
X5.9Y-3.445
X5.9055Y-3.2283
X5.9055Y-3.8386
X5.9252Y-3.0118
X5.9744Y-3.1496
X5.9744Y-3.2283
X6.0Y-3.445
X6.0335Y-3.0709
X6.0335Y-3.1496
X6.0433Y-3.2283
X6.055Y-3.395
X6.105Y-3.145
X6.1122Y-3.2283
X6.1122Y-3.2972
X6.1811Y-2.8248
X6.1811Y-2.8937
X6.1811Y-4.0157
X6.4764Y-2.8248
X6.4764Y-2.8937
X6.4764Y-3.1299
X6.4764Y-3.2283
X6.4764Y-3.3268
X6.4764Y-3.4252
X6.4764Y-4.0157
X6.5256Y-3.7106
X6.7618Y-2.8248
X6.7618Y-2.8937
X6.85Y-3.145
X6.85Y-3.395
X6.85Y-3.445
X6.8504Y-3.2283
X6.8504Y-3.5138
X6.8504Y-3.5925
X6.9094Y-3.4547
X6.9291Y-3.0709
X6.9291Y-3.1496
X6.9291Y-3.2283
X6.9291Y-3.5138
X6.9291Y-3.5925
X7.0079Y-3.0709
X7.0079Y-3.1496
X7.0079Y-3.2283
X7.0079Y-3.5138
X7.0079Y-3.5925
X7.0079Y-3.7697
X7.0079Y-3.8583
X7.0079Y-3.9469
X7.0472Y-3.2972
X7.05Y-3.395
X7.05Y-3.445
X7.2343Y-3.5138
X7.2343Y-3.5925
X7.3425Y-3.6713
X7.3425Y-3.7697
X7.3425Y-3.8583
X7.3425Y-3.9469
X7.4114Y-3.1299
X7.4114Y-3.2283
X7.4114Y-3.3268
X7.4114Y-3.4252
T3
X4.6563Y-3.0731
X4.6563Y-3.1731
X4.6563Y-3.2731
X4.6563Y-3.3731
X4.6563Y-3.4731
X5.1694Y-3.63
X5.2694Y-3.63
X5.3694Y-3.63
X5.4437Y-3.0731
X5.4437Y-3.1731
X5.4437Y-3.2731
X5.4437Y-3.3731
X5.4437Y-3.4731
X5.6063Y-3.0731
X5.6063Y-3.1731
X5.6063Y-3.2731
X5.6063Y-3.3731
X5.6063Y-3.4731
X6.32Y-3.655
X6.3937Y-3.0731
X6.3937Y-3.1731
X6.3937Y-3.2731
X6.3937Y-3.3731
X6.3937Y-3.4731
X6.42Y-3.655
X6.5563Y-3.0722
X6.5563Y-3.1722
X6.5563Y-3.2722
X6.5563Y-3.3722
X6.5563Y-3.4722
X7.3437Y-3.0722
X7.3437Y-3.1722
X7.3437Y-3.2722
X7.3437Y-3.3722
X7.3437Y-3.4722
T4
X7.188Y-3.6976
X7.188Y-3.8976
T5
X5.315Y-2.8937
X5.665Y-3.8898
X6.805Y-3.8898
X7.225Y-2.8937
T2
G00X4.58Y-3.6399
M15
G01X4.5485Y-3.6399
M16
G05
G00X4.58Y-3.9801
M15
G01X4.5485Y-3.9801
M16
G05
G00X4.7513Y-3.6399
M15
G01X4.708Y-3.6399
M16
G05
G00X4.7513Y-3.9801
M15
G01X4.708Y-3.9801
M16
G05
T0
M30
