%TF.GenerationSoftware,KiCad,Pcbnew,7.0.7-7.0.7~ubuntu22.04.1*%
%TF.CreationDate,2024-01-12T16:25:32+05:30*%
%TF.ProjectId,24-ch-relay-driver-kicad,32342d63-682d-4726-956c-61792d647269,1.1.0*%
%TF.SameCoordinates,Original*%
%TF.FileFunction,Soldermask,Top*%
%TF.FilePolarity,Negative*%
%FSLAX46Y46*%
G04 Gerber Fmt 4.6, Leading zero omitted, Abs format (unit mm)*
G04 Created by KiCad (PCBNEW 7.0.7-7.0.7~ubuntu22.04.1) date 2024-01-12 16:25:32*
%MOMM*%
%LPD*%
G01*
G04 APERTURE LIST*
G04 Aperture macros list*
%AMRoundRect*
0 Rectangle with rounded corners*
0 $1 Rounding radius*
0 $2 $3 $4 $5 $6 $7 $8 $9 X,Y pos of 4 corners*
0 Add a 4 corners polygon primitive as box body*
4,1,4,$2,$3,$4,$5,$6,$7,$8,$9,$2,$3,0*
0 Add four circle primitives for the rounded corners*
1,1,$1+$1,$2,$3*
1,1,$1+$1,$4,$5*
1,1,$1+$1,$6,$7*
1,1,$1+$1,$8,$9*
0 Add four rect primitives between the rounded corners*
20,1,$1+$1,$2,$3,$4,$5,0*
20,1,$1+$1,$4,$5,$6,$7,0*
20,1,$1+$1,$6,$7,$8,$9,0*
20,1,$1+$1,$8,$9,$2,$3,0*%
%AMFreePoly0*
4,1,6,1.000000,0.000000,0.500000,-0.750000,-0.500000,-0.750000,-0.500000,0.750000,0.500000,0.750000,1.000000,0.000000,1.000000,0.000000,$1*%
%AMFreePoly1*
4,1,6,0.500000,-0.750000,-0.650000,-0.750000,-0.150000,0.000000,-0.650000,0.750000,0.500000,0.750000,0.500000,-0.750000,0.500000,-0.750000,$1*%
G04 Aperture macros list end*
%ADD10RoundRect,0.237500X0.237500X-0.300000X0.237500X0.300000X-0.237500X0.300000X-0.237500X-0.300000X0*%
%ADD11C,5.000000*%
%ADD12RoundRect,0.237500X-0.237500X0.250000X-0.237500X-0.250000X0.237500X-0.250000X0.237500X0.250000X0*%
%ADD13R,1.700000X1.700000*%
%ADD14O,1.700000X1.700000*%
%ADD15RoundRect,0.150000X-0.675000X-0.150000X0.675000X-0.150000X0.675000X0.150000X-0.675000X0.150000X0*%
%ADD16R,1.500000X0.600000*%
%ADD17RoundRect,0.237500X0.300000X0.237500X-0.300000X0.237500X-0.300000X-0.237500X0.300000X-0.237500X0*%
%ADD18R,0.600000X0.450000*%
%ADD19RoundRect,0.150000X-0.512500X-0.150000X0.512500X-0.150000X0.512500X0.150000X-0.512500X0.150000X0*%
%ADD20RoundRect,0.137500X0.137500X-0.662500X0.137500X0.662500X-0.137500X0.662500X-0.137500X-0.662500X0*%
%ADD21RoundRect,0.237500X0.250000X0.237500X-0.250000X0.237500X-0.250000X-0.237500X0.250000X-0.237500X0*%
%ADD22C,1.000000*%
%ADD23RoundRect,0.237500X-0.237500X0.300000X-0.237500X-0.300000X0.237500X-0.300000X0.237500X0.300000X0*%
%ADD24R,2.600000X2.600000*%
%ADD25C,2.600000*%
%ADD26RoundRect,0.237500X0.237500X-0.250000X0.237500X0.250000X-0.237500X0.250000X-0.237500X-0.250000X0*%
%ADD27FreePoly0,90.000000*%
%ADD28FreePoly1,90.000000*%
%ADD29RoundRect,0.237500X-0.250000X-0.237500X0.250000X-0.237500X0.250000X0.237500X-0.250000X0.237500X0*%
%ADD30C,0.650000*%
%ADD31R,1.240000X0.600000*%
%ADD32R,1.240000X0.300000*%
%ADD33O,2.100000X1.000000*%
%ADD34O,1.800000X1.000000*%
G04 APERTURE END LIST*
D10*
%TO.C,C204*%
X139319000Y-94869000D03*
X139319000Y-93144000D03*
%TD*%
%TO.C,C303*%
X169672000Y-77362500D03*
X169672000Y-75637500D03*
%TD*%
D11*
%TO.C,H103*%
X172847000Y-98800000D03*
%TD*%
D12*
%TO.C,R201*%
X123571000Y-93552000D03*
X123571000Y-95377000D03*
%TD*%
D13*
%TO.C,J302*%
X142400000Y-78058000D03*
D14*
X142400000Y-80598000D03*
X142400000Y-83138000D03*
X142400000Y-85678000D03*
X142400000Y-88218000D03*
%TD*%
D15*
%TO.C,U202*%
X131233000Y-95377000D03*
X131233000Y-96647000D03*
X131233000Y-97917000D03*
X131233000Y-99187000D03*
X136483000Y-99187000D03*
X136483000Y-97917000D03*
X136483000Y-96647000D03*
X136483000Y-95377000D03*
%TD*%
D13*
%TO.C,J303*%
X118270000Y-78058000D03*
D14*
X118270000Y-80598000D03*
X118270000Y-83138000D03*
X118270000Y-85678000D03*
X118270000Y-88218000D03*
%TD*%
D16*
%TO.C,U302*%
X147650000Y-77343000D03*
X147650000Y-78613000D03*
X147650000Y-79883000D03*
X147650000Y-81153000D03*
X147650000Y-82423000D03*
X147650000Y-83693000D03*
X147650000Y-84963000D03*
X147650000Y-86233000D03*
X147650000Y-87503000D03*
X147650000Y-88773000D03*
X157150000Y-88773000D03*
X157150000Y-87503000D03*
X157150000Y-86233000D03*
X157150000Y-84963000D03*
X157150000Y-83693000D03*
X157150000Y-82423000D03*
X157150000Y-81153000D03*
X157150000Y-79883000D03*
X157150000Y-78613000D03*
X157150000Y-77343000D03*
%TD*%
D17*
%TO.C,C201*%
X134720500Y-101092000D03*
X132995500Y-101092000D03*
%TD*%
D13*
%TO.C,J305*%
X162400000Y-78058000D03*
D14*
X162400000Y-80598000D03*
X162400000Y-83138000D03*
X162400000Y-85678000D03*
X162400000Y-88218000D03*
%TD*%
D13*
%TO.C,J306*%
X138270000Y-78058000D03*
D14*
X138270000Y-80598000D03*
X138270000Y-83138000D03*
X138270000Y-85678000D03*
X138270000Y-88218000D03*
%TD*%
D18*
%TO.C,D201*%
X128183000Y-93218000D03*
X126083000Y-93218000D03*
%TD*%
D19*
%TO.C,U201*%
X125862500Y-95697000D03*
X125862500Y-96647000D03*
X125862500Y-97597000D03*
X128137500Y-97597000D03*
X128137500Y-96647000D03*
X128137500Y-95697000D03*
%TD*%
D13*
%TO.C,J304*%
X186530000Y-78033800D03*
D14*
X186530000Y-80573800D03*
X186530000Y-83113800D03*
X186530000Y-85653800D03*
X186530000Y-88193800D03*
%TD*%
D11*
%TO.C,H102*%
X183515000Y-73500000D03*
%TD*%
%TO.C,H104*%
X135000000Y-73500000D03*
%TD*%
D20*
%TO.C,U203*%
X148590000Y-99006000D03*
X149860000Y-99006000D03*
X151130000Y-99006000D03*
X152400000Y-99006000D03*
X153670000Y-99006000D03*
X154940000Y-99006000D03*
X156210000Y-99006000D03*
X157480000Y-99006000D03*
X157480000Y-93706000D03*
X156210000Y-93706000D03*
X154940000Y-93706000D03*
X153670000Y-93706000D03*
X152400000Y-93706000D03*
X151130000Y-93706000D03*
X149860000Y-93706000D03*
X148590000Y-93706000D03*
%TD*%
D21*
%TO.C,R203*%
X125523000Y-90932000D03*
X123698000Y-90932000D03*
%TD*%
D22*
%TO.C,TP202*%
X171831000Y-90932000D03*
%TD*%
D23*
%TO.C,C202*%
X162179000Y-95544300D03*
X162179000Y-97269300D03*
%TD*%
D24*
%TO.C,J202*%
X182575001Y-99000000D03*
D25*
X182575001Y-93920000D03*
%TD*%
D26*
%TO.C,R202*%
X123571000Y-100353500D03*
X123571000Y-98528500D03*
%TD*%
D22*
%TO.C,TP201*%
X138938000Y-98806000D03*
%TD*%
D23*
%TO.C,C203*%
X164084000Y-95544300D03*
X164084000Y-97269300D03*
%TD*%
D27*
%TO.C,JP201*%
X159766000Y-97118000D03*
D28*
X159766000Y-95668000D03*
%TD*%
D13*
%TO.C,J301*%
X166530000Y-78033800D03*
D14*
X166530000Y-80573800D03*
X166530000Y-83113800D03*
X166530000Y-85653800D03*
X166530000Y-88193800D03*
%TD*%
D13*
%TO.C,JP202*%
X163068000Y-92837000D03*
D14*
X160528000Y-92837000D03*
%TD*%
D16*
%TO.C,U301*%
X123520000Y-77343000D03*
X123520000Y-78613000D03*
X123520000Y-79883000D03*
X123520000Y-81153000D03*
X123520000Y-82423000D03*
X123520000Y-83693000D03*
X123520000Y-84963000D03*
X123520000Y-86233000D03*
X123520000Y-87503000D03*
X123520000Y-88773000D03*
X133020000Y-88773000D03*
X133020000Y-87503000D03*
X133020000Y-86233000D03*
X133020000Y-84963000D03*
X133020000Y-83693000D03*
X133020000Y-82423000D03*
X133020000Y-81153000D03*
X133020000Y-79883000D03*
X133020000Y-78613000D03*
X133020000Y-77343000D03*
%TD*%
D29*
%TO.C,R204*%
X152884500Y-91276000D03*
X154709500Y-91276000D03*
%TD*%
D16*
%TO.C,U303*%
X171780000Y-77318800D03*
X171780000Y-78588800D03*
X171780000Y-79858800D03*
X171780000Y-81128800D03*
X171780000Y-82398800D03*
X171780000Y-83668800D03*
X171780000Y-84938800D03*
X171780000Y-86208800D03*
X171780000Y-87478800D03*
X171780000Y-88748800D03*
X181280000Y-88748800D03*
X181280000Y-87478800D03*
X181280000Y-86208800D03*
X181280000Y-84938800D03*
X181280000Y-83668800D03*
X181280000Y-82398800D03*
X181280000Y-81128800D03*
X181280000Y-79858800D03*
X181280000Y-78588800D03*
X181280000Y-77318800D03*
%TD*%
D10*
%TO.C,C301*%
X121412000Y-77362500D03*
X121412000Y-75637500D03*
%TD*%
D13*
%TO.C,JP203*%
X136383000Y-92202000D03*
D14*
X133843000Y-92202000D03*
X131303000Y-92202000D03*
%TD*%
D11*
%TO.C,H101*%
X143891000Y-98800000D03*
%TD*%
D10*
%TO.C,C302*%
X145500000Y-77362500D03*
X145500000Y-75637500D03*
%TD*%
D30*
%TO.C,J201*%
X119612000Y-93884000D03*
X119612000Y-99664000D03*
D31*
X120732000Y-93574000D03*
X120732000Y-94374000D03*
D32*
X120732000Y-95524000D03*
X120732000Y-96524000D03*
X120732000Y-97024000D03*
X120732000Y-98024000D03*
D31*
X120732000Y-99174000D03*
X120732000Y-99974000D03*
X120732000Y-99974000D03*
X120732000Y-99174000D03*
D32*
X120732000Y-98524000D03*
X120732000Y-97524000D03*
X120732000Y-96024000D03*
X120732000Y-95024000D03*
D31*
X120732000Y-94374000D03*
X120732000Y-93574000D03*
D33*
X120132000Y-92454000D03*
D34*
X115932000Y-92454000D03*
D33*
X120132000Y-101094000D03*
D34*
X115932000Y-101094000D03*
%TD*%
M02*
