%TF.GenerationSoftware,KiCad,Pcbnew,7.0.7-7.0.7~ubuntu22.04.1*%
%TF.CreationDate,2024-01-12T16:25:32+05:30*%
%TF.ProjectId,24-ch-relay-driver-kicad,32342d63-682d-4726-956c-61792d647269,1.1.0*%
%TF.SameCoordinates,Original*%
%TF.FileFunction,Soldermask,Bot*%
%TF.FilePolarity,Negative*%
%FSLAX46Y46*%
G04 Gerber Fmt 4.6, Leading zero omitted, Abs format (unit mm)*
G04 Created by KiCad (PCBNEW 7.0.7-7.0.7~ubuntu22.04.1) date 2024-01-12 16:25:32*
%MOMM*%
%LPD*%
G01*
G04 APERTURE LIST*
%ADD10C,5.000000*%
%ADD11R,1.700000X1.700000*%
%ADD12O,1.700000X1.700000*%
%ADD13R,2.600000X2.600000*%
%ADD14C,2.600000*%
%ADD15C,0.650000*%
%ADD16O,2.100000X1.000000*%
%ADD17O,1.800000X1.000000*%
G04 APERTURE END LIST*
D10*
%TO.C,H103*%
X172847000Y-98800000D03*
%TD*%
D11*
%TO.C,J302*%
X142400000Y-78058000D03*
D12*
X142400000Y-80598000D03*
X142400000Y-83138000D03*
X142400000Y-85678000D03*
X142400000Y-88218000D03*
%TD*%
D11*
%TO.C,J303*%
X118270000Y-78058000D03*
D12*
X118270000Y-80598000D03*
X118270000Y-83138000D03*
X118270000Y-85678000D03*
X118270000Y-88218000D03*
%TD*%
D11*
%TO.C,J305*%
X162400000Y-78058000D03*
D12*
X162400000Y-80598000D03*
X162400000Y-83138000D03*
X162400000Y-85678000D03*
X162400000Y-88218000D03*
%TD*%
D11*
%TO.C,J306*%
X138270000Y-78058000D03*
D12*
X138270000Y-80598000D03*
X138270000Y-83138000D03*
X138270000Y-85678000D03*
X138270000Y-88218000D03*
%TD*%
D11*
%TO.C,J304*%
X186530000Y-78033800D03*
D12*
X186530000Y-80573800D03*
X186530000Y-83113800D03*
X186530000Y-85653800D03*
X186530000Y-88193800D03*
%TD*%
D10*
%TO.C,H102*%
X183515000Y-73500000D03*
%TD*%
%TO.C,H104*%
X135000000Y-73500000D03*
%TD*%
D13*
%TO.C,J202*%
X182575001Y-99000000D03*
D14*
X182575001Y-93920000D03*
%TD*%
D11*
%TO.C,J301*%
X166530000Y-78033800D03*
D12*
X166530000Y-80573800D03*
X166530000Y-83113800D03*
X166530000Y-85653800D03*
X166530000Y-88193800D03*
%TD*%
D11*
%TO.C,JP202*%
X163068000Y-92837000D03*
D12*
X160528000Y-92837000D03*
%TD*%
D11*
%TO.C,JP203*%
X136383000Y-92202000D03*
D12*
X133843000Y-92202000D03*
X131303000Y-92202000D03*
%TD*%
D10*
%TO.C,H101*%
X143891000Y-98800000D03*
%TD*%
D15*
%TO.C,J201*%
X119612000Y-93884000D03*
X119612000Y-99664000D03*
D16*
X120132000Y-92454000D03*
D17*
X115932000Y-92454000D03*
D16*
X120132000Y-101094000D03*
D17*
X115932000Y-101094000D03*
%TD*%
M02*
