<?xml version="1.0" standalone="no"?>
 <!DOCTYPE svg PUBLIC "-//W3C//DTD SVG 1.1//EN" 
 "http://www.w3.org/Graphics/SVG/1.1/DTD/svg11.dtd"> 
<svg
  xmlns:svg="http://www.w3.org/2000/svg"
  xmlns="http://www.w3.org/2000/svg"
  xmlns:xlink="http://www.w3.org/1999/xlink"
  version="1.1"
  width="297.0022mm" height="210.0072mm" viewBox="0.0000 0.0000 297.0022 210.0072">
<title>SVG Image created as el0001-driver-interface.svg date 2024/05/05 13:08:57 </title>
  <desc>Image generated by Eeschema-SVG </desc>
<g style="fill:#000000; fill-opacity:1.0000;stroke:#000000; stroke-opacity:1.0000;
stroke-linecap:round; stroke-linejoin:round;"
 transform="translate(0 0) scale(1 1)">
</g>
<g style="fill:#000000; fill-opacity:0.0; 
stroke:#000000; stroke-width:0.1524; stroke-opacity:1; 
stroke-linecap:round; stroke-linejoin:round;">
<rect x="53.340000" y="34.925000" width="30.480000" height="37.465000" rx="0.000000" />
<text x="53.3400" y="34.2134"
textLength="8.1859" font-size="1.6933" lengthAdjust="spacingAndGlyphs"
text-anchor="start" opacity="0">sample1</text>
<g class="stroked-text"><desc>sample1</desc>
<path d="M53.6821 33.9895
L53.8030 34.0499
" />
<path d="M53.8030 34.0499
L54.0449 34.0499
" />
<path d="M54.0449 34.0499
L54.1659 33.9895
" />
<path d="M54.1659 33.9895
L54.2263 33.8685
" />
<path d="M54.2263 33.8685
L54.2263 33.8080
" />
<path d="M54.2263 33.8080
L54.1659 33.6871
" />
<path d="M54.1659 33.6871
L54.0449 33.6266
" />
<path d="M54.0449 33.6266
L53.8635 33.6266
" />
<path d="M53.8635 33.6266
L53.7425 33.5661
" />
<path d="M53.7425 33.5661
L53.6821 33.4452
" />
<path d="M53.6821 33.4452
L53.6821 33.3847
" />
<path d="M53.6821 33.3847
L53.7425 33.2637
" />
<path d="M53.7425 33.2637
L53.8635 33.2033
" />
<path d="M53.8635 33.2033
L54.0449 33.2033
" />
<path d="M54.0449 33.2033
L54.1659 33.2637
" />
<path d="M55.3149 34.0499
L55.3149 33.3847
" />
<path d="M55.3149 33.3847
L55.2544 33.2637
" />
<path d="M55.2544 33.2637
L55.1335 33.2033
" />
<path d="M55.1335 33.2033
L54.8916 33.2033
" />
<path d="M54.8916 33.2033
L54.7706 33.2637
" />
<path d="M55.3149 33.9895
L55.1940 34.0499
" />
<path d="M55.1940 34.0499
L54.8916 34.0499
" />
<path d="M54.8916 34.0499
L54.7706 33.9895
" />
<path d="M54.7706 33.9895
L54.7102 33.8685
" />
<path d="M54.7102 33.8685
L54.7102 33.7475
" />
<path d="M54.7102 33.7475
L54.7706 33.6266
" />
<path d="M54.7706 33.6266
L54.8916 33.5661
" />
<path d="M54.8916 33.5661
L55.1940 33.5661
" />
<path d="M55.1940 33.5661
L55.3149 33.5056
" />
<path d="M55.9196 34.0499
L55.9196 33.2033
" />
<path d="M55.9196 33.3242
L55.9801 33.2637
" />
<path d="M55.9801 33.2637
L56.1011 33.2033
" />
<path d="M56.1011 33.2033
L56.2825 33.2033
" />
<path d="M56.2825 33.2033
L56.4034 33.2637
" />
<path d="M56.4034 33.2637
L56.4639 33.3847
" />
<path d="M56.4639 33.3847
L56.4639 34.0499
" />
<path d="M56.4639 33.3847
L56.5244 33.2637
" />
<path d="M56.5244 33.2637
L56.6453 33.2033
" />
<path d="M56.6453 33.2033
L56.8268 33.2033
" />
<path d="M56.8268 33.2033
L56.9477 33.2637
" />
<path d="M56.9477 33.2637
L57.0082 33.3847
" />
<path d="M57.0082 33.3847
L57.0082 34.0499
" />
<path d="M57.6129 33.2033
L57.6129 34.4733
" />
<path d="M57.6129 33.2637
L57.7339 33.2033
" />
<path d="M57.7339 33.2033
L57.9758 33.2033
" />
<path d="M57.9758 33.2033
L58.0967 33.2637
" />
<path d="M58.0967 33.2637
L58.1572 33.3242
" />
<path d="M58.1572 33.3242
L58.2177 33.4452
" />
<path d="M58.2177 33.4452
L58.2177 33.8080
" />
<path d="M58.2177 33.8080
L58.1572 33.9290
" />
<path d="M58.1572 33.9290
L58.0967 33.9895
" />
<path d="M58.0967 33.9895
L57.9758 34.0499
" />
<path d="M57.9758 34.0499
L57.7339 34.0499
" />
<path d="M57.7339 34.0499
L57.6129 33.9895
" />
<path d="M58.9434 34.0499
L58.8224 33.9895
" />
<path d="M58.8224 33.9895
L58.7619 33.8685
" />
<path d="M58.7619 33.8685
L58.7619 32.7799
" />
<path d="M59.9109 33.9895
L59.7900 34.0499
" />
<path d="M59.7900 34.0499
L59.5481 34.0499
" />
<path d="M59.5481 34.0499
L59.4271 33.9895
" />
<path d="M59.4271 33.9895
L59.3667 33.8685
" />
<path d="M59.3667 33.8685
L59.3667 33.3847
" />
<path d="M59.3667 33.3847
L59.4271 33.2637
" />
<path d="M59.4271 33.2637
L59.5481 33.2033
" />
<path d="M59.5481 33.2033
L59.7900 33.2033
" />
<path d="M59.7900 33.2033
L59.9109 33.2637
" />
<path d="M59.9109 33.2637
L59.9714 33.3847
" />
<path d="M59.9714 33.3847
L59.9714 33.5056
" />
<path d="M59.9714 33.5056
L59.3667 33.6266
" />
<path d="M61.1810 34.0499
L60.4553 34.0499
" />
<path d="M60.8181 34.0499
L60.8181 32.7799
" />
<path d="M60.8181 32.7799
L60.6972 32.9614
" />
<path d="M60.6972 32.9614
L60.5762 33.0823
" />
<path d="M60.5762 33.0823
L60.4553 33.1428
" />
</g><text x="53.3400" y="74.2446"
textLength="23.0631" font-size="1.6933" lengthAdjust="spacingAndGlyphs"
text-anchor="start" opacity="0">File: sample1.kicad_sch</text>
<g class="stroked-text"><desc>File: sample1.kicad_sch</desc>
<path d="M54.1659 73.6318
L53.7425 73.6318
" />
<path d="M53.7425 74.2970
L53.7425 73.0270
" />
<path d="M53.7425 73.0270
L54.3473 73.0270
" />
<path d="M54.8311 74.2970
L54.8311 73.4504
" />
<path d="M54.8311 73.0270
L54.7707 73.0875
" />
<path d="M54.7707 73.0875
L54.8311 73.1480
" />
<path d="M54.8311 73.1480
L54.8916 73.0875
" />
<path d="M54.8916 73.0875
L54.8311 73.0270
" />
<path d="M54.8311 73.0270
L54.8311 73.1480
" />
<path d="M55.6174 74.2970
L55.4964 74.2366
" />
<path d="M55.4964 74.2366
L55.4359 74.1156
" />
<path d="M55.4359 74.1156
L55.4359 73.0270
" />
<path d="M56.5849 74.2366
L56.4640 74.2970
" />
<path d="M56.4640 74.2970
L56.2221 74.2970
" />
<path d="M56.2221 74.2970
L56.1011 74.2366
" />
<path d="M56.1011 74.2366
L56.0407 74.1156
" />
<path d="M56.0407 74.1156
L56.0407 73.6318
" />
<path d="M56.0407 73.6318
L56.1011 73.5108
" />
<path d="M56.1011 73.5108
L56.2221 73.4504
" />
<path d="M56.2221 73.4504
L56.4640 73.4504
" />
<path d="M56.4640 73.4504
L56.5849 73.5108
" />
<path d="M56.5849 73.5108
L56.6454 73.6318
" />
<path d="M56.6454 73.6318
L56.6454 73.7527
" />
<path d="M56.6454 73.7527
L56.0407 73.8737
" />
<path d="M57.1897 74.1761
L57.2502 74.2366
" />
<path d="M57.2502 74.2366
L57.1897 74.2970
" />
<path d="M57.1897 74.2970
L57.1293 74.2366
" />
<path d="M57.1293 74.2366
L57.1897 74.1761
" />
<path d="M57.1897 74.1761
L57.1897 74.2970
" />
<path d="M57.1897 73.5108
L57.2502 73.5713
" />
<path d="M57.2502 73.5713
L57.1897 73.6318
" />
<path d="M57.1897 73.6318
L57.1293 73.5713
" />
<path d="M57.1293 73.5713
L57.1897 73.5108
" />
<path d="M57.1897 73.5108
L57.1897 73.6318
" />
<path d="M58.7017 74.2366
L58.8226 74.2970
" />
<path d="M58.8226 74.2970
L59.0645 74.2970
" />
<path d="M59.0645 74.2970
L59.1855 74.2366
" />
<path d="M59.1855 74.2366
L59.2459 74.1156
" />
<path d="M59.2459 74.1156
L59.2459 74.0551
" />
<path d="M59.2459 74.0551
L59.1855 73.9342
" />
<path d="M59.1855 73.9342
L59.0645 73.8737
" />
<path d="M59.0645 73.8737
L58.8831 73.8737
" />
<path d="M58.8831 73.8737
L58.7621 73.8132
" />
<path d="M58.7621 73.8132
L58.7017 73.6923
" />
<path d="M58.7017 73.6923
L58.7017 73.6318
" />
<path d="M58.7017 73.6318
L58.7621 73.5108
" />
<path d="M58.7621 73.5108
L58.8831 73.4504
" />
<path d="M58.8831 73.4504
L59.0645 73.4504
" />
<path d="M59.0645 73.4504
L59.1855 73.5108
" />
<path d="M60.3345 74.2970
L60.3345 73.6318
" />
<path d="M60.3345 73.6318
L60.2740 73.5108
" />
<path d="M60.2740 73.5108
L60.1531 73.4504
" />
<path d="M60.1531 73.4504
L59.9112 73.4504
" />
<path d="M59.9112 73.4504
L59.7902 73.5108
" />
<path d="M60.3345 74.2366
L60.2136 74.2970
" />
<path d="M60.2136 74.2970
L59.9112 74.2970
" />
<path d="M59.9112 74.2970
L59.7902 74.2366
" />
<path d="M59.7902 74.2366
L59.7298 74.1156
" />
<path d="M59.7298 74.1156
L59.7298 73.9946
" />
<path d="M59.7298 73.9946
L59.7902 73.8737
" />
<path d="M59.7902 73.8737
L59.9112 73.8132
" />
<path d="M59.9112 73.8132
L60.2136 73.8132
" />
<path d="M60.2136 73.8132
L60.3345 73.7527
" />
<path d="M60.9392 74.2970
L60.9392 73.4504
" />
<path d="M60.9392 73.5713
L60.9997 73.5108
" />
<path d="M60.9997 73.5108
L61.1207 73.4504
" />
<path d="M61.1207 73.4504
L61.3021 73.4504
" />
<path d="M61.3021 73.4504
L61.4230 73.5108
" />
<path d="M61.4230 73.5108
L61.4835 73.6318
" />
<path d="M61.4835 73.6318
L61.4835 74.2970
" />
<path d="M61.4835 73.6318
L61.5440 73.5108
" />
<path d="M61.5440 73.5108
L61.6649 73.4504
" />
<path d="M61.6649 73.4504
L61.8464 73.4504
" />
<path d="M61.8464 73.4504
L61.9673 73.5108
" />
<path d="M61.9673 73.5108
L62.0278 73.6318
" />
<path d="M62.0278 73.6318
L62.0278 74.2970
" />
<path d="M62.6325 73.4504
L62.6325 74.7204
" />
<path d="M62.6325 73.5108
L62.7535 73.4504
" />
<path d="M62.7535 73.4504
L62.9954 73.4504
" />
<path d="M62.9954 73.4504
L63.1163 73.5108
" />
<path d="M63.1163 73.5108
L63.1768 73.5713
" />
<path d="M63.1768 73.5713
L63.2373 73.6923
" />
<path d="M63.2373 73.6923
L63.2373 74.0551
" />
<path d="M63.2373 74.0551
L63.1768 74.1761
" />
<path d="M63.1768 74.1761
L63.1163 74.2366
" />
<path d="M63.1163 74.2366
L62.9954 74.2970
" />
<path d="M62.9954 74.2970
L62.7535 74.2970
" />
<path d="M62.7535 74.2970
L62.6325 74.2366
" />
<path d="M63.9630 74.2970
L63.8420 74.2366
" />
<path d="M63.8420 74.2366
L63.7815 74.1156
" />
<path d="M63.7815 74.1156
L63.7815 73.0270
" />
<path d="M64.9305 74.2366
L64.8096 74.2970
" />
<path d="M64.8096 74.2970
L64.5677 74.2970
" />
<path d="M64.5677 74.2970
L64.4467 74.2366
" />
<path d="M64.4467 74.2366
L64.3863 74.1156
" />
<path d="M64.3863 74.1156
L64.3863 73.6318
" />
<path d="M64.3863 73.6318
L64.4467 73.5108
" />
<path d="M64.4467 73.5108
L64.5677 73.4504
" />
<path d="M64.5677 73.4504
L64.8096 73.4504
" />
<path d="M64.8096 73.4504
L64.9305 73.5108
" />
<path d="M64.9305 73.5108
L64.9910 73.6318
" />
<path d="M64.9910 73.6318
L64.9910 73.7527
" />
<path d="M64.9910 73.7527
L64.3863 73.8737
" />
<path d="M66.2006 74.2970
L65.4749 74.2970
" />
<path d="M65.8377 74.2970
L65.8377 73.0270
" />
<path d="M65.8377 73.0270
L65.7168 73.2085
" />
<path d="M65.7168 73.2085
L65.5958 73.3294
" />
<path d="M65.5958 73.3294
L65.4749 73.3899
" />
<path d="M66.7448 74.1761
L66.8053 74.2366
" />
<path d="M66.8053 74.2366
L66.7448 74.2970
" />
<path d="M66.7448 74.2970
L66.6844 74.2366
" />
<path d="M66.6844 74.2366
L66.7448 74.1761
" />
<path d="M66.7448 74.1761
L66.7448 74.2970
" />
<path d="M67.3496 74.2970
L67.3496 73.0270
" />
<path d="M67.4706 73.8132
L67.8334 74.2970
" />
<path d="M67.8334 73.4504
L67.3496 73.9342
" />
<path d="M68.3777 74.2970
L68.3777 73.4504
" />
<path d="M68.3777 73.0270
L68.3173 73.0875
" />
<path d="M68.3173 73.0875
L68.3777 73.1480
" />
<path d="M68.3777 73.1480
L68.4382 73.0875
" />
<path d="M68.4382 73.0875
L68.3777 73.0270
" />
<path d="M68.3777 73.0270
L68.3777 73.1480
" />
<path d="M69.5268 74.2366
L69.4059 74.2970
" />
<path d="M69.4059 74.2970
L69.1640 74.2970
" />
<path d="M69.1640 74.2970
L69.0430 74.2366
" />
<path d="M69.0430 74.2366
L68.9825 74.1761
" />
<path d="M68.9825 74.1761
L68.9221 74.0551
" />
<path d="M68.9221 74.0551
L68.9221 73.6923
" />
<path d="M68.9221 73.6923
L68.9825 73.5713
" />
<path d="M68.9825 73.5713
L69.0430 73.5108
" />
<path d="M69.0430 73.5108
L69.1640 73.4504
" />
<path d="M69.1640 73.4504
L69.4059 73.4504
" />
<path d="M69.4059 73.4504
L69.5268 73.5108
" />
<path d="M70.6154 74.2970
L70.6154 73.6318
" />
<path d="M70.6154 73.6318
L70.5549 73.5108
" />
<path d="M70.5549 73.5108
L70.4340 73.4504
" />
<path d="M70.4340 73.4504
L70.1921 73.4504
" />
<path d="M70.1921 73.4504
L70.0711 73.5108
" />
<path d="M70.6154 74.2366
L70.4945 74.2970
" />
<path d="M70.4945 74.2970
L70.1921 74.2970
" />
<path d="M70.1921 74.2970
L70.0711 74.2366
" />
<path d="M70.0711 74.2366
L70.0107 74.1156
" />
<path d="M70.0107 74.1156
L70.0107 73.9946
" />
<path d="M70.0107 73.9946
L70.0711 73.8737
" />
<path d="M70.0711 73.8737
L70.1921 73.8132
" />
<path d="M70.1921 73.8132
L70.4945 73.8132
" />
<path d="M70.4945 73.8132
L70.6154 73.7527
" />
<path d="M71.7644 74.2970
L71.7644 73.0270
" />
<path d="M71.7644 74.2366
L71.6435 74.2970
" />
<path d="M71.6435 74.2970
L71.4016 74.2970
" />
<path d="M71.4016 74.2970
L71.2806 74.2366
" />
<path d="M71.2806 74.2366
L71.2201 74.1761
" />
<path d="M71.2201 74.1761
L71.1597 74.0551
" />
<path d="M71.1597 74.0551
L71.1597 73.6923
" />
<path d="M71.1597 73.6923
L71.2201 73.5713
" />
<path d="M71.2201 73.5713
L71.2806 73.5108
" />
<path d="M71.2806 73.5108
L71.4016 73.4504
" />
<path d="M71.4016 73.4504
L71.6435 73.4504
" />
<path d="M71.6435 73.4504
L71.7644 73.5108
" />
<path d="M72.0668 74.4180
L73.0344 74.4180
" />
<path d="M73.2763 74.2366
L73.3972 74.2970
" />
<path d="M73.3972 74.2970
L73.6391 74.2970
" />
<path d="M73.6391 74.2970
L73.7601 74.2366
" />
<path d="M73.7601 74.2366
L73.8205 74.1156
" />
<path d="M73.8205 74.1156
L73.8205 74.0551
" />
<path d="M73.8205 74.0551
L73.7601 73.9342
" />
<path d="M73.7601 73.9342
L73.6391 73.8737
" />
<path d="M73.6391 73.8737
L73.4577 73.8737
" />
<path d="M73.4577 73.8737
L73.3367 73.8132
" />
<path d="M73.3367 73.8132
L73.2763 73.6923
" />
<path d="M73.2763 73.6923
L73.2763 73.6318
" />
<path d="M73.2763 73.6318
L73.3367 73.5108
" />
<path d="M73.3367 73.5108
L73.4577 73.4504
" />
<path d="M73.4577 73.4504
L73.6391 73.4504
" />
<path d="M73.6391 73.4504
L73.7601 73.5108
" />
<path d="M74.9091 74.2366
L74.7882 74.2970
" />
<path d="M74.7882 74.2970
L74.5463 74.2970
" />
<path d="M74.5463 74.2970
L74.4253 74.2366
" />
<path d="M74.4253 74.2366
L74.3648 74.1761
" />
<path d="M74.3648 74.1761
L74.3044 74.0551
" />
<path d="M74.3044 74.0551
L74.3044 73.6923
" />
<path d="M74.3044 73.6923
L74.3648 73.5713
" />
<path d="M74.3648 73.5713
L74.4253 73.5108
" />
<path d="M74.4253 73.5108
L74.5463 73.4504
" />
<path d="M74.5463 73.4504
L74.7882 73.4504
" />
<path d="M74.7882 73.4504
L74.9091 73.5108
" />
<path d="M75.4534 74.2970
L75.4534 73.0270
" />
<path d="M75.9977 74.2970
L75.9977 73.6318
" />
<path d="M75.9977 73.6318
L75.9372 73.5108
" />
<path d="M75.9372 73.5108
L75.8163 73.4504
" />
<path d="M75.8163 73.4504
L75.6349 73.4504
" />
<path d="M75.6349 73.4504
L75.5139 73.5108
" />
<path d="M75.5139 73.5108
L75.4534 73.5713
" />
</g><rect x="95.885000" y="34.925000" width="28.575000" height="37.465000" rx="0.000000" />
<text x="95.8850" y="34.2134"
textLength="8.1859" font-size="1.6933" lengthAdjust="spacingAndGlyphs"
text-anchor="start" opacity="0">sample2</text>
<g class="stroked-text"><desc>sample2</desc>
<path d="M96.2271 33.9895
L96.3480 34.0499
" />
<path d="M96.3480 34.0499
L96.5899 34.0499
" />
<path d="M96.5899 34.0499
L96.7109 33.9895
" />
<path d="M96.7109 33.9895
L96.7713 33.8685
" />
<path d="M96.7713 33.8685
L96.7713 33.8080
" />
<path d="M96.7713 33.8080
L96.7109 33.6871
" />
<path d="M96.7109 33.6871
L96.5899 33.6266
" />
<path d="M96.5899 33.6266
L96.4085 33.6266
" />
<path d="M96.4085 33.6266
L96.2875 33.5661
" />
<path d="M96.2875 33.5661
L96.2271 33.4452
" />
<path d="M96.2271 33.4452
L96.2271 33.3847
" />
<path d="M96.2271 33.3847
L96.2875 33.2637
" />
<path d="M96.2875 33.2637
L96.4085 33.2033
" />
<path d="M96.4085 33.2033
L96.5899 33.2033
" />
<path d="M96.5899 33.2033
L96.7109 33.2637
" />
<path d="M97.8599 34.0499
L97.8599 33.3847
" />
<path d="M97.8599 33.3847
L97.7994 33.2637
" />
<path d="M97.7994 33.2637
L97.6785 33.2033
" />
<path d="M97.6785 33.2033
L97.4366 33.2033
" />
<path d="M97.4366 33.2033
L97.3156 33.2637
" />
<path d="M97.8599 33.9895
L97.7390 34.0499
" />
<path d="M97.7390 34.0499
L97.4366 34.0499
" />
<path d="M97.4366 34.0499
L97.3156 33.9895
" />
<path d="M97.3156 33.9895
L97.2552 33.8685
" />
<path d="M97.2552 33.8685
L97.2552 33.7475
" />
<path d="M97.2552 33.7475
L97.3156 33.6266
" />
<path d="M97.3156 33.6266
L97.4366 33.5661
" />
<path d="M97.4366 33.5661
L97.7390 33.5661
" />
<path d="M97.7390 33.5661
L97.8599 33.5056
" />
<path d="M98.4646 34.0499
L98.4646 33.2033
" />
<path d="M98.4646 33.3242
L98.5251 33.2637
" />
<path d="M98.5251 33.2637
L98.6461 33.2033
" />
<path d="M98.6461 33.2033
L98.8275 33.2033
" />
<path d="M98.8275 33.2033
L98.9484 33.2637
" />
<path d="M98.9484 33.2637
L99.0089 33.3847
" />
<path d="M99.0089 33.3847
L99.0089 34.0499
" />
<path d="M99.0089 33.3847
L99.0694 33.2637
" />
<path d="M99.0694 33.2637
L99.1903 33.2033
" />
<path d="M99.1903 33.2033
L99.3718 33.2033
" />
<path d="M99.3718 33.2033
L99.4927 33.2637
" />
<path d="M99.4927 33.2637
L99.5532 33.3847
" />
<path d="M99.5532 33.3847
L99.5532 34.0499
" />
<path d="M100.1579 33.2033
L100.1579 34.4733
" />
<path d="M100.1579 33.2637
L100.2789 33.2033
" />
<path d="M100.2789 33.2033
L100.5208 33.2033
" />
<path d="M100.5208 33.2033
L100.6417 33.2637
" />
<path d="M100.6417 33.2637
L100.7022 33.3242
" />
<path d="M100.7022 33.3242
L100.7627 33.4452
" />
<path d="M100.7627 33.4452
L100.7627 33.8080
" />
<path d="M100.7627 33.8080
L100.7022 33.9290
" />
<path d="M100.7022 33.9290
L100.6417 33.9895
" />
<path d="M100.6417 33.9895
L100.5208 34.0499
" />
<path d="M100.5208 34.0499
L100.2789 34.0499
" />
<path d="M100.2789 34.0499
L100.1579 33.9895
" />
<path d="M101.4884 34.0499
L101.3674 33.9895
" />
<path d="M101.3674 33.9895
L101.3069 33.8685
" />
<path d="M101.3069 33.8685
L101.3069 32.7799
" />
<path d="M102.4559 33.9895
L102.3350 34.0499
" />
<path d="M102.3350 34.0499
L102.0931 34.0499
" />
<path d="M102.0931 34.0499
L101.9721 33.9895
" />
<path d="M101.9721 33.9895
L101.9117 33.8685
" />
<path d="M101.9117 33.8685
L101.9117 33.3847
" />
<path d="M101.9117 33.3847
L101.9721 33.2637
" />
<path d="M101.9721 33.2637
L102.0931 33.2033
" />
<path d="M102.0931 33.2033
L102.3350 33.2033
" />
<path d="M102.3350 33.2033
L102.4559 33.2637
" />
<path d="M102.4559 33.2637
L102.5164 33.3847
" />
<path d="M102.5164 33.3847
L102.5164 33.5056
" />
<path d="M102.5164 33.5056
L101.9117 33.6266
" />
<path d="M103.0003 32.9009
L103.0607 32.8404
" />
<path d="M103.0607 32.8404
L103.1817 32.7799
" />
<path d="M103.1817 32.7799
L103.4841 32.7799
" />
<path d="M103.4841 32.7799
L103.6050 32.8404
" />
<path d="M103.6050 32.8404
L103.6655 32.9009
" />
<path d="M103.6655 32.9009
L103.7260 33.0218
" />
<path d="M103.7260 33.0218
L103.7260 33.1428
" />
<path d="M103.7260 33.1428
L103.6655 33.3242
" />
<path d="M103.6655 33.3242
L102.9398 34.0499
" />
<path d="M102.9398 34.0499
L103.7260 34.0499
" />
</g><text x="95.8850" y="74.2446"
textLength="23.0631" font-size="1.6933" lengthAdjust="spacingAndGlyphs"
text-anchor="start" opacity="0">File: sample2.kicad_sch</text>
<g class="stroked-text"><desc>File: sample2.kicad_sch</desc>
<path d="M96.7109 73.6318
L96.2875 73.6318
" />
<path d="M96.2875 74.2970
L96.2875 73.0270
" />
<path d="M96.2875 73.0270
L96.8923 73.0270
" />
<path d="M97.3761 74.2970
L97.3761 73.4504
" />
<path d="M97.3761 73.0270
L97.3157 73.0875
" />
<path d="M97.3157 73.0875
L97.3761 73.1480
" />
<path d="M97.3761 73.1480
L97.4366 73.0875
" />
<path d="M97.4366 73.0875
L97.3761 73.0270
" />
<path d="M97.3761 73.0270
L97.3761 73.1480
" />
<path d="M98.1624 74.2970
L98.0414 74.2366
" />
<path d="M98.0414 74.2366
L97.9809 74.1156
" />
<path d="M97.9809 74.1156
L97.9809 73.0270
" />
<path d="M99.1299 74.2366
L99.0090 74.2970
" />
<path d="M99.0090 74.2970
L98.7671 74.2970
" />
<path d="M98.7671 74.2970
L98.6461 74.2366
" />
<path d="M98.6461 74.2366
L98.5857 74.1156
" />
<path d="M98.5857 74.1156
L98.5857 73.6318
" />
<path d="M98.5857 73.6318
L98.6461 73.5108
" />
<path d="M98.6461 73.5108
L98.7671 73.4504
" />
<path d="M98.7671 73.4504
L99.0090 73.4504
" />
<path d="M99.0090 73.4504
L99.1299 73.5108
" />
<path d="M99.1299 73.5108
L99.1904 73.6318
" />
<path d="M99.1904 73.6318
L99.1904 73.7527
" />
<path d="M99.1904 73.7527
L98.5857 73.8737
" />
<path d="M99.7347 74.1761
L99.7952 74.2366
" />
<path d="M99.7952 74.2366
L99.7347 74.2970
" />
<path d="M99.7347 74.2970
L99.6743 74.2366
" />
<path d="M99.6743 74.2366
L99.7347 74.1761
" />
<path d="M99.7347 74.1761
L99.7347 74.2970
" />
<path d="M99.7347 73.5108
L99.7952 73.5713
" />
<path d="M99.7952 73.5713
L99.7347 73.6318
" />
<path d="M99.7347 73.6318
L99.6743 73.5713
" />
<path d="M99.6743 73.5713
L99.7347 73.5108
" />
<path d="M99.7347 73.5108
L99.7347 73.6318
" />
<path d="M101.2467 74.2366
L101.3676 74.2970
" />
<path d="M101.3676 74.2970
L101.6095 74.2970
" />
<path d="M101.6095 74.2970
L101.7305 74.2366
" />
<path d="M101.7305 74.2366
L101.7909 74.1156
" />
<path d="M101.7909 74.1156
L101.7909 74.0551
" />
<path d="M101.7909 74.0551
L101.7305 73.9342
" />
<path d="M101.7305 73.9342
L101.6095 73.8737
" />
<path d="M101.6095 73.8737
L101.4281 73.8737
" />
<path d="M101.4281 73.8737
L101.3071 73.8132
" />
<path d="M101.3071 73.8132
L101.2467 73.6923
" />
<path d="M101.2467 73.6923
L101.2467 73.6318
" />
<path d="M101.2467 73.6318
L101.3071 73.5108
" />
<path d="M101.3071 73.5108
L101.4281 73.4504
" />
<path d="M101.4281 73.4504
L101.6095 73.4504
" />
<path d="M101.6095 73.4504
L101.7305 73.5108
" />
<path d="M102.8795 74.2970
L102.8795 73.6318
" />
<path d="M102.8795 73.6318
L102.8190 73.5108
" />
<path d="M102.8190 73.5108
L102.6981 73.4504
" />
<path d="M102.6981 73.4504
L102.4562 73.4504
" />
<path d="M102.4562 73.4504
L102.3352 73.5108
" />
<path d="M102.8795 74.2366
L102.7586 74.2970
" />
<path d="M102.7586 74.2970
L102.4562 74.2970
" />
<path d="M102.4562 74.2970
L102.3352 74.2366
" />
<path d="M102.3352 74.2366
L102.2748 74.1156
" />
<path d="M102.2748 74.1156
L102.2748 73.9946
" />
<path d="M102.2748 73.9946
L102.3352 73.8737
" />
<path d="M102.3352 73.8737
L102.4562 73.8132
" />
<path d="M102.4562 73.8132
L102.7586 73.8132
" />
<path d="M102.7586 73.8132
L102.8795 73.7527
" />
<path d="M103.4842 74.2970
L103.4842 73.4504
" />
<path d="M103.4842 73.5713
L103.5447 73.5108
" />
<path d="M103.5447 73.5108
L103.6657 73.4504
" />
<path d="M103.6657 73.4504
L103.8471 73.4504
" />
<path d="M103.8471 73.4504
L103.9680 73.5108
" />
<path d="M103.9680 73.5108
L104.0285 73.6318
" />
<path d="M104.0285 73.6318
L104.0285 74.2970
" />
<path d="M104.0285 73.6318
L104.0890 73.5108
" />
<path d="M104.0890 73.5108
L104.2099 73.4504
" />
<path d="M104.2099 73.4504
L104.3914 73.4504
" />
<path d="M104.3914 73.4504
L104.5123 73.5108
" />
<path d="M104.5123 73.5108
L104.5728 73.6318
" />
<path d="M104.5728 73.6318
L104.5728 74.2970
" />
<path d="M105.1775 73.4504
L105.1775 74.7204
" />
<path d="M105.1775 73.5108
L105.2985 73.4504
" />
<path d="M105.2985 73.4504
L105.5404 73.4504
" />
<path d="M105.5404 73.4504
L105.6613 73.5108
" />
<path d="M105.6613 73.5108
L105.7218 73.5713
" />
<path d="M105.7218 73.5713
L105.7823 73.6923
" />
<path d="M105.7823 73.6923
L105.7823 74.0551
" />
<path d="M105.7823 74.0551
L105.7218 74.1761
" />
<path d="M105.7218 74.1761
L105.6613 74.2366
" />
<path d="M105.6613 74.2366
L105.5404 74.2970
" />
<path d="M105.5404 74.2970
L105.2985 74.2970
" />
<path d="M105.2985 74.2970
L105.1775 74.2366
" />
<path d="M106.5080 74.2970
L106.3870 74.2366
" />
<path d="M106.3870 74.2366
L106.3265 74.1156
" />
<path d="M106.3265 74.1156
L106.3265 73.0270
" />
<path d="M107.4755 74.2366
L107.3546 74.2970
" />
<path d="M107.3546 74.2970
L107.1127 74.2970
" />
<path d="M107.1127 74.2970
L106.9917 74.2366
" />
<path d="M106.9917 74.2366
L106.9313 74.1156
" />
<path d="M106.9313 74.1156
L106.9313 73.6318
" />
<path d="M106.9313 73.6318
L106.9917 73.5108
" />
<path d="M106.9917 73.5108
L107.1127 73.4504
" />
<path d="M107.1127 73.4504
L107.3546 73.4504
" />
<path d="M107.3546 73.4504
L107.4755 73.5108
" />
<path d="M107.4755 73.5108
L107.5360 73.6318
" />
<path d="M107.5360 73.6318
L107.5360 73.7527
" />
<path d="M107.5360 73.7527
L106.9313 73.8737
" />
<path d="M108.0199 73.1480
L108.0803 73.0875
" />
<path d="M108.0803 73.0875
L108.2013 73.0270
" />
<path d="M108.2013 73.0270
L108.5037 73.0270
" />
<path d="M108.5037 73.0270
L108.6246 73.0875
" />
<path d="M108.6246 73.0875
L108.6851 73.1480
" />
<path d="M108.6851 73.1480
L108.7456 73.2689
" />
<path d="M108.7456 73.2689
L108.7456 73.3899
" />
<path d="M108.7456 73.3899
L108.6851 73.5713
" />
<path d="M108.6851 73.5713
L107.9594 74.2970
" />
<path d="M107.9594 74.2970
L108.7456 74.2970
" />
<path d="M109.2898 74.1761
L109.3503 74.2366
" />
<path d="M109.3503 74.2366
L109.2898 74.2970
" />
<path d="M109.2898 74.2970
L109.2294 74.2366
" />
<path d="M109.2294 74.2366
L109.2898 74.1761
" />
<path d="M109.2898 74.1761
L109.2898 74.2970
" />
<path d="M109.8946 74.2970
L109.8946 73.0270
" />
<path d="M110.0156 73.8132
L110.3784 74.2970
" />
<path d="M110.3784 73.4504
L109.8946 73.9342
" />
<path d="M110.9227 74.2970
L110.9227 73.4504
" />
<path d="M110.9227 73.0270
L110.8623 73.0875
" />
<path d="M110.8623 73.0875
L110.9227 73.1480
" />
<path d="M110.9227 73.1480
L110.9832 73.0875
" />
<path d="M110.9832 73.0875
L110.9227 73.0270
" />
<path d="M110.9227 73.0270
L110.9227 73.1480
" />
<path d="M112.0718 74.2366
L111.9509 74.2970
" />
<path d="M111.9509 74.2970
L111.7090 74.2970
" />
<path d="M111.7090 74.2970
L111.5880 74.2366
" />
<path d="M111.5880 74.2366
L111.5275 74.1761
" />
<path d="M111.5275 74.1761
L111.4671 74.0551
" />
<path d="M111.4671 74.0551
L111.4671 73.6923
" />
<path d="M111.4671 73.6923
L111.5275 73.5713
" />
<path d="M111.5275 73.5713
L111.5880 73.5108
" />
<path d="M111.5880 73.5108
L111.7090 73.4504
" />
<path d="M111.7090 73.4504
L111.9509 73.4504
" />
<path d="M111.9509 73.4504
L112.0718 73.5108
" />
<path d="M113.1604 74.2970
L113.1604 73.6318
" />
<path d="M113.1604 73.6318
L113.0999 73.5108
" />
<path d="M113.0999 73.5108
L112.9790 73.4504
" />
<path d="M112.9790 73.4504
L112.7371 73.4504
" />
<path d="M112.7371 73.4504
L112.6161 73.5108
" />
<path d="M113.1604 74.2366
L113.0395 74.2970
" />
<path d="M113.0395 74.2970
L112.7371 74.2970
" />
<path d="M112.7371 74.2970
L112.6161 74.2366
" />
<path d="M112.6161 74.2366
L112.5557 74.1156
" />
<path d="M112.5557 74.1156
L112.5557 73.9946
" />
<path d="M112.5557 73.9946
L112.6161 73.8737
" />
<path d="M112.6161 73.8737
L112.7371 73.8132
" />
<path d="M112.7371 73.8132
L113.0395 73.8132
" />
<path d="M113.0395 73.8132
L113.1604 73.7527
" />
<path d="M114.3094 74.2970
L114.3094 73.0270
" />
<path d="M114.3094 74.2366
L114.1885 74.2970
" />
<path d="M114.1885 74.2970
L113.9466 74.2970
" />
<path d="M113.9466 74.2970
L113.8256 74.2366
" />
<path d="M113.8256 74.2366
L113.7651 74.1761
" />
<path d="M113.7651 74.1761
L113.7047 74.0551
" />
<path d="M113.7047 74.0551
L113.7047 73.6923
" />
<path d="M113.7047 73.6923
L113.7651 73.5713
" />
<path d="M113.7651 73.5713
L113.8256 73.5108
" />
<path d="M113.8256 73.5108
L113.9466 73.4504
" />
<path d="M113.9466 73.4504
L114.1885 73.4504
" />
<path d="M114.1885 73.4504
L114.3094 73.5108
" />
<path d="M114.6118 74.4180
L115.5794 74.4180
" />
<path d="M115.8213 74.2366
L115.9422 74.2970
" />
<path d="M115.9422 74.2970
L116.1841 74.2970
" />
<path d="M116.1841 74.2970
L116.3051 74.2366
" />
<path d="M116.3051 74.2366
L116.3655 74.1156
" />
<path d="M116.3655 74.1156
L116.3655 74.0551
" />
<path d="M116.3655 74.0551
L116.3051 73.9342
" />
<path d="M116.3051 73.9342
L116.1841 73.8737
" />
<path d="M116.1841 73.8737
L116.0027 73.8737
" />
<path d="M116.0027 73.8737
L115.8817 73.8132
" />
<path d="M115.8817 73.8132
L115.8213 73.6923
" />
<path d="M115.8213 73.6923
L115.8213 73.6318
" />
<path d="M115.8213 73.6318
L115.8817 73.5108
" />
<path d="M115.8817 73.5108
L116.0027 73.4504
" />
<path d="M116.0027 73.4504
L116.1841 73.4504
" />
<path d="M116.1841 73.4504
L116.3051 73.5108
" />
<path d="M117.4541 74.2366
L117.3332 74.2970
" />
<path d="M117.3332 74.2970
L117.0913 74.2970
" />
<path d="M117.0913 74.2970
L116.9703 74.2366
" />
<path d="M116.9703 74.2366
L116.9098 74.1761
" />
<path d="M116.9098 74.1761
L116.8494 74.0551
" />
<path d="M116.8494 74.0551
L116.8494 73.6923
" />
<path d="M116.8494 73.6923
L116.9098 73.5713
" />
<path d="M116.9098 73.5713
L116.9703 73.5108
" />
<path d="M116.9703 73.5108
L117.0913 73.4504
" />
<path d="M117.0913 73.4504
L117.3332 73.4504
" />
<path d="M117.3332 73.4504
L117.4541 73.5108
" />
<path d="M117.9984 74.2970
L117.9984 73.0270
" />
<path d="M118.5427 74.2970
L118.5427 73.6318
" />
<path d="M118.5427 73.6318
L118.4822 73.5108
" />
<path d="M118.4822 73.5108
L118.3613 73.4504
" />
<path d="M118.3613 73.4504
L118.1799 73.4504
" />
<path d="M118.1799 73.4504
L118.0589 73.5108
" />
<path d="M118.0589 73.5108
L117.9984 73.5713
" />
</g></g> 
</svg>
