<?xml version="1.0" standalone="no"?>
 <!DOCTYPE svg PUBLIC "-//W3C//DTD SVG 1.1//EN" 
 "http://www.w3.org/Graphics/SVG/1.1/DTD/svg11.dtd"> 
<svg
  xmlns:svg="http://www.w3.org/2000/svg"
  xmlns="http://www.w3.org/2000/svg"
  xmlns:xlink="http://www.w3.org/1999/xlink"
  version="1.1"
  width="297.0022mm" height="210.0072mm" viewBox="0.0000 0.0000 297.0022 210.0072">
<title>SVG Image created as sample-driver-interface-sample2.svg date 2025/05/03 21:03:35 </title>
  <desc>Image generated by Eeschema-SVG </desc>
<g style="fill:#000000; fill-opacity:1.0000;stroke:#000000; stroke-opacity:1.0000;
stroke-linecap:round; stroke-linejoin:round;"
 transform="translate(0 0) scale(1 1)">
</g>
<g style="fill:#FFFFC2; fill-opacity:1.0000; stroke:none;">
<rect x="95.250000" y="109.855000" width="2.540000" height="12.700000" rx="0.000000" />
</g>
<g style="fill:none; 
stroke:#840000; stroke-width:0.1524; stroke-opacity:1; 
stroke-linecap:round; stroke-linejoin:round;">
<rect x="96.520000" y="121.158000" width="1.270000" height="0.254000" rx="0.000000" />
<rect x="96.520000" y="118.618000" width="1.270000" height="0.254000" rx="0.000000" />
<rect x="96.520000" y="116.078000" width="1.270000" height="0.254000" rx="0.000000" />
<rect x="96.520000" y="113.538000" width="1.270000" height="0.254000" rx="0.000000" />
<rect x="96.520000" y="110.998000" width="1.270000" height="0.254000" rx="0.000000" />
</g>
<g style="fill:none; 
stroke:#840000; stroke-width:0.2540; stroke-opacity:1; 
stroke-linecap:round; stroke-linejoin:round;">
<rect x="95.250000" y="109.855000" width="2.540000" height="12.700000" rx="0.000000" />
</g>
<g style="fill:none; 
stroke:#840000; stroke-width:0.1524; stroke-opacity:1; 
stroke-linecap:round; stroke-linejoin:round;">
<path d="M97.7900 111.1250
L101.6000 111.1250
" />
</g>
<g style="fill:none; 
stroke:#A90000; stroke-width:0.1524; stroke-opacity:1; 
stroke-linecap:round; stroke-linejoin:round;">
<text x="99.6950" y="110.8710"
textLength="1.4127" font-size="1.6933" lengthAdjust="spacingAndGlyphs"
text-anchor="middle" opacity="0">1</text>
<g class="stroked-text"><desc>1</desc>
<path d="M100.0579 110.7075
L99.3322 110.7075
" />
<path d="M99.6950 110.7075
L99.6950 109.4375
" />
<path d="M99.6950 109.4375
L99.5741 109.6190
" />
<path d="M99.5741 109.6190
L99.4531 109.7399
" />
<path d="M99.4531 109.7399
L99.3322 109.8004
" />
</g></g>
<g style="fill:none; 
stroke:#840000; stroke-width:0.1524; stroke-opacity:1; 
stroke-linecap:round; stroke-linejoin:round;">
<path d="M97.7900 113.6650
L101.6000 113.6650
" />
</g>
<g style="fill:none; 
stroke:#A90000; stroke-width:0.1524; stroke-opacity:1; 
stroke-linecap:round; stroke-linejoin:round;">
<text x="99.6950" y="113.4110"
textLength="1.4127" font-size="1.6933" lengthAdjust="spacingAndGlyphs"
text-anchor="middle" opacity="0">2</text>
<g class="stroked-text"><desc>2</desc>
<path d="M99.3322 112.0985
L99.3926 112.0380
" />
<path d="M99.3926 112.0380
L99.5136 111.9775
" />
<path d="M99.5136 111.9775
L99.8160 111.9775
" />
<path d="M99.8160 111.9775
L99.9369 112.0380
" />
<path d="M99.9369 112.0380
L99.9974 112.0985
" />
<path d="M99.9974 112.0985
L100.0579 112.2194
" />
<path d="M100.0579 112.2194
L100.0579 112.3404
" />
<path d="M100.0579 112.3404
L99.9974 112.5218
" />
<path d="M99.9974 112.5218
L99.2717 113.2475
" />
<path d="M99.2717 113.2475
L100.0579 113.2475
" />
</g></g>
<g style="fill:none; 
stroke:#840000; stroke-width:0.1524; stroke-opacity:1; 
stroke-linecap:round; stroke-linejoin:round;">
<path d="M97.7900 116.2050
L101.6000 116.2050
" />
</g>
<g style="fill:none; 
stroke:#A90000; stroke-width:0.1524; stroke-opacity:1; 
stroke-linecap:round; stroke-linejoin:round;">
<text x="99.6950" y="115.9510"
textLength="1.4127" font-size="1.6933" lengthAdjust="spacingAndGlyphs"
text-anchor="middle" opacity="0">3</text>
<g class="stroked-text"><desc>3</desc>
<path d="M99.2717 114.5175
L100.0579 114.5175
" />
<path d="M100.0579 114.5175
L99.6345 115.0013
" />
<path d="M99.6345 115.0013
L99.8160 115.0013
" />
<path d="M99.8160 115.0013
L99.9369 115.0618
" />
<path d="M99.9369 115.0618
L99.9974 115.1223
" />
<path d="M99.9974 115.1223
L100.0579 115.2432
" />
<path d="M100.0579 115.2432
L100.0579 115.5456
" />
<path d="M100.0579 115.5456
L99.9974 115.6666
" />
<path d="M99.9974 115.6666
L99.9369 115.7271
" />
<path d="M99.9369 115.7271
L99.8160 115.7875
" />
<path d="M99.8160 115.7875
L99.4531 115.7875
" />
<path d="M99.4531 115.7875
L99.3322 115.7271
" />
<path d="M99.3322 115.7271
L99.2717 115.6666
" />
</g></g>
<g style="fill:none; 
stroke:#840000; stroke-width:0.1524; stroke-opacity:1; 
stroke-linecap:round; stroke-linejoin:round;">
<path d="M97.7900 118.7450
L101.6000 118.7450
" />
</g>
<g style="fill:none; 
stroke:#A90000; stroke-width:0.1524; stroke-opacity:1; 
stroke-linecap:round; stroke-linejoin:round;">
<text x="99.6950" y="118.4910"
textLength="1.4127" font-size="1.6933" lengthAdjust="spacingAndGlyphs"
text-anchor="middle" opacity="0">4</text>
<g class="stroked-text"><desc>4</desc>
<path d="M99.9369 117.4809
L99.9369 118.3275
" />
<path d="M99.6345 116.9971
L99.3322 117.9042
" />
<path d="M99.3322 117.9042
L100.1183 117.9042
" />
</g></g>
<g style="fill:none; 
stroke:#840000; stroke-width:0.1524; stroke-opacity:1; 
stroke-linecap:round; stroke-linejoin:round;">
<path d="M97.7900 121.2850
L101.6000 121.2850
" />
</g>
<g style="fill:none; 
stroke:#A90000; stroke-width:0.1524; stroke-opacity:1; 
stroke-linecap:round; stroke-linejoin:round;">
<text x="99.6950" y="121.0310"
textLength="1.4127" font-size="1.6933" lengthAdjust="spacingAndGlyphs"
text-anchor="middle" opacity="0">5</text>
<g class="stroked-text"><desc>5</desc>
<path d="M99.9974 119.5975
L99.3926 119.5975
" />
<path d="M99.3926 119.5975
L99.3322 120.2023
" />
<path d="M99.3322 120.2023
L99.3926 120.1418
" />
<path d="M99.3926 120.1418
L99.5136 120.0813
" />
<path d="M99.5136 120.0813
L99.8160 120.0813
" />
<path d="M99.8160 120.0813
L99.9369 120.1418
" />
<path d="M99.9369 120.1418
L99.9974 120.2023
" />
<path d="M99.9974 120.2023
L100.0579 120.3232
" />
<path d="M100.0579 120.3232
L100.0579 120.6256
" />
<path d="M100.0579 120.6256
L99.9974 120.7466
" />
<path d="M99.9974 120.7466
L99.9369 120.8071
" />
<path d="M99.9369 120.8071
L99.8160 120.8675
" />
<path d="M99.8160 120.8675
L99.5136 120.8675
" />
<path d="M99.5136 120.8675
L99.3926 120.8071
" />
<path d="M99.3926 120.8071
L99.3322 120.7466
" />
</g></g>
<g style="fill:none; 
stroke:#006464; stroke-width:0.1524; stroke-opacity:1; 
stroke-linecap:round; stroke-linejoin:round;">
<text x="91.0445" y="115.5699"
textLength="5.3437" font-size="1.6933" lengthAdjust="spacingAndGlyphs"
text-anchor="middle" opacity="0">CON1</text>
<g class="stroked-text"><desc>CON1</desc>
<path d="M89.5023 115.3935
L89.4419 115.4540
" />
<path d="M89.4419 115.4540
L89.2604 115.5144
" />
<path d="M89.2604 115.5144
L89.1395 115.5144
" />
<path d="M89.1395 115.5144
L88.9581 115.4540
" />
<path d="M88.9581 115.4540
L88.8371 115.3330
" />
<path d="M88.8371 115.3330
L88.7766 115.2120
" />
<path d="M88.7766 115.2120
L88.7162 114.9701
" />
<path d="M88.7162 114.9701
L88.7162 114.7887
" />
<path d="M88.7162 114.7887
L88.7766 114.5468
" />
<path d="M88.7766 114.5468
L88.8371 114.4259
" />
<path d="M88.8371 114.4259
L88.9581 114.3049
" />
<path d="M88.9581 114.3049
L89.1395 114.2444
" />
<path d="M89.1395 114.2444
L89.2604 114.2444
" />
<path d="M89.2604 114.2444
L89.4419 114.3049
" />
<path d="M89.4419 114.3049
L89.5023 114.3654
" />
<path d="M90.2885 114.2444
L90.5304 114.2444
" />
<path d="M90.5304 114.2444
L90.6514 114.3049
" />
<path d="M90.6514 114.3049
L90.7723 114.4259
" />
<path d="M90.7723 114.4259
L90.8328 114.6678
" />
<path d="M90.8328 114.6678
L90.8328 115.0911
" />
<path d="M90.8328 115.0911
L90.7723 115.3330
" />
<path d="M90.7723 115.3330
L90.6514 115.4540
" />
<path d="M90.6514 115.4540
L90.5304 115.5144
" />
<path d="M90.5304 115.5144
L90.2885 115.5144
" />
<path d="M90.2885 115.5144
L90.1676 115.4540
" />
<path d="M90.1676 115.4540
L90.0466 115.3330
" />
<path d="M90.0466 115.3330
L89.9862 115.0911
" />
<path d="M89.9862 115.0911
L89.9862 114.6678
" />
<path d="M89.9862 114.6678
L90.0466 114.4259
" />
<path d="M90.0466 114.4259
L90.1676 114.3049
" />
<path d="M90.1676 114.3049
L90.2885 114.2444
" />
<path d="M91.3771 115.5144
L91.3771 114.2444
" />
<path d="M91.3771 114.2444
L92.1028 115.5144
" />
<path d="M92.1028 115.5144
L92.1028 114.2444
" />
<path d="M93.3729 115.5144
L92.6472 115.5144
" />
<path d="M93.0100 115.5144
L93.0100 114.2444
" />
<path d="M93.0100 114.2444
L92.8891 114.4259
" />
<path d="M92.8891 114.4259
L92.7681 114.5468
" />
<path d="M92.7681 114.5468
L92.6472 114.6073
" />
</g><text x="83.6363" y="118.1099"
textLength="20.1601" font-size="1.6933" lengthAdjust="spacingAndGlyphs"
text-anchor="middle" opacity="0">EL0001 - HEADER 1</text>
<g class="stroked-text"><desc>EL0001 - HEADER 1</desc>
<path d="M73.9602 117.3892
L74.3836 117.3892
" />
<path d="M74.5650 118.0544
L73.9602 118.0544
" />
<path d="M73.9602 118.0544
L73.9602 116.7844
" />
<path d="M73.9602 116.7844
L74.5650 116.7844
" />
<path d="M75.7140 118.0544
L75.1092 118.0544
" />
<path d="M75.1092 118.0544
L75.1092 116.7844
" />
<path d="M76.3792 116.7844
L76.5002 116.7844
" />
<path d="M76.5002 116.7844
L76.6211 116.8449
" />
<path d="M76.6211 116.8449
L76.6816 116.9054
" />
<path d="M76.6816 116.9054
L76.7421 117.0263
" />
<path d="M76.7421 117.0263
L76.8026 117.2682
" />
<path d="M76.8026 117.2682
L76.8026 117.5706
" />
<path d="M76.8026 117.5706
L76.7421 117.8125
" />
<path d="M76.7421 117.8125
L76.6816 117.9335
" />
<path d="M76.6816 117.9335
L76.6211 117.9940
" />
<path d="M76.6211 117.9940
L76.5002 118.0544
" />
<path d="M76.5002 118.0544
L76.3792 118.0544
" />
<path d="M76.3792 118.0544
L76.2583 117.9940
" />
<path d="M76.2583 117.9940
L76.1978 117.9335
" />
<path d="M76.1978 117.9335
L76.1373 117.8125
" />
<path d="M76.1373 117.8125
L76.0769 117.5706
" />
<path d="M76.0769 117.5706
L76.0769 117.2682
" />
<path d="M76.0769 117.2682
L76.1373 117.0263
" />
<path d="M76.1373 117.0263
L76.1978 116.9054
" />
<path d="M76.1978 116.9054
L76.2583 116.8449
" />
<path d="M76.2583 116.8449
L76.3792 116.7844
" />
<path d="M77.5887 116.7844
L77.7097 116.7844
" />
<path d="M77.7097 116.7844
L77.8306 116.8449
" />
<path d="M77.8306 116.8449
L77.8911 116.9054
" />
<path d="M77.8911 116.9054
L77.9516 117.0263
" />
<path d="M77.9516 117.0263
L78.0121 117.2682
" />
<path d="M78.0121 117.2682
L78.0121 117.5706
" />
<path d="M78.0121 117.5706
L77.9516 117.8125
" />
<path d="M77.9516 117.8125
L77.8911 117.9335
" />
<path d="M77.8911 117.9335
L77.8306 117.9940
" />
<path d="M77.8306 117.9940
L77.7097 118.0544
" />
<path d="M77.7097 118.0544
L77.5887 118.0544
" />
<path d="M77.5887 118.0544
L77.4678 117.9940
" />
<path d="M77.4678 117.9940
L77.4073 117.9335
" />
<path d="M77.4073 117.9335
L77.3468 117.8125
" />
<path d="M77.3468 117.8125
L77.2864 117.5706
" />
<path d="M77.2864 117.5706
L77.2864 117.2682
" />
<path d="M77.2864 117.2682
L77.3468 117.0263
" />
<path d="M77.3468 117.0263
L77.4073 116.9054
" />
<path d="M77.4073 116.9054
L77.4678 116.8449
" />
<path d="M77.4678 116.8449
L77.5887 116.7844
" />
<path d="M78.7982 116.7844
L78.9192 116.7844
" />
<path d="M78.9192 116.7844
L79.0401 116.8449
" />
<path d="M79.0401 116.8449
L79.1006 116.9054
" />
<path d="M79.1006 116.9054
L79.1611 117.0263
" />
<path d="M79.1611 117.0263
L79.2216 117.2682
" />
<path d="M79.2216 117.2682
L79.2216 117.5706
" />
<path d="M79.2216 117.5706
L79.1611 117.8125
" />
<path d="M79.1611 117.8125
L79.1006 117.9335
" />
<path d="M79.1006 117.9335
L79.0401 117.9940
" />
<path d="M79.0401 117.9940
L78.9192 118.0544
" />
<path d="M78.9192 118.0544
L78.7982 118.0544
" />
<path d="M78.7982 118.0544
L78.6773 117.9940
" />
<path d="M78.6773 117.9940
L78.6168 117.9335
" />
<path d="M78.6168 117.9335
L78.5563 117.8125
" />
<path d="M78.5563 117.8125
L78.4959 117.5706
" />
<path d="M78.4959 117.5706
L78.4959 117.2682
" />
<path d="M78.4959 117.2682
L78.5563 117.0263
" />
<path d="M78.5563 117.0263
L78.6168 116.9054
" />
<path d="M78.6168 116.9054
L78.6773 116.8449
" />
<path d="M78.6773 116.8449
L78.7982 116.7844
" />
<path d="M80.4311 118.0544
L79.7054 118.0544
" />
<path d="M80.0682 118.0544
L80.0682 116.7844
" />
<path d="M80.0682 116.7844
L79.9473 116.9659
" />
<path d="M79.9473 116.9659
L79.8263 117.0868
" />
<path d="M79.8263 117.0868
L79.7054 117.1473
" />
<path d="M81.9429 117.5706
L82.9106 117.5706
" />
<path d="M84.4829 118.0544
L84.4829 116.7844
" />
<path d="M84.4829 117.3892
L85.2086 117.3892
" />
<path d="M85.2086 118.0544
L85.2086 116.7844
" />
<path d="M85.8134 117.3892
L86.2368 117.3892
" />
<path d="M86.4182 118.0544
L85.8134 118.0544
" />
<path d="M85.8134 118.0544
L85.8134 116.7844
" />
<path d="M85.8134 116.7844
L86.4182 116.7844
" />
<path d="M86.9020 117.6916
L87.5067 117.6916
" />
<path d="M86.7810 118.0544
L87.2043 116.7844
" />
<path d="M87.2043 116.7844
L87.6277 118.0544
" />
<path d="M88.0510 118.0544
L88.0510 116.7844
" />
<path d="M88.0510 116.7844
L88.3534 116.7844
" />
<path d="M88.3534 116.7844
L88.5348 116.8449
" />
<path d="M88.5348 116.8449
L88.6558 116.9659
" />
<path d="M88.6558 116.9659
L88.7163 117.0868
" />
<path d="M88.7163 117.0868
L88.7767 117.3287
" />
<path d="M88.7767 117.3287
L88.7767 117.5101
" />
<path d="M88.7767 117.5101
L88.7163 117.7520
" />
<path d="M88.7163 117.7520
L88.6558 117.8730
" />
<path d="M88.6558 117.8730
L88.5348 117.9940
" />
<path d="M88.5348 117.9940
L88.3534 118.0544
" />
<path d="M88.3534 118.0544
L88.0510 118.0544
" />
<path d="M89.3210 117.3892
L89.7444 117.3892
" />
<path d="M89.9258 118.0544
L89.3210 118.0544
" />
<path d="M89.3210 118.0544
L89.3210 116.7844
" />
<path d="M89.3210 116.7844
L89.9258 116.7844
" />
<path d="M91.1957 118.0544
L90.7724 117.4497
" />
<path d="M90.4700 118.0544
L90.4700 116.7844
" />
<path d="M90.4700 116.7844
L90.9538 116.7844
" />
<path d="M90.9538 116.7844
L91.0748 116.8449
" />
<path d="M91.0748 116.8449
L91.1353 116.9054
" />
<path d="M91.1353 116.9054
L91.1957 117.0263
" />
<path d="M91.1957 117.0263
L91.1957 117.2078
" />
<path d="M91.1957 117.2078
L91.1353 117.3287
" />
<path d="M91.1353 117.3287
L91.0748 117.3892
" />
<path d="M91.0748 117.3892
L90.9538 117.4497
" />
<path d="M90.9538 117.4497
L90.4700 117.4497
" />
<path d="M93.3729 118.0544
L92.6472 118.0544
" />
<path d="M93.0100 118.0544
L93.0100 116.7844
" />
<path d="M93.0100 116.7844
L92.8891 116.9659
" />
<path d="M92.8891 116.9659
L92.7681 117.0868
" />
<path d="M92.7681 117.0868
L92.6472 117.1473
" />
</g><path style="fill:none; 
stroke:#840000; stroke-width:0.2540; stroke-opacity:1; 
stroke-linecap:round; stroke-linejoin:round;fill:none"
d="M 130.8100,95.8850
128.2700,95.8850
" /> 
<path style="fill:none; 
stroke:#840000; stroke-width:0.1524; stroke-opacity:1; 
stroke-linecap:round; stroke-linejoin:round;fill:none"
d="M 129.5400,98.4250
129.5400,95.8850
" /> 
<path style="fill:none; 
stroke:#840000; stroke-width:0.2540; stroke-opacity:1; 
stroke-linecap:round; stroke-linejoin:round;fill:none"
d="M 130.8100,98.4250
128.2700,98.4250
129.5400,95.8850
Z" /> 
</g>
<g style="fill:none; 
stroke:#840000; stroke-width:0.1524; stroke-opacity:1; 
stroke-linecap:round; stroke-linejoin:round;">
<path d="M129.5400 95.8850
L129.5400 93.3450
" />
<path d="M129.5400 98.4250
L129.5400 100.9650
" />
</g>
<g style="fill:none; 
stroke:#006464; stroke-width:0.1524; stroke-opacity:1; 
stroke-linecap:round; stroke-linejoin:round;">
<text x="134.6707" y="96.5200"
textLength="3.8922" font-size="1.6933" lengthAdjust="spacingAndGlyphs"
text-anchor="middle" opacity="0">D10</text>
<g class="stroked-text"><desc>D10</desc>
<path d="M133.1285 96.4645
L133.1285 95.1945
" />
<path d="M133.1285 95.1945
L133.4309 95.1945
" />
<path d="M133.4309 95.1945
L133.6123 95.2550
" />
<path d="M133.6123 95.2550
L133.7333 95.3760
" />
<path d="M133.7333 95.3760
L133.7938 95.4969
" />
<path d="M133.7938 95.4969
L133.8542 95.7388
" />
<path d="M133.8542 95.7388
L133.8542 95.9202
" />
<path d="M133.8542 95.9202
L133.7938 96.1621
" />
<path d="M133.7938 96.1621
L133.7333 96.2831
" />
<path d="M133.7333 96.2831
L133.6123 96.4041
" />
<path d="M133.6123 96.4041
L133.4309 96.4645
" />
<path d="M133.4309 96.4645
L133.1285 96.4645
" />
<path d="M135.0638 96.4645
L134.3381 96.4645
" />
<path d="M134.7009 96.4645
L134.7009 95.1945
" />
<path d="M134.7009 95.1945
L134.5800 95.3760
" />
<path d="M134.5800 95.3760
L134.4590 95.4969
" />
<path d="M134.4590 95.4969
L134.3381 95.5574
" />
<path d="M135.8499 95.1945
L135.9709 95.1945
" />
<path d="M135.9709 95.1945
L136.0918 95.2550
" />
<path d="M136.0918 95.2550
L136.1523 95.3155
" />
<path d="M136.1523 95.3155
L136.2128 95.4364
" />
<path d="M136.2128 95.4364
L136.2733 95.6783
" />
<path d="M136.2733 95.6783
L136.2733 95.9807
" />
<path d="M136.2733 95.9807
L136.2128 96.2226
" />
<path d="M136.2128 96.2226
L136.1523 96.3436
" />
<path d="M136.1523 96.3436
L136.0918 96.4041
" />
<path d="M136.0918 96.4041
L135.9709 96.4645
" />
<path d="M135.9709 96.4645
L135.8499 96.4645
" />
<path d="M135.8499 96.4645
L135.7290 96.4041
" />
<path d="M135.7290 96.4041
L135.6685 96.3436
" />
<path d="M135.6685 96.3436
L135.6080 96.2226
" />
<path d="M135.6080 96.2226
L135.5476 95.9807
" />
<path d="M135.5476 95.9807
L135.5476 95.6783
" />
<path d="M135.5476 95.6783
L135.6080 95.4364
" />
<path d="M135.6080 95.4364
L135.6685 95.3155
" />
<path d="M135.6685 95.3155
L135.7290 95.2550
" />
<path d="M135.7290 95.2550
L135.8499 95.1945
" />
</g><text x="133.4612" y="99.0600"
textLength="1.4732" font-size="1.6933" lengthAdjust="spacingAndGlyphs"
text-anchor="middle" opacity="0">D</text>
<g class="stroked-text"><desc>D</desc>
<path d="M133.1285 99.0045
L133.1285 97.7345
" />
<path d="M133.1285 97.7345
L133.4309 97.7345
" />
<path d="M133.4309 97.7345
L133.6123 97.7950
" />
<path d="M133.6123 97.7950
L133.7333 97.9160
" />
<path d="M133.7333 97.9160
L133.7938 98.0369
" />
<path d="M133.7938 98.0369
L133.8542 98.2788
" />
<path d="M133.8542 98.2788
L133.8542 98.4602
" />
<path d="M133.8542 98.4602
L133.7938 98.7021
" />
<path d="M133.7938 98.7021
L133.7333 98.8231
" />
<path d="M133.7333 98.8231
L133.6123 98.9441
" />
<path d="M133.6123 98.9441
L133.4309 99.0045
" />
<path d="M133.4309 99.0045
L133.1285 99.0045
" />
</g></g>
<g style="fill:none; 
stroke:#840000; stroke-width:0.2540; stroke-opacity:1; 
stroke-linecap:round; stroke-linejoin:round;">
<rect x="139.065000" y="95.885000" width="5.080000" height="2.540000" rx="0.000000" />
<path style="fill:none; 
stroke:#840000; stroke-width:0.2540; stroke-opacity:1; 
stroke-linecap:round; stroke-linejoin:round;fill:none"
d="M 140.3350,95.8850
142.8750,98.4250
" /> 
</g>
<g style="fill:none; 
stroke:#840000; stroke-width:0.1524; stroke-opacity:1; 
stroke-linecap:round; stroke-linejoin:round;">
<path d="M141.6050 95.8850
L141.6050 93.3450
" />
<path d="M141.6050 98.4250
L141.6050 100.9650
" />
</g>
<g style="fill:none; 
stroke:#006464; stroke-width:0.1524; stroke-opacity:1; 
stroke-linecap:round; stroke-linejoin:round;">
<text x="146.6450" y="96.5200"
textLength="2.4408" font-size="1.6933" lengthAdjust="spacingAndGlyphs"
text-anchor="middle" opacity="0">L2</text>
<g class="stroked-text"><desc>L2</desc>
<path d="M146.4333 96.4645
L145.8285 96.4645
" />
<path d="M145.8285 96.4645
L145.8285 95.1945
" />
<path d="M146.7962 95.3155
L146.8566 95.2550
" />
<path d="M146.8566 95.2550
L146.9776 95.1945
" />
<path d="M146.9776 95.1945
L147.2800 95.1945
" />
<path d="M147.2800 95.1945
L147.4009 95.2550
" />
<path d="M147.4009 95.2550
L147.4614 95.3155
" />
<path d="M147.4614 95.3155
L147.5219 95.4364
" />
<path d="M147.5219 95.4364
L147.5219 95.5574
" />
<path d="M147.5219 95.5574
L147.4614 95.7388
" />
<path d="M147.4614 95.7388
L146.7357 96.4645
" />
<path d="M146.7357 96.4645
L147.5219 96.4645
" />
</g><text x="146.0402" y="99.0600"
textLength="1.2313" font-size="1.6933" lengthAdjust="spacingAndGlyphs"
text-anchor="middle" opacity="0">L</text>
<g class="stroked-text"><desc>L</desc>
<path d="M146.4333 99.0045
L145.8285 99.0045
" />
<path d="M145.8285 99.0045
L145.8285 97.7345
" />
</g><path style="fill:none; 
stroke:#840000; stroke-width:0.1524; stroke-opacity:1; 
stroke-linecap:round; stroke-linejoin:round;fill:none"
d="M 135.1280,86.3600
135.8900,85.0900
" /> 
<path style="fill:none; 
stroke:#840000; stroke-width:0.1524; stroke-opacity:1; 
stroke-linecap:round; stroke-linejoin:round;fill:none"
d="M 135.8900,87.6300
135.8900,85.0900
" /> 
<path style="fill:none; 
stroke:#840000; stroke-width:0.1524; stroke-opacity:1; 
stroke-linecap:round; stroke-linejoin:round;fill:none"
d="M 135.8900,85.0900
136.6520,86.3600
" /> 
</g>
<g style="fill:none; 
stroke:#006464; stroke-width:0.1524; stroke-opacity:1; 
stroke-linecap:round; stroke-linejoin:round;">
<text x="135.8900" y="83.1850"
textLength="3.8318" font-size="1.6933" lengthAdjust="spacingAndGlyphs"
text-anchor="middle" opacity="0">VCC</text>
<g class="stroked-text"><desc>VCC</desc>
<path d="M134.1966 81.8595
L134.6199 83.1295
" />
<path d="M134.6199 83.1295
L135.0433 81.8595
" />
<path d="M136.1923 83.0086
L136.1319 83.0691
" />
<path d="M136.1319 83.0691
L135.9504 83.1295
" />
<path d="M135.9504 83.1295
L135.8295 83.1295
" />
<path d="M135.8295 83.1295
L135.6481 83.0691
" />
<path d="M135.6481 83.0691
L135.5271 82.9481
" />
<path d="M135.5271 82.9481
L135.4666 82.8271
" />
<path d="M135.4666 82.8271
L135.4062 82.5852
" />
<path d="M135.4062 82.5852
L135.4062 82.4038
" />
<path d="M135.4062 82.4038
L135.4666 82.1619
" />
<path d="M135.4666 82.1619
L135.5271 82.0410
" />
<path d="M135.5271 82.0410
L135.6481 81.9200
" />
<path d="M135.6481 81.9200
L135.8295 81.8595
" />
<path d="M135.8295 81.8595
L135.9504 81.8595
" />
<path d="M135.9504 81.8595
L136.1319 81.9200
" />
<path d="M136.1319 81.9200
L136.1923 81.9805
" />
<path d="M137.4623 83.0086
L137.4019 83.0691
" />
<path d="M137.4019 83.0691
L137.2204 83.1295
" />
<path d="M137.2204 83.1295
L137.0995 83.1295
" />
<path d="M137.0995 83.1295
L136.9181 83.0691
" />
<path d="M136.9181 83.0691
L136.7971 82.9481
" />
<path d="M136.7971 82.9481
L136.7366 82.8271
" />
<path d="M136.7366 82.8271
L136.6762 82.5852
" />
<path d="M136.6762 82.5852
L136.6762 82.4038
" />
<path d="M136.6762 82.4038
L136.7366 82.1619
" />
<path d="M136.7366 82.1619
L136.7971 82.0410
" />
<path d="M136.7971 82.0410
L136.9181 81.9200
" />
<path d="M136.9181 81.9200
L137.0995 81.8595
" />
<path d="M137.0995 81.8595
L137.2204 81.8595
" />
<path d="M137.2204 81.8595
L137.4019 81.9200
" />
<path d="M137.4019 81.9200
L137.4623 81.9805
" />
</g><path style="fill:none; 
stroke:#840000; stroke-width:0.1524; stroke-opacity:1; 
stroke-linecap:round; stroke-linejoin:round;fill:none"
d="M 107.8230,86.3600
108.5850,85.0900
" /> 
<path style="fill:none; 
stroke:#840000; stroke-width:0.1524; stroke-opacity:1; 
stroke-linecap:round; stroke-linejoin:round;fill:none"
d="M 108.5850,87.6300
108.5850,85.0900
" /> 
<path style="fill:none; 
stroke:#840000; stroke-width:0.1524; stroke-opacity:1; 
stroke-linecap:round; stroke-linejoin:round;fill:none"
d="M 108.5850,85.0900
109.3470,86.3600
" /> 
</g>
<g style="fill:none; 
stroke:#006464; stroke-width:0.1524; stroke-opacity:1; 
stroke-linecap:round; stroke-linejoin:round;">
<text x="108.5850" y="83.1850"
textLength="3.8318" font-size="1.6933" lengthAdjust="spacingAndGlyphs"
text-anchor="middle" opacity="0">VCC</text>
<g class="stroked-text"><desc>VCC</desc>
<path d="M106.8916 81.8595
L107.3149 83.1295
" />
<path d="M107.3149 83.1295
L107.7383 81.8595
" />
<path d="M108.8873 83.0086
L108.8269 83.0691
" />
<path d="M108.8269 83.0691
L108.6454 83.1295
" />
<path d="M108.6454 83.1295
L108.5245 83.1295
" />
<path d="M108.5245 83.1295
L108.3431 83.0691
" />
<path d="M108.3431 83.0691
L108.2221 82.9481
" />
<path d="M108.2221 82.9481
L108.1616 82.8271
" />
<path d="M108.1616 82.8271
L108.1012 82.5852
" />
<path d="M108.1012 82.5852
L108.1012 82.4038
" />
<path d="M108.1012 82.4038
L108.1616 82.1619
" />
<path d="M108.1616 82.1619
L108.2221 82.0410
" />
<path d="M108.2221 82.0410
L108.3431 81.9200
" />
<path d="M108.3431 81.9200
L108.5245 81.8595
" />
<path d="M108.5245 81.8595
L108.6454 81.8595
" />
<path d="M108.6454 81.8595
L108.8269 81.9200
" />
<path d="M108.8269 81.9200
L108.8873 81.9805
" />
<path d="M110.1573 83.0086
L110.0969 83.0691
" />
<path d="M110.0969 83.0691
L109.9154 83.1295
" />
<path d="M109.9154 83.1295
L109.7945 83.1295
" />
<path d="M109.7945 83.1295
L109.6131 83.0691
" />
<path d="M109.6131 83.0691
L109.4921 82.9481
" />
<path d="M109.4921 82.9481
L109.4316 82.8271
" />
<path d="M109.4316 82.8271
L109.3712 82.5852
" />
<path d="M109.3712 82.5852
L109.3712 82.4038
" />
<path d="M109.3712 82.4038
L109.4316 82.1619
" />
<path d="M109.4316 82.1619
L109.4921 82.0410
" />
<path d="M109.4921 82.0410
L109.6131 81.9200
" />
<path d="M109.6131 81.9200
L109.7945 81.8595
" />
<path d="M109.7945 81.8595
L109.9154 81.8595
" />
<path d="M109.9154 81.8595
L110.0969 81.9200
" />
<path d="M110.0969 81.9200
L110.1573 81.9805
" />
</g><path style="fill:none; 
stroke:#840000; stroke-width:0.2540; stroke-opacity:1; 
stroke-linecap:round; stroke-linejoin:round;fill:none"
d="M 103.5050,95.8850
100.9650,95.8850
" /> 
<path style="fill:none; 
stroke:#840000; stroke-width:0.1524; stroke-opacity:1; 
stroke-linecap:round; stroke-linejoin:round;fill:none"
d="M 102.2350,98.4250
102.2350,95.8850
" /> 
<path style="fill:none; 
stroke:#840000; stroke-width:0.2540; stroke-opacity:1; 
stroke-linecap:round; stroke-linejoin:round;fill:none"
d="M 103.5050,98.4250
100.9650,98.4250
102.2350,95.8850
Z" /> 
</g>
<g style="fill:none; 
stroke:#840000; stroke-width:0.1524; stroke-opacity:1; 
stroke-linecap:round; stroke-linejoin:round;">
<path d="M102.2350 95.8850
L102.2350 93.3450
" />
<path d="M102.2350 98.4250
L102.2350 100.9650
" />
</g>
<g style="fill:none; 
stroke:#006464; stroke-width:0.1524; stroke-opacity:1; 
stroke-linecap:round; stroke-linejoin:round;">
<text x="106.7609" y="96.5200"
textLength="2.6827" font-size="1.6933" lengthAdjust="spacingAndGlyphs"
text-anchor="middle" opacity="0">D9</text>
<g class="stroked-text"><desc>D9</desc>
<path d="M105.8235 96.4645
L105.8235 95.1945
" />
<path d="M105.8235 95.1945
L106.1259 95.1945
" />
<path d="M106.1259 95.1945
L106.3073 95.2550
" />
<path d="M106.3073 95.2550
L106.4283 95.3760
" />
<path d="M106.4283 95.3760
L106.4888 95.4969
" />
<path d="M106.4888 95.4969
L106.5492 95.7388
" />
<path d="M106.5492 95.7388
L106.5492 95.9202
" />
<path d="M106.5492 95.9202
L106.4888 96.1621
" />
<path d="M106.4888 96.1621
L106.4283 96.2831
" />
<path d="M106.4283 96.2831
L106.3073 96.4041
" />
<path d="M106.3073 96.4041
L106.1259 96.4645
" />
<path d="M106.1259 96.4645
L105.8235 96.4645
" />
<path d="M107.1540 96.4645
L107.3959 96.4645
" />
<path d="M107.3959 96.4645
L107.5169 96.4041
" />
<path d="M107.5169 96.4041
L107.5773 96.3436
" />
<path d="M107.5773 96.3436
L107.6983 96.1621
" />
<path d="M107.6983 96.1621
L107.7588 95.9202
" />
<path d="M107.7588 95.9202
L107.7588 95.4364
" />
<path d="M107.7588 95.4364
L107.6983 95.3155
" />
<path d="M107.6983 95.3155
L107.6378 95.2550
" />
<path d="M107.6378 95.2550
L107.5169 95.1945
" />
<path d="M107.5169 95.1945
L107.2750 95.1945
" />
<path d="M107.2750 95.1945
L107.1540 95.2550
" />
<path d="M107.1540 95.2550
L107.0935 95.3155
" />
<path d="M107.0935 95.3155
L107.0331 95.4364
" />
<path d="M107.0331 95.4364
L107.0331 95.7388
" />
<path d="M107.0331 95.7388
L107.0935 95.8598
" />
<path d="M107.0935 95.8598
L107.1540 95.9202
" />
<path d="M107.1540 95.9202
L107.2750 95.9807
" />
<path d="M107.2750 95.9807
L107.5169 95.9807
" />
<path d="M107.5169 95.9807
L107.6378 95.9202
" />
<path d="M107.6378 95.9202
L107.6983 95.8598
" />
<path d="M107.6983 95.8598
L107.7588 95.7388
" />
</g><text x="106.1562" y="99.0600"
textLength="1.4732" font-size="1.6933" lengthAdjust="spacingAndGlyphs"
text-anchor="middle" opacity="0">D</text>
<g class="stroked-text"><desc>D</desc>
<path d="M105.8235 99.0045
L105.8235 97.7345
" />
<path d="M105.8235 97.7345
L106.1259 97.7345
" />
<path d="M106.1259 97.7345
L106.3073 97.7950
" />
<path d="M106.3073 97.7950
L106.4283 97.9160
" />
<path d="M106.4283 97.9160
L106.4888 98.0369
" />
<path d="M106.4888 98.0369
L106.5492 98.2788
" />
<path d="M106.5492 98.2788
L106.5492 98.4602
" />
<path d="M106.5492 98.4602
L106.4888 98.7021
" />
<path d="M106.4888 98.7021
L106.4283 98.8231
" />
<path d="M106.4283 98.8231
L106.3073 98.9441
" />
<path d="M106.3073 98.9441
L106.1259 99.0045
" />
<path d="M106.1259 99.0045
L105.8235 99.0045
" />
</g></g>
<g style="fill:none; 
stroke:#840000; stroke-width:0.2540; stroke-opacity:1; 
stroke-linecap:round; stroke-linejoin:round;">
<rect x="111.760000" y="95.885000" width="5.080000" height="2.540000" rx="0.000000" />
<path style="fill:none; 
stroke:#840000; stroke-width:0.2540; stroke-opacity:1; 
stroke-linecap:round; stroke-linejoin:round;fill:none"
d="M 113.0300,95.8850
115.5700,98.4250
" /> 
</g>
<g style="fill:none; 
stroke:#840000; stroke-width:0.1524; stroke-opacity:1; 
stroke-linecap:round; stroke-linejoin:round;">
<path d="M114.3000 95.8850
L114.3000 93.3450
" />
<path d="M114.3000 98.4250
L114.3000 100.9650
" />
</g>
<g style="fill:none; 
stroke:#006464; stroke-width:0.1524; stroke-opacity:1; 
stroke-linecap:round; stroke-linejoin:round;">
<text x="119.3400" y="96.5200"
textLength="2.4408" font-size="1.6933" lengthAdjust="spacingAndGlyphs"
text-anchor="middle" opacity="0">L1</text>
<g class="stroked-text"><desc>L1</desc>
<path d="M119.1283 96.4645
L118.5235 96.4645
" />
<path d="M118.5235 96.4645
L118.5235 95.1945
" />
<path d="M120.2169 96.4645
L119.4912 96.4645
" />
<path d="M119.8540 96.4645
L119.8540 95.1945
" />
<path d="M119.8540 95.1945
L119.7331 95.3760
" />
<path d="M119.7331 95.3760
L119.6121 95.4969
" />
<path d="M119.6121 95.4969
L119.4912 95.5574
" />
</g><text x="118.7352" y="99.0600"
textLength="1.2313" font-size="1.6933" lengthAdjust="spacingAndGlyphs"
text-anchor="middle" opacity="0">L</text>
<g class="stroked-text"><desc>L</desc>
<path d="M119.1283 99.0045
L118.5235 99.0045
" />
<path d="M118.5235 99.0045
L118.5235 97.7345
" />
</g><path style="fill:none; 
stroke:#840000; stroke-width:0.1524; stroke-opacity:1; 
stroke-linecap:round; stroke-linejoin:round;fill:none"
d="M 108.5850,124.4600
108.5850,125.7300
109.8550,125.7300
108.5850,127.0000
107.3150,125.7300
108.5850,125.7300
" /> 
</g>
<g style="fill:none; 
stroke:#006464; stroke-width:0.1524; stroke-opacity:1; 
stroke-linecap:round; stroke-linejoin:round;">
<text x="108.5850" y="129.5400"
textLength="4.0737" font-size="1.6933" lengthAdjust="spacingAndGlyphs"
text-anchor="middle" opacity="0">GND</text>
<g class="stroked-text"><desc>GND</desc>
<path d="M107.6174 128.2750
L107.4964 128.2145
" />
<path d="M107.4964 128.2145
L107.3150 128.2145
" />
<path d="M107.3150 128.2145
L107.1336 128.2750
" />
<path d="M107.1336 128.2750
L107.0126 128.3960
" />
<path d="M107.0126 128.3960
L106.9521 128.5169
" />
<path d="M106.9521 128.5169
L106.8917 128.7588
" />
<path d="M106.8917 128.7588
L106.8917 128.9402
" />
<path d="M106.8917 128.9402
L106.9521 129.1821
" />
<path d="M106.9521 129.1821
L107.0126 129.3031
" />
<path d="M107.0126 129.3031
L107.1336 129.4241
" />
<path d="M107.1336 129.4241
L107.3150 129.4845
" />
<path d="M107.3150 129.4845
L107.4359 129.4845
" />
<path d="M107.4359 129.4845
L107.6174 129.4241
" />
<path d="M107.6174 129.4241
L107.6778 129.3636
" />
<path d="M107.6778 129.3636
L107.6778 128.9402
" />
<path d="M107.6778 128.9402
L107.4359 128.9402
" />
<path d="M108.2221 129.4845
L108.2221 128.2145
" />
<path d="M108.2221 128.2145
L108.9478 129.4845
" />
<path d="M108.9478 129.4845
L108.9478 128.2145
" />
<path d="M109.5526 129.4845
L109.5526 128.2145
" />
<path d="M109.5526 128.2145
L109.8550 128.2145
" />
<path d="M109.8550 128.2145
L110.0364 128.2750
" />
<path d="M110.0364 128.2750
L110.1574 128.3960
" />
<path d="M110.1574 128.3960
L110.2179 128.5169
" />
<path d="M110.2179 128.5169
L110.2783 128.7588
" />
<path d="M110.2783 128.7588
L110.2783 128.9402
" />
<path d="M110.2783 128.9402
L110.2179 129.1821
" />
<path d="M110.2179 129.1821
L110.1574 129.3031
" />
<path d="M110.1574 129.3031
L110.0364 129.4241
" />
<path d="M110.0364 129.4241
L109.8550 129.4845
" />
<path d="M109.8550 129.4845
L109.5526 129.4845
" />
</g></g>
<g style="fill:none; 
stroke:#009600; stroke-width:0.1524; stroke-opacity:1; 
stroke-linecap:round; stroke-linejoin:round;">
<path d="M101.6000 121.2850
L108.5850 121.2850
" />
<path d="M101.6000 111.1250
L108.5850 111.1250
" />
<path d="M108.5850 111.1250
L108.5850 103.5050
" />
<path d="M102.2350 100.9650
L102.2350 103.5050
" />
<path d="M108.5850 121.2850
L108.5850 124.4600
" />
<path d="M108.5850 87.6300
L108.5850 90.1700
" />
<path d="M102.2350 93.3450
L102.2350 90.1700
" />
<path d="M108.5850 90.1700
L114.3000 90.1700
" />
<path d="M102.2350 90.1700
L108.5850 90.1700
" />
<path d="M114.3000 90.1700
L114.3000 93.3450
" />
<path d="M141.6050 103.5050
L141.6050 100.9650
" />
<path d="M135.8900 103.5050
L141.6050 103.5050
" />
<path d="M114.3000 103.5050
L114.3000 100.9650
" />
<path d="M129.5400 103.5050
L135.8900 103.5050
" />
<path d="M129.5400 100.9650
L129.5400 103.5050
" />
<path d="M135.8900 90.1700
L141.6050 90.1700
" />
<path d="M141.6050 90.1700
L141.6050 93.3450
" />
<path d="M135.8900 87.6300
L135.8900 90.1700
" />
<path d="M129.5400 93.3450
L129.5400 90.1700
" />
<path d="M129.5400 90.1700
L135.8900 90.1700
" />
<path d="M101.6000 113.6650
L135.8900 113.6650
" />
<path d="M135.8900 113.6650
L135.8900 103.5050
" />
</g>
<g style="fill:none; 
stroke:#009600; stroke-width:0.1524; stroke-opacity:1; 
stroke-linecap:round; stroke-linejoin:round;stroke-dasharray:1.6764,0.6096;">
<path d="M101.6000 118.7450
L147.3200 118.7450
" />
</g>
<g style="fill:none; 
stroke:#009600; stroke-width:0.1524; stroke-opacity:1; 
stroke-linecap:round; stroke-linejoin:round;stroke-dasharray:1.6764,0.6096;">
<path d="M101.6000 116.2050
L147.3200 116.2050
" />
</g>
<g style="fill:none; 
stroke:#009600; stroke-width:0.1524; stroke-opacity:1; 
stroke-linecap:round; stroke-linejoin:round;">
<path d="M102.2350 103.5050
L108.5850 103.5050
" />
<path d="M108.5850 103.5050
L114.3000 103.5050
" />
</g>
<g style="fill:#009600; fill-opacity:1.0000; 
stroke:#009600; stroke-width:0.1524; stroke-opacity:1; 
stroke-linecap:round; stroke-linejoin:round;">
<circle cx="108.5850" cy="103.5050" r="0.4572" /> 
<circle cx="135.8900" cy="103.5050" r="0.4572" /> 
<circle cx="135.8900" cy="90.1700" r="0.4572" /> 
<circle cx="108.5850" cy="90.1700" r="0.4572" /> 
</g> 
</svg>
