<?xml version="1.0" standalone="no"?>
 <!DOCTYPE svg PUBLIC "-//W3C//DTD SVG 1.1//EN" 
 "http://www.w3.org/Graphics/SVG/1.1/DTD/svg11.dtd"> 
<svg
  xmlns:svg="http://www.w3.org/2000/svg"
  xmlns="http://www.w3.org/2000/svg"
  xmlns:xlink="http://www.w3.org/1999/xlink"
  version="1.1"
  width="297.0022mm" height="210.0072mm" viewBox="0.0000 0.0000 297.0022 210.0072">
<title>SVG Image created as sample-driver-interface-sample1.svg date 2025/05/03 21:03:35 </title>
  <desc>Image generated by Eeschema-SVG </desc>
<g style="fill:#000000; fill-opacity:1.0000;stroke:#000000; stroke-opacity:1.0000;
stroke-linecap:round; stroke-linejoin:round;"
 transform="translate(0 0) scale(1 1)">
<path style="fill:none; 
stroke:#840000; stroke-width:0.2540; stroke-opacity:1; 
stroke-linecap:round; stroke-linejoin:round;fill:none"
d="M 137.7950,95.2500
135.2550,95.2500
" /> 
<path style="fill:none; 
stroke:#840000; stroke-width:0.1524; stroke-opacity:1; 
stroke-linecap:round; stroke-linejoin:round;fill:none"
d="M 136.5250,95.2500
136.5250,92.7100
" /> 
<path style="fill:none; 
stroke:#840000; stroke-width:0.2540; stroke-opacity:1; 
stroke-linecap:round; stroke-linejoin:round;fill:none"
d="M 137.7950,92.7100
135.2550,92.7100
136.5250,95.2500
Z" /> 
<path style="fill:none; 
stroke:#840000; stroke-width:0.1524; stroke-opacity:1; 
stroke-linecap:round; stroke-linejoin:round;fill:none"
d="M 137.2870,97.0280
138.8110,98.5520
138.8110,97.7900
138.8110,98.5520
138.0490,98.5520
" /> 
<path style="fill:none; 
stroke:#840000; stroke-width:0.1524; stroke-opacity:1; 
stroke-linecap:round; stroke-linejoin:round;fill:none"
d="M 137.2870,95.7580
138.8110,97.2820
138.8110,96.5200
138.8110,97.2820
138.0490,97.2820
" /> 
</g>
<g style="fill:none; 
stroke:#840000; stroke-width:0.1524; stroke-opacity:1; 
stroke-linecap:round; stroke-linejoin:round;">
<path d="M136.5250 95.2500
L136.5250 97.7900
" />
<path d="M136.5250 92.7100
L136.5250 90.1700
" />
</g>
<g style="fill:none; 
stroke:#006464; stroke-width:0.1524; stroke-opacity:1; 
stroke-linecap:round; stroke-linejoin:round;">
<text x="141.0509" y="94.9324"
textLength="2.6827" font-size="1.6933" lengthAdjust="spacingAndGlyphs"
text-anchor="middle" opacity="0">D5</text>
<g class="stroked-text"><desc>D5</desc>
<path d="M140.1135 94.8769
L140.1135 93.6069
" />
<path d="M140.1135 93.6069
L140.4159 93.6069
" />
<path d="M140.4159 93.6069
L140.5973 93.6674
" />
<path d="M140.5973 93.6674
L140.7183 93.7884
" />
<path d="M140.7183 93.7884
L140.7788 93.9093
" />
<path d="M140.7788 93.9093
L140.8392 94.1512
" />
<path d="M140.8392 94.1512
L140.8392 94.3326
" />
<path d="M140.8392 94.3326
L140.7788 94.5745
" />
<path d="M140.7788 94.5745
L140.7183 94.6955
" />
<path d="M140.7183 94.6955
L140.5973 94.8165
" />
<path d="M140.5973 94.8165
L140.4159 94.8769
" />
<path d="M140.4159 94.8769
L140.1135 94.8769
" />
<path d="M141.9883 93.6069
L141.3835 93.6069
" />
<path d="M141.3835 93.6069
L141.3231 94.2117
" />
<path d="M141.3231 94.2117
L141.3835 94.1512
" />
<path d="M141.3835 94.1512
L141.5045 94.0907
" />
<path d="M141.5045 94.0907
L141.8069 94.0907
" />
<path d="M141.8069 94.0907
L141.9278 94.1512
" />
<path d="M141.9278 94.1512
L141.9883 94.2117
" />
<path d="M141.9883 94.2117
L142.0488 94.3326
" />
<path d="M142.0488 94.3326
L142.0488 94.6350
" />
<path d="M142.0488 94.6350
L141.9883 94.7560
" />
<path d="M141.9883 94.7560
L141.9278 94.8165
" />
<path d="M141.9278 94.8165
L141.8069 94.8769
" />
<path d="M141.8069 94.8769
L141.5045 94.8769
" />
<path d="M141.5045 94.8769
L141.3835 94.8165
" />
<path d="M141.3835 94.8165
L141.3231 94.7560
" />
</g><text x="141.5347" y="97.4724"
textLength="3.6503" font-size="1.6933" lengthAdjust="spacingAndGlyphs"
text-anchor="middle" opacity="0">LED</text>
<g class="stroked-text"><desc>LED</desc>
<path d="M140.7183 97.4169
L140.1135 97.4169
" />
<path d="M140.1135 97.4169
L140.1135 96.1469
" />
<path d="M141.1416 96.7517
L141.5650 96.7517
" />
<path d="M141.7464 97.4169
L141.1416 97.4169
" />
<path d="M141.1416 97.4169
L141.1416 96.1469
" />
<path d="M141.1416 96.1469
L141.7464 96.1469
" />
<path d="M142.2906 97.4169
L142.2906 96.1469
" />
<path d="M142.2906 96.1469
L142.5930 96.1469
" />
<path d="M142.5930 96.1469
L142.7744 96.2074
" />
<path d="M142.7744 96.2074
L142.8954 96.3284
" />
<path d="M142.8954 96.3284
L142.9559 96.4493
" />
<path d="M142.9559 96.4493
L143.0163 96.6912
" />
<path d="M143.0163 96.6912
L143.0163 96.8726
" />
<path d="M143.0163 96.8726
L142.9559 97.1145
" />
<path d="M142.9559 97.1145
L142.8954 97.2355
" />
<path d="M142.8954 97.2355
L142.7744 97.3565
" />
<path d="M142.7744 97.3565
L142.5930 97.4169
" />
<path d="M142.5930 97.4169
L142.2906 97.4169
" />
</g><path style="fill:none; 
stroke:#840000; stroke-width:0.2540; stroke-opacity:1; 
stroke-linecap:round; stroke-linejoin:round;fill:none"
d="M 175.8950,95.2500
173.3550,95.2500
" /> 
<path style="fill:none; 
stroke:#840000; stroke-width:0.1524; stroke-opacity:1; 
stroke-linecap:round; stroke-linejoin:round;fill:none"
d="M 174.6250,95.2500
174.6250,92.7100
" /> 
<path style="fill:none; 
stroke:#840000; stroke-width:0.2540; stroke-opacity:1; 
stroke-linecap:round; stroke-linejoin:round;fill:none"
d="M 175.8950,92.7100
173.3550,92.7100
174.6250,95.2500
Z" /> 
<path style="fill:none; 
stroke:#840000; stroke-width:0.1524; stroke-opacity:1; 
stroke-linecap:round; stroke-linejoin:round;fill:none"
d="M 175.3870,97.0280
176.9110,98.5520
176.9110,97.7900
176.9110,98.5520
176.1490,98.5520
" /> 
<path style="fill:none; 
stroke:#840000; stroke-width:0.1524; stroke-opacity:1; 
stroke-linecap:round; stroke-linejoin:round;fill:none"
d="M 175.3870,95.7580
176.9110,97.2820
176.9110,96.5200
176.9110,97.2820
176.1490,97.2820
" /> 
</g>
<g style="fill:none; 
stroke:#840000; stroke-width:0.1524; stroke-opacity:1; 
stroke-linecap:round; stroke-linejoin:round;">
<path d="M174.6250 95.2500
L174.6250 97.7900
" />
<path d="M174.6250 92.7100
L174.6250 90.1700
" />
</g>
<g style="fill:none; 
stroke:#006464; stroke-width:0.1524; stroke-opacity:1; 
stroke-linecap:round; stroke-linejoin:round;">
<text x="179.1509" y="94.9324"
textLength="2.6827" font-size="1.6933" lengthAdjust="spacingAndGlyphs"
text-anchor="middle" opacity="0">D8</text>
<g class="stroked-text"><desc>D8</desc>
<path d="M178.2135 94.8769
L178.2135 93.6069
" />
<path d="M178.2135 93.6069
L178.5159 93.6069
" />
<path d="M178.5159 93.6069
L178.6973 93.6674
" />
<path d="M178.6973 93.6674
L178.8183 93.7884
" />
<path d="M178.8183 93.7884
L178.8788 93.9093
" />
<path d="M178.8788 93.9093
L178.9392 94.1512
" />
<path d="M178.9392 94.1512
L178.9392 94.3326
" />
<path d="M178.9392 94.3326
L178.8788 94.5745
" />
<path d="M178.8788 94.5745
L178.8183 94.6955
" />
<path d="M178.8183 94.6955
L178.6973 94.8165
" />
<path d="M178.6973 94.8165
L178.5159 94.8769
" />
<path d="M178.5159 94.8769
L178.2135 94.8769
" />
<path d="M179.6650 94.1512
L179.5440 94.0907
" />
<path d="M179.5440 94.0907
L179.4835 94.0303
" />
<path d="M179.4835 94.0303
L179.4231 93.9093
" />
<path d="M179.4231 93.9093
L179.4231 93.8488
" />
<path d="M179.4231 93.8488
L179.4835 93.7279
" />
<path d="M179.4835 93.7279
L179.5440 93.6674
" />
<path d="M179.5440 93.6674
L179.6650 93.6069
" />
<path d="M179.6650 93.6069
L179.9069 93.6069
" />
<path d="M179.9069 93.6069
L180.0278 93.6674
" />
<path d="M180.0278 93.6674
L180.0883 93.7279
" />
<path d="M180.0883 93.7279
L180.1488 93.8488
" />
<path d="M180.1488 93.8488
L180.1488 93.9093
" />
<path d="M180.1488 93.9093
L180.0883 94.0303
" />
<path d="M180.0883 94.0303
L180.0278 94.0907
" />
<path d="M180.0278 94.0907
L179.9069 94.1512
" />
<path d="M179.9069 94.1512
L179.6650 94.1512
" />
<path d="M179.6650 94.1512
L179.5440 94.2117
" />
<path d="M179.5440 94.2117
L179.4835 94.2722
" />
<path d="M179.4835 94.2722
L179.4231 94.3931
" />
<path d="M179.4231 94.3931
L179.4231 94.6350
" />
<path d="M179.4231 94.6350
L179.4835 94.7560
" />
<path d="M179.4835 94.7560
L179.5440 94.8165
" />
<path d="M179.5440 94.8165
L179.6650 94.8769
" />
<path d="M179.6650 94.8769
L179.9069 94.8769
" />
<path d="M179.9069 94.8769
L180.0278 94.8165
" />
<path d="M180.0278 94.8165
L180.0883 94.7560
" />
<path d="M180.0883 94.7560
L180.1488 94.6350
" />
<path d="M180.1488 94.6350
L180.1488 94.3931
" />
<path d="M180.1488 94.3931
L180.0883 94.2722
" />
<path d="M180.0883 94.2722
L180.0278 94.2117
" />
<path d="M180.0278 94.2117
L179.9069 94.1512
" />
</g><text x="179.6347" y="97.4724"
textLength="3.6503" font-size="1.6933" lengthAdjust="spacingAndGlyphs"
text-anchor="middle" opacity="0">LED</text>
<g class="stroked-text"><desc>LED</desc>
<path d="M178.8183 97.4169
L178.2135 97.4169
" />
<path d="M178.2135 97.4169
L178.2135 96.1469
" />
<path d="M179.2416 96.7517
L179.6650 96.7517
" />
<path d="M179.8464 97.4169
L179.2416 97.4169
" />
<path d="M179.2416 97.4169
L179.2416 96.1469
" />
<path d="M179.2416 96.1469
L179.8464 96.1469
" />
<path d="M180.3906 97.4169
L180.3906 96.1469
" />
<path d="M180.3906 96.1469
L180.6930 96.1469
" />
<path d="M180.6930 96.1469
L180.8744 96.2074
" />
<path d="M180.8744 96.2074
L180.9954 96.3284
" />
<path d="M180.9954 96.3284
L181.0559 96.4493
" />
<path d="M181.0559 96.4493
L181.1163 96.6912
" />
<path d="M181.1163 96.6912
L181.1163 96.8726
" />
<path d="M181.1163 96.8726
L181.0559 97.1145
" />
<path d="M181.0559 97.1145
L180.9954 97.2355
" />
<path d="M180.9954 97.2355
L180.8744 97.3565
" />
<path d="M180.8744 97.3565
L180.6930 97.4169
" />
<path d="M180.6930 97.4169
L180.3906 97.4169
" />
</g><path style="fill:none; 
stroke:#840000; stroke-width:0.2540; stroke-opacity:1; 
stroke-linecap:round; stroke-linejoin:round;fill:none"
d="M 163.1950,106.0450
160.6550,106.0450
" /> 
<path style="fill:none; 
stroke:#840000; stroke-width:0.1524; stroke-opacity:1; 
stroke-linecap:round; stroke-linejoin:round;fill:none"
d="M 161.9250,106.0450
161.9250,103.5050
" /> 
<path style="fill:none; 
stroke:#840000; stroke-width:0.2540; stroke-opacity:1; 
stroke-linecap:round; stroke-linejoin:round;fill:none"
d="M 163.1950,103.5050
160.6550,103.5050
161.9250,106.0450
Z" /> 
<path style="fill:none; 
stroke:#840000; stroke-width:0.1524; stroke-opacity:1; 
stroke-linecap:round; stroke-linejoin:round;fill:none"
d="M 162.6870,107.8230
164.2110,109.3470
164.2110,108.5850
164.2110,109.3470
163.4490,109.3470
" /> 
<path style="fill:none; 
stroke:#840000; stroke-width:0.1524; stroke-opacity:1; 
stroke-linecap:round; stroke-linejoin:round;fill:none"
d="M 162.6870,106.5530
164.2110,108.0770
164.2110,107.3150
164.2110,108.0770
163.4490,108.0770
" /> 
</g>
<g style="fill:none; 
stroke:#840000; stroke-width:0.1524; stroke-opacity:1; 
stroke-linecap:round; stroke-linejoin:round;">
<path d="M161.9250 106.0450
L161.9250 108.5850
" />
<path d="M161.9250 103.5050
L161.9250 100.9650
" />
</g>
<g style="fill:none; 
stroke:#006464; stroke-width:0.1524; stroke-opacity:1; 
stroke-linecap:round; stroke-linejoin:round;">
<text x="166.4509" y="105.7274"
textLength="2.6827" font-size="1.6933" lengthAdjust="spacingAndGlyphs"
text-anchor="middle" opacity="0">D3</text>
<g class="stroked-text"><desc>D3</desc>
<path d="M165.5135 105.6719
L165.5135 104.4019
" />
<path d="M165.5135 104.4019
L165.8159 104.4019
" />
<path d="M165.8159 104.4019
L165.9973 104.4624
" />
<path d="M165.9973 104.4624
L166.1183 104.5834
" />
<path d="M166.1183 104.5834
L166.1788 104.7043
" />
<path d="M166.1788 104.7043
L166.2392 104.9462
" />
<path d="M166.2392 104.9462
L166.2392 105.1276
" />
<path d="M166.2392 105.1276
L166.1788 105.3695
" />
<path d="M166.1788 105.3695
L166.1183 105.4905
" />
<path d="M166.1183 105.4905
L165.9973 105.6115
" />
<path d="M165.9973 105.6115
L165.8159 105.6719
" />
<path d="M165.8159 105.6719
L165.5135 105.6719
" />
<path d="M166.6626 104.4019
L167.4488 104.4019
" />
<path d="M167.4488 104.4019
L167.0254 104.8857
" />
<path d="M167.0254 104.8857
L167.2069 104.8857
" />
<path d="M167.2069 104.8857
L167.3278 104.9462
" />
<path d="M167.3278 104.9462
L167.3883 105.0067
" />
<path d="M167.3883 105.0067
L167.4488 105.1276
" />
<path d="M167.4488 105.1276
L167.4488 105.4300
" />
<path d="M167.4488 105.4300
L167.3883 105.5510
" />
<path d="M167.3883 105.5510
L167.3278 105.6115
" />
<path d="M167.3278 105.6115
L167.2069 105.6719
" />
<path d="M167.2069 105.6719
L166.8440 105.6719
" />
<path d="M166.8440 105.6719
L166.7231 105.6115
" />
<path d="M166.7231 105.6115
L166.6626 105.5510
" />
</g><text x="166.9347" y="108.2674"
textLength="3.6503" font-size="1.6933" lengthAdjust="spacingAndGlyphs"
text-anchor="middle" opacity="0">LED</text>
<g class="stroked-text"><desc>LED</desc>
<path d="M166.1183 108.2119
L165.5135 108.2119
" />
<path d="M165.5135 108.2119
L165.5135 106.9419
" />
<path d="M166.5416 107.5467
L166.9650 107.5467
" />
<path d="M167.1464 108.2119
L166.5416 108.2119
" />
<path d="M166.5416 108.2119
L166.5416 106.9419
" />
<path d="M166.5416 106.9419
L167.1464 106.9419
" />
<path d="M167.6906 108.2119
L167.6906 106.9419
" />
<path d="M167.6906 106.9419
L167.9930 106.9419
" />
<path d="M167.9930 106.9419
L168.1744 107.0024
" />
<path d="M168.1744 107.0024
L168.2954 107.1234
" />
<path d="M168.2954 107.1234
L168.3559 107.2443
" />
<path d="M168.3559 107.2443
L168.4163 107.4862
" />
<path d="M168.4163 107.4862
L168.4163 107.6676
" />
<path d="M168.4163 107.6676
L168.3559 107.9095
" />
<path d="M168.3559 107.9095
L168.2954 108.0305
" />
<path d="M168.2954 108.0305
L168.1744 108.1515
" />
<path d="M168.1744 108.1515
L167.9930 108.2119
" />
<path d="M167.9930 108.2119
L167.6906 108.2119
" />
</g><path style="fill:none; 
stroke:#840000; stroke-width:0.2540; stroke-opacity:1; 
stroke-linecap:round; stroke-linejoin:round;fill:none"
d="M 175.8950,106.0450
173.3550,106.0450
" /> 
<path style="fill:none; 
stroke:#840000; stroke-width:0.1524; stroke-opacity:1; 
stroke-linecap:round; stroke-linejoin:round;fill:none"
d="M 174.6250,106.0450
174.6250,103.5050
" /> 
<path style="fill:none; 
stroke:#840000; stroke-width:0.2540; stroke-opacity:1; 
stroke-linecap:round; stroke-linejoin:round;fill:none"
d="M 175.8950,103.5050
173.3550,103.5050
174.6250,106.0450
Z" /> 
<path style="fill:none; 
stroke:#840000; stroke-width:0.1524; stroke-opacity:1; 
stroke-linecap:round; stroke-linejoin:round;fill:none"
d="M 175.3870,107.8230
176.9110,109.3470
176.9110,108.5850
176.9110,109.3470
176.1490,109.3470
" /> 
<path style="fill:none; 
stroke:#840000; stroke-width:0.1524; stroke-opacity:1; 
stroke-linecap:round; stroke-linejoin:round;fill:none"
d="M 175.3870,106.5530
176.9110,108.0770
176.9110,107.3150
176.9110,108.0770
176.1490,108.0770
" /> 
</g>
<g style="fill:none; 
stroke:#840000; stroke-width:0.1524; stroke-opacity:1; 
stroke-linecap:round; stroke-linejoin:round;">
<path d="M174.6250 106.0450
L174.6250 108.5850
" />
<path d="M174.6250 103.5050
L174.6250 100.9650
" />
</g>
<g style="fill:none; 
stroke:#006464; stroke-width:0.1524; stroke-opacity:1; 
stroke-linecap:round; stroke-linejoin:round;">
<text x="179.1509" y="105.7274"
textLength="2.6827" font-size="1.6933" lengthAdjust="spacingAndGlyphs"
text-anchor="middle" opacity="0">D4</text>
<g class="stroked-text"><desc>D4</desc>
<path d="M178.2135 105.6719
L178.2135 104.4019
" />
<path d="M178.2135 104.4019
L178.5159 104.4019
" />
<path d="M178.5159 104.4019
L178.6973 104.4624
" />
<path d="M178.6973 104.4624
L178.8183 104.5834
" />
<path d="M178.8183 104.5834
L178.8788 104.7043
" />
<path d="M178.8788 104.7043
L178.9392 104.9462
" />
<path d="M178.9392 104.9462
L178.9392 105.1276
" />
<path d="M178.9392 105.1276
L178.8788 105.3695
" />
<path d="M178.8788 105.3695
L178.8183 105.4905
" />
<path d="M178.8183 105.4905
L178.6973 105.6115
" />
<path d="M178.6973 105.6115
L178.5159 105.6719
" />
<path d="M178.5159 105.6719
L178.2135 105.6719
" />
<path d="M180.0278 104.8253
L180.0278 105.6719
" />
<path d="M179.7254 104.3415
L179.4231 105.2486
" />
<path d="M179.4231 105.2486
L180.2092 105.2486
" />
</g><text x="179.6347" y="108.2674"
textLength="3.6503" font-size="1.6933" lengthAdjust="spacingAndGlyphs"
text-anchor="middle" opacity="0">LED</text>
<g class="stroked-text"><desc>LED</desc>
<path d="M178.8183 108.2119
L178.2135 108.2119
" />
<path d="M178.2135 108.2119
L178.2135 106.9419
" />
<path d="M179.2416 107.5467
L179.6650 107.5467
" />
<path d="M179.8464 108.2119
L179.2416 108.2119
" />
<path d="M179.2416 108.2119
L179.2416 106.9419
" />
<path d="M179.2416 106.9419
L179.8464 106.9419
" />
<path d="M180.3906 108.2119
L180.3906 106.9419
" />
<path d="M180.3906 106.9419
L180.6930 106.9419
" />
<path d="M180.6930 106.9419
L180.8744 107.0024
" />
<path d="M180.8744 107.0024
L180.9954 107.1234
" />
<path d="M180.9954 107.1234
L181.0559 107.2443
" />
<path d="M181.0559 107.2443
L181.1163 107.4862
" />
<path d="M181.1163 107.4862
L181.1163 107.6676
" />
<path d="M181.1163 107.6676
L181.0559 107.9095
" />
<path d="M181.0559 107.9095
L180.9954 108.0305
" />
<path d="M180.9954 108.0305
L180.8744 108.1515
" />
<path d="M180.8744 108.1515
L180.6930 108.2119
" />
<path d="M180.6930 108.2119
L180.3906 108.2119
" />
</g><path style="fill:none; 
stroke:#840000; stroke-width:0.2540; stroke-opacity:1; 
stroke-linecap:round; stroke-linejoin:round;fill:none"
d="M 163.1950,95.2500
160.6550,95.2500
" /> 
<path style="fill:none; 
stroke:#840000; stroke-width:0.1524; stroke-opacity:1; 
stroke-linecap:round; stroke-linejoin:round;fill:none"
d="M 161.9250,95.2500
161.9250,92.7100
" /> 
<path style="fill:none; 
stroke:#840000; stroke-width:0.2540; stroke-opacity:1; 
stroke-linecap:round; stroke-linejoin:round;fill:none"
d="M 163.1950,92.7100
160.6550,92.7100
161.9250,95.2500
Z" /> 
<path style="fill:none; 
stroke:#840000; stroke-width:0.1524; stroke-opacity:1; 
stroke-linecap:round; stroke-linejoin:round;fill:none"
d="M 162.6870,97.0280
164.2110,98.5520
164.2110,97.7900
164.2110,98.5520
163.4490,98.5520
" /> 
<path style="fill:none; 
stroke:#840000; stroke-width:0.1524; stroke-opacity:1; 
stroke-linecap:round; stroke-linejoin:round;fill:none"
d="M 162.6870,95.7580
164.2110,97.2820
164.2110,96.5200
164.2110,97.2820
163.4490,97.2820
" /> 
</g>
<g style="fill:none; 
stroke:#840000; stroke-width:0.1524; stroke-opacity:1; 
stroke-linecap:round; stroke-linejoin:round;">
<path d="M161.9250 95.2500
L161.9250 97.7900
" />
<path d="M161.9250 92.7100
L161.9250 90.1700
" />
</g>
<g style="fill:none; 
stroke:#006464; stroke-width:0.1524; stroke-opacity:1; 
stroke-linecap:round; stroke-linejoin:round;">
<text x="166.4509" y="94.9324"
textLength="2.6827" font-size="1.6933" lengthAdjust="spacingAndGlyphs"
text-anchor="middle" opacity="0">D7</text>
<g class="stroked-text"><desc>D7</desc>
<path d="M165.5135 94.8769
L165.5135 93.6069
" />
<path d="M165.5135 93.6069
L165.8159 93.6069
" />
<path d="M165.8159 93.6069
L165.9973 93.6674
" />
<path d="M165.9973 93.6674
L166.1183 93.7884
" />
<path d="M166.1183 93.7884
L166.1788 93.9093
" />
<path d="M166.1788 93.9093
L166.2392 94.1512
" />
<path d="M166.2392 94.1512
L166.2392 94.3326
" />
<path d="M166.2392 94.3326
L166.1788 94.5745
" />
<path d="M166.1788 94.5745
L166.1183 94.6955
" />
<path d="M166.1183 94.6955
L165.9973 94.8165
" />
<path d="M165.9973 94.8165
L165.8159 94.8769
" />
<path d="M165.8159 94.8769
L165.5135 94.8769
" />
<path d="M166.6626 93.6069
L167.5092 93.6069
" />
<path d="M167.5092 93.6069
L166.9650 94.8769
" />
</g><text x="166.9347" y="97.4724"
textLength="3.6503" font-size="1.6933" lengthAdjust="spacingAndGlyphs"
text-anchor="middle" opacity="0">LED</text>
<g class="stroked-text"><desc>LED</desc>
<path d="M166.1183 97.4169
L165.5135 97.4169
" />
<path d="M165.5135 97.4169
L165.5135 96.1469
" />
<path d="M166.5416 96.7517
L166.9650 96.7517
" />
<path d="M167.1464 97.4169
L166.5416 97.4169
" />
<path d="M166.5416 97.4169
L166.5416 96.1469
" />
<path d="M166.5416 96.1469
L167.1464 96.1469
" />
<path d="M167.6906 97.4169
L167.6906 96.1469
" />
<path d="M167.6906 96.1469
L167.9930 96.1469
" />
<path d="M167.9930 96.1469
L168.1744 96.2074
" />
<path d="M168.1744 96.2074
L168.2954 96.3284
" />
<path d="M168.2954 96.3284
L168.3559 96.4493
" />
<path d="M168.3559 96.4493
L168.4163 96.6912
" />
<path d="M168.4163 96.6912
L168.4163 96.8726
" />
<path d="M168.4163 96.8726
L168.3559 97.1145
" />
<path d="M168.3559 97.1145
L168.2954 97.2355
" />
<path d="M168.2954 97.2355
L168.1744 97.3565
" />
<path d="M168.1744 97.3565
L167.9930 97.4169
" />
<path d="M167.9930 97.4169
L167.6906 97.4169
" />
</g></g>
<g style="fill:none; 
stroke:#840000; stroke-width:0.2540; stroke-opacity:1; 
stroke-linecap:round; stroke-linejoin:round;">
<rect x="148.209000" y="80.645000" width="2.032000" height="5.080000" rx="0.000000" />
</g>
<g style="fill:none; 
stroke:#840000; stroke-width:0.1524; stroke-opacity:1; 
stroke-linecap:round; stroke-linejoin:round;">
<path d="M149.2250 80.6450
L149.2250 79.3750
" />
<path d="M149.2250 85.7250
L149.2250 86.9950
" />
</g>
<g style="fill:none; 
stroke:#006464; stroke-width:0.1524; stroke-opacity:1; 
stroke-linecap:round; stroke-linejoin:round;">
<text x="152.4809" y="82.5500"
textLength="2.6827" font-size="1.6933" lengthAdjust="spacingAndGlyphs"
text-anchor="middle" opacity="0">R2</text>
<g class="stroked-text"><desc>R2</desc>
<path d="M152.2692 82.4945
L151.8459 81.8898
" />
<path d="M151.5435 82.4945
L151.5435 81.2245
" />
<path d="M151.5435 81.2245
L152.0273 81.2245
" />
<path d="M152.0273 81.2245
L152.1483 81.2850
" />
<path d="M152.1483 81.2850
L152.2088 81.3455
" />
<path d="M152.2088 81.3455
L152.2692 81.4664
" />
<path d="M152.2692 81.4664
L152.2692 81.6479
" />
<path d="M152.2692 81.6479
L152.2088 81.7688
" />
<path d="M152.2088 81.7688
L152.1483 81.8293
" />
<path d="M152.1483 81.8293
L152.0273 81.8898
" />
<path d="M152.0273 81.8898
L151.5435 81.8898
" />
<path d="M152.7531 81.3455
L152.8135 81.2850
" />
<path d="M152.8135 81.2850
L152.9345 81.2245
" />
<path d="M152.9345 81.2245
L153.2369 81.2245
" />
<path d="M153.2369 81.2245
L153.3578 81.2850
" />
<path d="M153.3578 81.2850
L153.4183 81.3455
" />
<path d="M153.4183 81.3455
L153.4788 81.4664
" />
<path d="M153.4788 81.4664
L153.4788 81.5874
" />
<path d="M153.4788 81.5874
L153.4183 81.7688
" />
<path d="M153.4183 81.7688
L152.6926 82.4945
" />
<path d="M152.6926 82.4945
L153.4788 82.4945
" />
</g><text x="151.8762" y="85.0900"
textLength="1.4732" font-size="1.6933" lengthAdjust="spacingAndGlyphs"
text-anchor="middle" opacity="0">R</text>
<g class="stroked-text"><desc>R</desc>
<path d="M152.2692 85.0345
L151.8459 84.4298
" />
<path d="M151.5435 85.0345
L151.5435 83.7645
" />
<path d="M151.5435 83.7645
L152.0273 83.7645
" />
<path d="M152.0273 83.7645
L152.1483 83.8250
" />
<path d="M152.1483 83.8250
L152.2088 83.8855
" />
<path d="M152.2088 83.8855
L152.2692 84.0064
" />
<path d="M152.2692 84.0064
L152.2692 84.1879
" />
<path d="M152.2692 84.1879
L152.2088 84.3088
" />
<path d="M152.2088 84.3088
L152.1483 84.3693
" />
<path d="M152.1483 84.3693
L152.0273 84.4298
" />
<path d="M152.0273 84.4298
L151.5435 84.4298
" />
</g></g>
<g style="fill:none; 
stroke:#840000; stroke-width:0.2540; stroke-opacity:1; 
stroke-linecap:round; stroke-linejoin:round;">
<rect x="135.509000" y="80.645000" width="2.032000" height="5.080000" rx="0.000000" />
</g>
<g style="fill:none; 
stroke:#840000; stroke-width:0.1524; stroke-opacity:1; 
stroke-linecap:round; stroke-linejoin:round;">
<path d="M136.5250 80.6450
L136.5250 79.3750
" />
<path d="M136.5250 85.7250
L136.5250 86.9950
" />
</g>
<g style="fill:none; 
stroke:#006464; stroke-width:0.1524; stroke-opacity:1; 
stroke-linecap:round; stroke-linejoin:round;">
<text x="139.7809" y="82.5500"
textLength="2.6827" font-size="1.6933" lengthAdjust="spacingAndGlyphs"
text-anchor="middle" opacity="0">R1</text>
<g class="stroked-text"><desc>R1</desc>
<path d="M139.5692 82.4945
L139.1459 81.8898
" />
<path d="M138.8435 82.4945
L138.8435 81.2245
" />
<path d="M138.8435 81.2245
L139.3273 81.2245
" />
<path d="M139.3273 81.2245
L139.4483 81.2850
" />
<path d="M139.4483 81.2850
L139.5088 81.3455
" />
<path d="M139.5088 81.3455
L139.5692 81.4664
" />
<path d="M139.5692 81.4664
L139.5692 81.6479
" />
<path d="M139.5692 81.6479
L139.5088 81.7688
" />
<path d="M139.5088 81.7688
L139.4483 81.8293
" />
<path d="M139.4483 81.8293
L139.3273 81.8898
" />
<path d="M139.3273 81.8898
L138.8435 81.8898
" />
<path d="M140.7788 82.4945
L140.0531 82.4945
" />
<path d="M140.4159 82.4945
L140.4159 81.2245
" />
<path d="M140.4159 81.2245
L140.2950 81.4060
" />
<path d="M140.2950 81.4060
L140.1740 81.5269
" />
<path d="M140.1740 81.5269
L140.0531 81.5874
" />
</g><text x="139.1762" y="85.0900"
textLength="1.4732" font-size="1.6933" lengthAdjust="spacingAndGlyphs"
text-anchor="middle" opacity="0">R</text>
<g class="stroked-text"><desc>R</desc>
<path d="M139.5692 85.0345
L139.1459 84.4298
" />
<path d="M138.8435 85.0345
L138.8435 83.7645
" />
<path d="M138.8435 83.7645
L139.3273 83.7645
" />
<path d="M139.3273 83.7645
L139.4483 83.8250
" />
<path d="M139.4483 83.8250
L139.5088 83.8855
" />
<path d="M139.5088 83.8855
L139.5692 84.0064
" />
<path d="M139.5692 84.0064
L139.5692 84.1879
" />
<path d="M139.5692 84.1879
L139.5088 84.3088
" />
<path d="M139.5088 84.3088
L139.4483 84.3693
" />
<path d="M139.4483 84.3693
L139.3273 84.4298
" />
<path d="M139.3273 84.4298
L138.8435 84.4298
" />
</g><path style="fill:none; 
stroke:#840000; stroke-width:0.1524; stroke-opacity:1; 
stroke-linecap:round; stroke-linejoin:round;fill:none"
d="M 148.4630,74.9300
149.2250,73.6600
" /> 
<path style="fill:none; 
stroke:#840000; stroke-width:0.1524; stroke-opacity:1; 
stroke-linecap:round; stroke-linejoin:round;fill:none"
d="M 149.2250,76.2000
149.2250,73.6600
" /> 
<path style="fill:none; 
stroke:#840000; stroke-width:0.1524; stroke-opacity:1; 
stroke-linecap:round; stroke-linejoin:round;fill:none"
d="M 149.2250,73.6600
149.9870,74.9300
" /> 
</g>
<g style="fill:none; 
stroke:#006464; stroke-width:0.1524; stroke-opacity:1; 
stroke-linecap:round; stroke-linejoin:round;">
<text x="149.2250" y="71.7550"
textLength="3.8318" font-size="1.6933" lengthAdjust="spacingAndGlyphs"
text-anchor="middle" opacity="0">VCC</text>
<g class="stroked-text"><desc>VCC</desc>
<path d="M147.5316 70.4295
L147.9549 71.6995
" />
<path d="M147.9549 71.6995
L148.3783 70.4295
" />
<path d="M149.5273 71.5786
L149.4669 71.6391
" />
<path d="M149.4669 71.6391
L149.2854 71.6995
" />
<path d="M149.2854 71.6995
L149.1645 71.6995
" />
<path d="M149.1645 71.6995
L148.9831 71.6391
" />
<path d="M148.9831 71.6391
L148.8621 71.5181
" />
<path d="M148.8621 71.5181
L148.8016 71.3971
" />
<path d="M148.8016 71.3971
L148.7412 71.1552
" />
<path d="M148.7412 71.1552
L148.7412 70.9738
" />
<path d="M148.7412 70.9738
L148.8016 70.7319
" />
<path d="M148.8016 70.7319
L148.8621 70.6110
" />
<path d="M148.8621 70.6110
L148.9831 70.4900
" />
<path d="M148.9831 70.4900
L149.1645 70.4295
" />
<path d="M149.1645 70.4295
L149.2854 70.4295
" />
<path d="M149.2854 70.4295
L149.4669 70.4900
" />
<path d="M149.4669 70.4900
L149.5273 70.5505
" />
<path d="M150.7973 71.5786
L150.7369 71.6391
" />
<path d="M150.7369 71.6391
L150.5554 71.6995
" />
<path d="M150.5554 71.6995
L150.4345 71.6995
" />
<path d="M150.4345 71.6995
L150.2531 71.6391
" />
<path d="M150.2531 71.6391
L150.1321 71.5181
" />
<path d="M150.1321 71.5181
L150.0716 71.3971
" />
<path d="M150.0716 71.3971
L150.0112 71.1552
" />
<path d="M150.0112 71.1552
L150.0112 70.9738
" />
<path d="M150.0112 70.9738
L150.0716 70.7319
" />
<path d="M150.0716 70.7319
L150.1321 70.6110
" />
<path d="M150.1321 70.6110
L150.2531 70.4900
" />
<path d="M150.2531 70.4900
L150.4345 70.4295
" />
<path d="M150.4345 70.4295
L150.5554 70.4295
" />
<path d="M150.5554 70.4295
L150.7369 70.4900
" />
<path d="M150.7369 70.4900
L150.7973 70.5505
" />
</g><path style="fill:none; 
stroke:#840000; stroke-width:0.1524; stroke-opacity:1; 
stroke-linecap:round; stroke-linejoin:round;fill:none"
d="M 135.7630,74.9300
136.5250,73.6600
" /> 
<path style="fill:none; 
stroke:#840000; stroke-width:0.1524; stroke-opacity:1; 
stroke-linecap:round; stroke-linejoin:round;fill:none"
d="M 136.5250,76.2000
136.5250,73.6600
" /> 
<path style="fill:none; 
stroke:#840000; stroke-width:0.1524; stroke-opacity:1; 
stroke-linecap:round; stroke-linejoin:round;fill:none"
d="M 136.5250,73.6600
137.2870,74.9300
" /> 
</g>
<g style="fill:none; 
stroke:#006464; stroke-width:0.1524; stroke-opacity:1; 
stroke-linecap:round; stroke-linejoin:round;">
<text x="136.5250" y="71.7550"
textLength="3.8318" font-size="1.6933" lengthAdjust="spacingAndGlyphs"
text-anchor="middle" opacity="0">VCC</text>
<g class="stroked-text"><desc>VCC</desc>
<path d="M134.8316 70.4295
L135.2549 71.6995
" />
<path d="M135.2549 71.6995
L135.6783 70.4295
" />
<path d="M136.8273 71.5786
L136.7669 71.6391
" />
<path d="M136.7669 71.6391
L136.5854 71.6995
" />
<path d="M136.5854 71.6995
L136.4645 71.6995
" />
<path d="M136.4645 71.6995
L136.2831 71.6391
" />
<path d="M136.2831 71.6391
L136.1621 71.5181
" />
<path d="M136.1621 71.5181
L136.1016 71.3971
" />
<path d="M136.1016 71.3971
L136.0412 71.1552
" />
<path d="M136.0412 71.1552
L136.0412 70.9738
" />
<path d="M136.0412 70.9738
L136.1016 70.7319
" />
<path d="M136.1016 70.7319
L136.1621 70.6110
" />
<path d="M136.1621 70.6110
L136.2831 70.4900
" />
<path d="M136.2831 70.4900
L136.4645 70.4295
" />
<path d="M136.4645 70.4295
L136.5854 70.4295
" />
<path d="M136.5854 70.4295
L136.7669 70.4900
" />
<path d="M136.7669 70.4900
L136.8273 70.5505
" />
<path d="M138.0973 71.5786
L138.0369 71.6391
" />
<path d="M138.0369 71.6391
L137.8554 71.6995
" />
<path d="M137.8554 71.6995
L137.7345 71.6995
" />
<path d="M137.7345 71.6995
L137.5531 71.6391
" />
<path d="M137.5531 71.6391
L137.4321 71.5181
" />
<path d="M137.4321 71.5181
L137.3716 71.3971
" />
<path d="M137.3716 71.3971
L137.3112 71.1552
" />
<path d="M137.3112 71.1552
L137.3112 70.9738
" />
<path d="M137.3112 70.9738
L137.3716 70.7319
" />
<path d="M137.3716 70.7319
L137.4321 70.6110
" />
<path d="M137.4321 70.6110
L137.5531 70.4900
" />
<path d="M137.5531 70.4900
L137.7345 70.4295
" />
<path d="M137.7345 70.4295
L137.8554 70.4295
" />
<path d="M137.8554 70.4295
L138.0369 70.4900
" />
<path d="M138.0369 70.4900
L138.0973 70.5505
" />
</g></g>
<g style="fill:#FFFFC2; fill-opacity:1.0000; stroke:none;">
<rect x="123.190000" y="110.490000" width="2.540000" height="12.700000" rx="0.000000" />
</g>
<g style="fill:none; 
stroke:#840000; stroke-width:0.1524; stroke-opacity:1; 
stroke-linecap:round; stroke-linejoin:round;">
<rect x="124.460000" y="121.793000" width="1.270000" height="0.254000" rx="0.000000" />
<rect x="124.460000" y="119.253000" width="1.270000" height="0.254000" rx="0.000000" />
<rect x="124.460000" y="116.713000" width="1.270000" height="0.254000" rx="0.000000" />
<rect x="124.460000" y="114.173000" width="1.270000" height="0.254000" rx="0.000000" />
<rect x="124.460000" y="111.633000" width="1.270000" height="0.254000" rx="0.000000" />
</g>
<g style="fill:none; 
stroke:#840000; stroke-width:0.2540; stroke-opacity:1; 
stroke-linecap:round; stroke-linejoin:round;">
<rect x="123.190000" y="110.490000" width="2.540000" height="12.700000" rx="0.000000" />
</g>
<g style="fill:none; 
stroke:#840000; stroke-width:0.1524; stroke-opacity:1; 
stroke-linecap:round; stroke-linejoin:round;">
<path d="M125.7300 111.7600
L129.5400 111.7600
" />
</g>
<g style="fill:none; 
stroke:#A90000; stroke-width:0.1524; stroke-opacity:1; 
stroke-linecap:round; stroke-linejoin:round;">
<text x="127.6350" y="111.5060"
textLength="1.4127" font-size="1.6933" lengthAdjust="spacingAndGlyphs"
text-anchor="middle" opacity="0">1</text>
<g class="stroked-text"><desc>1</desc>
<path d="M127.9979 111.3425
L127.2722 111.3425
" />
<path d="M127.6350 111.3425
L127.6350 110.0725
" />
<path d="M127.6350 110.0725
L127.5141 110.2540
" />
<path d="M127.5141 110.2540
L127.3931 110.3749
" />
<path d="M127.3931 110.3749
L127.2722 110.4354
" />
</g></g>
<g style="fill:none; 
stroke:#840000; stroke-width:0.1524; stroke-opacity:1; 
stroke-linecap:round; stroke-linejoin:round;">
<path d="M125.7300 114.3000
L129.5400 114.3000
" />
</g>
<g style="fill:none; 
stroke:#A90000; stroke-width:0.1524; stroke-opacity:1; 
stroke-linecap:round; stroke-linejoin:round;">
<text x="127.6350" y="114.0460"
textLength="1.4127" font-size="1.6933" lengthAdjust="spacingAndGlyphs"
text-anchor="middle" opacity="0">2</text>
<g class="stroked-text"><desc>2</desc>
<path d="M127.2722 112.7335
L127.3326 112.6730
" />
<path d="M127.3326 112.6730
L127.4536 112.6125
" />
<path d="M127.4536 112.6125
L127.7560 112.6125
" />
<path d="M127.7560 112.6125
L127.8769 112.6730
" />
<path d="M127.8769 112.6730
L127.9374 112.7335
" />
<path d="M127.9374 112.7335
L127.9979 112.8544
" />
<path d="M127.9979 112.8544
L127.9979 112.9754
" />
<path d="M127.9979 112.9754
L127.9374 113.1568
" />
<path d="M127.9374 113.1568
L127.2117 113.8825
" />
<path d="M127.2117 113.8825
L127.9979 113.8825
" />
</g></g>
<g style="fill:none; 
stroke:#840000; stroke-width:0.1524; stroke-opacity:1; 
stroke-linecap:round; stroke-linejoin:round;">
<path d="M125.7300 116.8400
L129.5400 116.8400
" />
</g>
<g style="fill:none; 
stroke:#A90000; stroke-width:0.1524; stroke-opacity:1; 
stroke-linecap:round; stroke-linejoin:round;">
<text x="127.6350" y="116.5860"
textLength="1.4127" font-size="1.6933" lengthAdjust="spacingAndGlyphs"
text-anchor="middle" opacity="0">3</text>
<g class="stroked-text"><desc>3</desc>
<path d="M127.2117 115.1525
L127.9979 115.1525
" />
<path d="M127.9979 115.1525
L127.5745 115.6363
" />
<path d="M127.5745 115.6363
L127.7560 115.6363
" />
<path d="M127.7560 115.6363
L127.8769 115.6968
" />
<path d="M127.8769 115.6968
L127.9374 115.7573
" />
<path d="M127.9374 115.7573
L127.9979 115.8782
" />
<path d="M127.9979 115.8782
L127.9979 116.1806
" />
<path d="M127.9979 116.1806
L127.9374 116.3016
" />
<path d="M127.9374 116.3016
L127.8769 116.3621
" />
<path d="M127.8769 116.3621
L127.7560 116.4225
" />
<path d="M127.7560 116.4225
L127.3931 116.4225
" />
<path d="M127.3931 116.4225
L127.2722 116.3621
" />
<path d="M127.2722 116.3621
L127.2117 116.3016
" />
</g></g>
<g style="fill:none; 
stroke:#840000; stroke-width:0.1524; stroke-opacity:1; 
stroke-linecap:round; stroke-linejoin:round;">
<path d="M125.7300 119.3800
L129.5400 119.3800
" />
</g>
<g style="fill:none; 
stroke:#A90000; stroke-width:0.1524; stroke-opacity:1; 
stroke-linecap:round; stroke-linejoin:round;">
<text x="127.6350" y="119.1260"
textLength="1.4127" font-size="1.6933" lengthAdjust="spacingAndGlyphs"
text-anchor="middle" opacity="0">4</text>
<g class="stroked-text"><desc>4</desc>
<path d="M127.8769 118.1159
L127.8769 118.9625
" />
<path d="M127.5745 117.6321
L127.2722 118.5392
" />
<path d="M127.2722 118.5392
L128.0583 118.5392
" />
</g></g>
<g style="fill:none; 
stroke:#840000; stroke-width:0.1524; stroke-opacity:1; 
stroke-linecap:round; stroke-linejoin:round;">
<path d="M125.7300 121.9200
L129.5400 121.9200
" />
</g>
<g style="fill:none; 
stroke:#A90000; stroke-width:0.1524; stroke-opacity:1; 
stroke-linecap:round; stroke-linejoin:round;">
<text x="127.6350" y="121.6660"
textLength="1.4127" font-size="1.6933" lengthAdjust="spacingAndGlyphs"
text-anchor="middle" opacity="0">5</text>
<g class="stroked-text"><desc>5</desc>
<path d="M127.9374 120.2325
L127.3326 120.2325
" />
<path d="M127.3326 120.2325
L127.2722 120.8373
" />
<path d="M127.2722 120.8373
L127.3326 120.7768
" />
<path d="M127.3326 120.7768
L127.4536 120.7163
" />
<path d="M127.4536 120.7163
L127.7560 120.7163
" />
<path d="M127.7560 120.7163
L127.8769 120.7768
" />
<path d="M127.8769 120.7768
L127.9374 120.8373
" />
<path d="M127.9374 120.8373
L127.9979 120.9582
" />
<path d="M127.9979 120.9582
L127.9979 121.2606
" />
<path d="M127.9979 121.2606
L127.9374 121.3816
" />
<path d="M127.9374 121.3816
L127.8769 121.4421
" />
<path d="M127.8769 121.4421
L127.7560 121.5025
" />
<path d="M127.7560 121.5025
L127.4536 121.5025
" />
<path d="M127.4536 121.5025
L127.3326 121.4421
" />
<path d="M127.3326 121.4421
L127.2722 121.3816
" />
</g></g>
<g style="fill:none; 
stroke:#006464; stroke-width:0.1524; stroke-opacity:1; 
stroke-linecap:round; stroke-linejoin:round;">
<text x="118.9845" y="116.2049"
textLength="5.3437" font-size="1.6933" lengthAdjust="spacingAndGlyphs"
text-anchor="middle" opacity="0">CON1</text>
<g class="stroked-text"><desc>CON1</desc>
<path d="M117.4423 116.0285
L117.3819 116.0890
" />
<path d="M117.3819 116.0890
L117.2004 116.1494
" />
<path d="M117.2004 116.1494
L117.0795 116.1494
" />
<path d="M117.0795 116.1494
L116.8981 116.0890
" />
<path d="M116.8981 116.0890
L116.7771 115.9680
" />
<path d="M116.7771 115.9680
L116.7166 115.8470
" />
<path d="M116.7166 115.8470
L116.6562 115.6051
" />
<path d="M116.6562 115.6051
L116.6562 115.4237
" />
<path d="M116.6562 115.4237
L116.7166 115.1818
" />
<path d="M116.7166 115.1818
L116.7771 115.0609
" />
<path d="M116.7771 115.0609
L116.8981 114.9399
" />
<path d="M116.8981 114.9399
L117.0795 114.8794
" />
<path d="M117.0795 114.8794
L117.2004 114.8794
" />
<path d="M117.2004 114.8794
L117.3819 114.9399
" />
<path d="M117.3819 114.9399
L117.4423 115.0004
" />
<path d="M118.2285 114.8794
L118.4704 114.8794
" />
<path d="M118.4704 114.8794
L118.5914 114.9399
" />
<path d="M118.5914 114.9399
L118.7123 115.0609
" />
<path d="M118.7123 115.0609
L118.7728 115.3028
" />
<path d="M118.7728 115.3028
L118.7728 115.7261
" />
<path d="M118.7728 115.7261
L118.7123 115.9680
" />
<path d="M118.7123 115.9680
L118.5914 116.0890
" />
<path d="M118.5914 116.0890
L118.4704 116.1494
" />
<path d="M118.4704 116.1494
L118.2285 116.1494
" />
<path d="M118.2285 116.1494
L118.1076 116.0890
" />
<path d="M118.1076 116.0890
L117.9866 115.9680
" />
<path d="M117.9866 115.9680
L117.9262 115.7261
" />
<path d="M117.9262 115.7261
L117.9262 115.3028
" />
<path d="M117.9262 115.3028
L117.9866 115.0609
" />
<path d="M117.9866 115.0609
L118.1076 114.9399
" />
<path d="M118.1076 114.9399
L118.2285 114.8794
" />
<path d="M119.3171 116.1494
L119.3171 114.8794
" />
<path d="M119.3171 114.8794
L120.0428 116.1494
" />
<path d="M120.0428 116.1494
L120.0428 114.8794
" />
<path d="M121.3129 116.1494
L120.5872 116.1494
" />
<path d="M120.9500 116.1494
L120.9500 114.8794
" />
<path d="M120.9500 114.8794
L120.8291 115.0609
" />
<path d="M120.8291 115.0609
L120.7081 115.1818
" />
<path d="M120.7081 115.1818
L120.5872 115.2423
" />
</g><text x="111.5763" y="118.7449"
textLength="20.1601" font-size="1.6933" lengthAdjust="spacingAndGlyphs"
text-anchor="middle" opacity="0">EL0001 - HEADER 1</text>
<g class="stroked-text"><desc>EL0001 - HEADER 1</desc>
<path d="M101.9002 118.0242
L102.3236 118.0242
" />
<path d="M102.5050 118.6894
L101.9002 118.6894
" />
<path d="M101.9002 118.6894
L101.9002 117.4194
" />
<path d="M101.9002 117.4194
L102.5050 117.4194
" />
<path d="M103.6540 118.6894
L103.0492 118.6894
" />
<path d="M103.0492 118.6894
L103.0492 117.4194
" />
<path d="M104.3192 117.4194
L104.4402 117.4194
" />
<path d="M104.4402 117.4194
L104.5611 117.4799
" />
<path d="M104.5611 117.4799
L104.6216 117.5404
" />
<path d="M104.6216 117.5404
L104.6821 117.6613
" />
<path d="M104.6821 117.6613
L104.7426 117.9032
" />
<path d="M104.7426 117.9032
L104.7426 118.2056
" />
<path d="M104.7426 118.2056
L104.6821 118.4475
" />
<path d="M104.6821 118.4475
L104.6216 118.5685
" />
<path d="M104.6216 118.5685
L104.5611 118.6290
" />
<path d="M104.5611 118.6290
L104.4402 118.6894
" />
<path d="M104.4402 118.6894
L104.3192 118.6894
" />
<path d="M104.3192 118.6894
L104.1983 118.6290
" />
<path d="M104.1983 118.6290
L104.1378 118.5685
" />
<path d="M104.1378 118.5685
L104.0773 118.4475
" />
<path d="M104.0773 118.4475
L104.0169 118.2056
" />
<path d="M104.0169 118.2056
L104.0169 117.9032
" />
<path d="M104.0169 117.9032
L104.0773 117.6613
" />
<path d="M104.0773 117.6613
L104.1378 117.5404
" />
<path d="M104.1378 117.5404
L104.1983 117.4799
" />
<path d="M104.1983 117.4799
L104.3192 117.4194
" />
<path d="M105.5287 117.4194
L105.6497 117.4194
" />
<path d="M105.6497 117.4194
L105.7706 117.4799
" />
<path d="M105.7706 117.4799
L105.8311 117.5404
" />
<path d="M105.8311 117.5404
L105.8916 117.6613
" />
<path d="M105.8916 117.6613
L105.9521 117.9032
" />
<path d="M105.9521 117.9032
L105.9521 118.2056
" />
<path d="M105.9521 118.2056
L105.8916 118.4475
" />
<path d="M105.8916 118.4475
L105.8311 118.5685
" />
<path d="M105.8311 118.5685
L105.7706 118.6290
" />
<path d="M105.7706 118.6290
L105.6497 118.6894
" />
<path d="M105.6497 118.6894
L105.5287 118.6894
" />
<path d="M105.5287 118.6894
L105.4078 118.6290
" />
<path d="M105.4078 118.6290
L105.3473 118.5685
" />
<path d="M105.3473 118.5685
L105.2868 118.4475
" />
<path d="M105.2868 118.4475
L105.2264 118.2056
" />
<path d="M105.2264 118.2056
L105.2264 117.9032
" />
<path d="M105.2264 117.9032
L105.2868 117.6613
" />
<path d="M105.2868 117.6613
L105.3473 117.5404
" />
<path d="M105.3473 117.5404
L105.4078 117.4799
" />
<path d="M105.4078 117.4799
L105.5287 117.4194
" />
<path d="M106.7382 117.4194
L106.8592 117.4194
" />
<path d="M106.8592 117.4194
L106.9801 117.4799
" />
<path d="M106.9801 117.4799
L107.0406 117.5404
" />
<path d="M107.0406 117.5404
L107.1011 117.6613
" />
<path d="M107.1011 117.6613
L107.1616 117.9032
" />
<path d="M107.1616 117.9032
L107.1616 118.2056
" />
<path d="M107.1616 118.2056
L107.1011 118.4475
" />
<path d="M107.1011 118.4475
L107.0406 118.5685
" />
<path d="M107.0406 118.5685
L106.9801 118.6290
" />
<path d="M106.9801 118.6290
L106.8592 118.6894
" />
<path d="M106.8592 118.6894
L106.7382 118.6894
" />
<path d="M106.7382 118.6894
L106.6173 118.6290
" />
<path d="M106.6173 118.6290
L106.5568 118.5685
" />
<path d="M106.5568 118.5685
L106.4963 118.4475
" />
<path d="M106.4963 118.4475
L106.4359 118.2056
" />
<path d="M106.4359 118.2056
L106.4359 117.9032
" />
<path d="M106.4359 117.9032
L106.4963 117.6613
" />
<path d="M106.4963 117.6613
L106.5568 117.5404
" />
<path d="M106.5568 117.5404
L106.6173 117.4799
" />
<path d="M106.6173 117.4799
L106.7382 117.4194
" />
<path d="M108.3711 118.6894
L107.6454 118.6894
" />
<path d="M108.0082 118.6894
L108.0082 117.4194
" />
<path d="M108.0082 117.4194
L107.8873 117.6009
" />
<path d="M107.8873 117.6009
L107.7663 117.7218
" />
<path d="M107.7663 117.7218
L107.6454 117.7823
" />
<path d="M109.8829 118.2056
L110.8506 118.2056
" />
<path d="M112.4229 118.6894
L112.4229 117.4194
" />
<path d="M112.4229 118.0242
L113.1486 118.0242
" />
<path d="M113.1486 118.6894
L113.1486 117.4194
" />
<path d="M113.7534 118.0242
L114.1768 118.0242
" />
<path d="M114.3582 118.6894
L113.7534 118.6894
" />
<path d="M113.7534 118.6894
L113.7534 117.4194
" />
<path d="M113.7534 117.4194
L114.3582 117.4194
" />
<path d="M114.8420 118.3266
L115.4467 118.3266
" />
<path d="M114.7210 118.6894
L115.1443 117.4194
" />
<path d="M115.1443 117.4194
L115.5677 118.6894
" />
<path d="M115.9910 118.6894
L115.9910 117.4194
" />
<path d="M115.9910 117.4194
L116.2934 117.4194
" />
<path d="M116.2934 117.4194
L116.4748 117.4799
" />
<path d="M116.4748 117.4799
L116.5958 117.6009
" />
<path d="M116.5958 117.6009
L116.6563 117.7218
" />
<path d="M116.6563 117.7218
L116.7167 117.9637
" />
<path d="M116.7167 117.9637
L116.7167 118.1451
" />
<path d="M116.7167 118.1451
L116.6563 118.3870
" />
<path d="M116.6563 118.3870
L116.5958 118.5080
" />
<path d="M116.5958 118.5080
L116.4748 118.6290
" />
<path d="M116.4748 118.6290
L116.2934 118.6894
" />
<path d="M116.2934 118.6894
L115.9910 118.6894
" />
<path d="M117.2610 118.0242
L117.6844 118.0242
" />
<path d="M117.8658 118.6894
L117.2610 118.6894
" />
<path d="M117.2610 118.6894
L117.2610 117.4194
" />
<path d="M117.2610 117.4194
L117.8658 117.4194
" />
<path d="M119.1357 118.6894
L118.7124 118.0847
" />
<path d="M118.4100 118.6894
L118.4100 117.4194
" />
<path d="M118.4100 117.4194
L118.8938 117.4194
" />
<path d="M118.8938 117.4194
L119.0148 117.4799
" />
<path d="M119.0148 117.4799
L119.0753 117.5404
" />
<path d="M119.0753 117.5404
L119.1357 117.6613
" />
<path d="M119.1357 117.6613
L119.1357 117.8428
" />
<path d="M119.1357 117.8428
L119.0753 117.9637
" />
<path d="M119.0753 117.9637
L119.0148 118.0242
" />
<path d="M119.0148 118.0242
L118.8938 118.0847
" />
<path d="M118.8938 118.0847
L118.4100 118.0847
" />
<path d="M121.3129 118.6894
L120.5872 118.6894
" />
<path d="M120.9500 118.6894
L120.9500 117.4194
" />
<path d="M120.9500 117.4194
L120.8291 117.6009
" />
<path d="M120.8291 117.6009
L120.7081 117.7218
" />
<path d="M120.7081 117.7218
L120.5872 117.7823
" />
</g><path style="fill:none; 
stroke:#840000; stroke-width:0.1524; stroke-opacity:1; 
stroke-linecap:round; stroke-linejoin:round;fill:none"
d="M 136.5250,125.0950
136.5250,126.3650
137.7950,126.3650
136.5250,127.6350
135.2550,126.3650
136.5250,126.3650
" /> 
</g>
<g style="fill:none; 
stroke:#006464; stroke-width:0.1524; stroke-opacity:1; 
stroke-linecap:round; stroke-linejoin:round;">
<text x="136.5250" y="130.1750"
textLength="4.0737" font-size="1.6933" lengthAdjust="spacingAndGlyphs"
text-anchor="middle" opacity="0">GND</text>
<g class="stroked-text"><desc>GND</desc>
<path d="M135.5574 128.9100
L135.4364 128.8495
" />
<path d="M135.4364 128.8495
L135.2550 128.8495
" />
<path d="M135.2550 128.8495
L135.0736 128.9100
" />
<path d="M135.0736 128.9100
L134.9526 129.0310
" />
<path d="M134.9526 129.0310
L134.8921 129.1519
" />
<path d="M134.8921 129.1519
L134.8317 129.3938
" />
<path d="M134.8317 129.3938
L134.8317 129.5752
" />
<path d="M134.8317 129.5752
L134.8921 129.8171
" />
<path d="M134.8921 129.8171
L134.9526 129.9381
" />
<path d="M134.9526 129.9381
L135.0736 130.0591
" />
<path d="M135.0736 130.0591
L135.2550 130.1195
" />
<path d="M135.2550 130.1195
L135.3759 130.1195
" />
<path d="M135.3759 130.1195
L135.5574 130.0591
" />
<path d="M135.5574 130.0591
L135.6178 129.9986
" />
<path d="M135.6178 129.9986
L135.6178 129.5752
" />
<path d="M135.6178 129.5752
L135.3759 129.5752
" />
<path d="M136.1621 130.1195
L136.1621 128.8495
" />
<path d="M136.1621 128.8495
L136.8878 130.1195
" />
<path d="M136.8878 130.1195
L136.8878 128.8495
" />
<path d="M137.4926 130.1195
L137.4926 128.8495
" />
<path d="M137.4926 128.8495
L137.7950 128.8495
" />
<path d="M137.7950 128.8495
L137.9764 128.9100
" />
<path d="M137.9764 128.9100
L138.0974 129.0310
" />
<path d="M138.0974 129.0310
L138.1579 129.1519
" />
<path d="M138.1579 129.1519
L138.2183 129.3938
" />
<path d="M138.2183 129.3938
L138.2183 129.5752
" />
<path d="M138.2183 129.5752
L138.1579 129.8171
" />
<path d="M138.1579 129.8171
L138.0974 129.9381
" />
<path d="M138.0974 129.9381
L137.9764 130.0591
" />
<path d="M137.9764 130.0591
L137.7950 130.1195
" />
<path d="M137.7950 130.1195
L137.4926 130.1195
" />
</g><path style="fill:none; 
stroke:#840000; stroke-width:0.2540; stroke-opacity:1; 
stroke-linecap:round; stroke-linejoin:round;fill:none"
d="M 137.7950,106.0450
135.2550,106.0450
" /> 
<path style="fill:none; 
stroke:#840000; stroke-width:0.1524; stroke-opacity:1; 
stroke-linecap:round; stroke-linejoin:round;fill:none"
d="M 136.5250,106.0450
136.5250,103.5050
" /> 
<path style="fill:none; 
stroke:#840000; stroke-width:0.2540; stroke-opacity:1; 
stroke-linecap:round; stroke-linejoin:round;fill:none"
d="M 137.7950,103.5050
135.2550,103.5050
136.5250,106.0450
Z" /> 
<path style="fill:none; 
stroke:#840000; stroke-width:0.1524; stroke-opacity:1; 
stroke-linecap:round; stroke-linejoin:round;fill:none"
d="M 137.2870,107.8230
138.8110,109.3470
138.8110,108.5850
138.8110,109.3470
138.0490,109.3470
" /> 
<path style="fill:none; 
stroke:#840000; stroke-width:0.1524; stroke-opacity:1; 
stroke-linecap:round; stroke-linejoin:round;fill:none"
d="M 137.2870,106.5530
138.8110,108.0770
138.8110,107.3150
138.8110,108.0770
138.0490,108.0770
" /> 
</g>
<g style="fill:none; 
stroke:#840000; stroke-width:0.1524; stroke-opacity:1; 
stroke-linecap:round; stroke-linejoin:round;">
<path d="M136.5250 106.0450
L136.5250 108.5850
" />
<path d="M136.5250 103.5050
L136.5250 100.9650
" />
</g>
<g style="fill:none; 
stroke:#006464; stroke-width:0.1524; stroke-opacity:1; 
stroke-linecap:round; stroke-linejoin:round;">
<text x="141.0509" y="105.7274"
textLength="2.6827" font-size="1.6933" lengthAdjust="spacingAndGlyphs"
text-anchor="middle" opacity="0">D1</text>
<g class="stroked-text"><desc>D1</desc>
<path d="M140.1135 105.6719
L140.1135 104.4019
" />
<path d="M140.1135 104.4019
L140.4159 104.4019
" />
<path d="M140.4159 104.4019
L140.5973 104.4624
" />
<path d="M140.5973 104.4624
L140.7183 104.5834
" />
<path d="M140.7183 104.5834
L140.7788 104.7043
" />
<path d="M140.7788 104.7043
L140.8392 104.9462
" />
<path d="M140.8392 104.9462
L140.8392 105.1276
" />
<path d="M140.8392 105.1276
L140.7788 105.3695
" />
<path d="M140.7788 105.3695
L140.7183 105.4905
" />
<path d="M140.7183 105.4905
L140.5973 105.6115
" />
<path d="M140.5973 105.6115
L140.4159 105.6719
" />
<path d="M140.4159 105.6719
L140.1135 105.6719
" />
<path d="M142.0488 105.6719
L141.3231 105.6719
" />
<path d="M141.6859 105.6719
L141.6859 104.4019
" />
<path d="M141.6859 104.4019
L141.5650 104.5834
" />
<path d="M141.5650 104.5834
L141.4440 104.7043
" />
<path d="M141.4440 104.7043
L141.3231 104.7648
" />
</g><text x="141.5347" y="108.2674"
textLength="3.6503" font-size="1.6933" lengthAdjust="spacingAndGlyphs"
text-anchor="middle" opacity="0">LED</text>
<g class="stroked-text"><desc>LED</desc>
<path d="M140.7183 108.2119
L140.1135 108.2119
" />
<path d="M140.1135 108.2119
L140.1135 106.9419
" />
<path d="M141.1416 107.5467
L141.5650 107.5467
" />
<path d="M141.7464 108.2119
L141.1416 108.2119
" />
<path d="M141.1416 108.2119
L141.1416 106.9419
" />
<path d="M141.1416 106.9419
L141.7464 106.9419
" />
<path d="M142.2906 108.2119
L142.2906 106.9419
" />
<path d="M142.2906 106.9419
L142.5930 106.9419
" />
<path d="M142.5930 106.9419
L142.7744 107.0024
" />
<path d="M142.7744 107.0024
L142.8954 107.1234
" />
<path d="M142.8954 107.1234
L142.9559 107.2443
" />
<path d="M142.9559 107.2443
L143.0163 107.4862
" />
<path d="M143.0163 107.4862
L143.0163 107.6676
" />
<path d="M143.0163 107.6676
L142.9559 107.9095
" />
<path d="M142.9559 107.9095
L142.8954 108.0305
" />
<path d="M142.8954 108.0305
L142.7744 108.1515
" />
<path d="M142.7744 108.1515
L142.5930 108.2119
" />
<path d="M142.5930 108.2119
L142.2906 108.2119
" />
</g><path style="fill:none; 
stroke:#840000; stroke-width:0.2540; stroke-opacity:1; 
stroke-linecap:round; stroke-linejoin:round;fill:none"
d="M 150.4950,106.0450
147.9550,106.0450
" /> 
<path style="fill:none; 
stroke:#840000; stroke-width:0.1524; stroke-opacity:1; 
stroke-linecap:round; stroke-linejoin:round;fill:none"
d="M 149.2250,106.0450
149.2250,103.5050
" /> 
<path style="fill:none; 
stroke:#840000; stroke-width:0.2540; stroke-opacity:1; 
stroke-linecap:round; stroke-linejoin:round;fill:none"
d="M 150.4950,103.5050
147.9550,103.5050
149.2250,106.0450
Z" /> 
<path style="fill:none; 
stroke:#840000; stroke-width:0.1524; stroke-opacity:1; 
stroke-linecap:round; stroke-linejoin:round;fill:none"
d="M 149.9870,107.8230
151.5110,109.3470
151.5110,108.5850
151.5110,109.3470
150.7490,109.3470
" /> 
<path style="fill:none; 
stroke:#840000; stroke-width:0.1524; stroke-opacity:1; 
stroke-linecap:round; stroke-linejoin:round;fill:none"
d="M 149.9870,106.5530
151.5110,108.0770
151.5110,107.3150
151.5110,108.0770
150.7490,108.0770
" /> 
</g>
<g style="fill:none; 
stroke:#840000; stroke-width:0.1524; stroke-opacity:1; 
stroke-linecap:round; stroke-linejoin:round;">
<path d="M149.2250 106.0450
L149.2250 108.5850
" />
<path d="M149.2250 103.5050
L149.2250 100.9650
" />
</g>
<g style="fill:none; 
stroke:#006464; stroke-width:0.1524; stroke-opacity:1; 
stroke-linecap:round; stroke-linejoin:round;">
<text x="153.7509" y="105.7274"
textLength="2.6827" font-size="1.6933" lengthAdjust="spacingAndGlyphs"
text-anchor="middle" opacity="0">D2</text>
<g class="stroked-text"><desc>D2</desc>
<path d="M152.8135 105.6719
L152.8135 104.4019
" />
<path d="M152.8135 104.4019
L153.1159 104.4019
" />
<path d="M153.1159 104.4019
L153.2973 104.4624
" />
<path d="M153.2973 104.4624
L153.4183 104.5834
" />
<path d="M153.4183 104.5834
L153.4788 104.7043
" />
<path d="M153.4788 104.7043
L153.5392 104.9462
" />
<path d="M153.5392 104.9462
L153.5392 105.1276
" />
<path d="M153.5392 105.1276
L153.4788 105.3695
" />
<path d="M153.4788 105.3695
L153.4183 105.4905
" />
<path d="M153.4183 105.4905
L153.2973 105.6115
" />
<path d="M153.2973 105.6115
L153.1159 105.6719
" />
<path d="M153.1159 105.6719
L152.8135 105.6719
" />
<path d="M154.0231 104.5229
L154.0835 104.4624
" />
<path d="M154.0835 104.4624
L154.2045 104.4019
" />
<path d="M154.2045 104.4019
L154.5069 104.4019
" />
<path d="M154.5069 104.4019
L154.6278 104.4624
" />
<path d="M154.6278 104.4624
L154.6883 104.5229
" />
<path d="M154.6883 104.5229
L154.7488 104.6438
" />
<path d="M154.7488 104.6438
L154.7488 104.7648
" />
<path d="M154.7488 104.7648
L154.6883 104.9462
" />
<path d="M154.6883 104.9462
L153.9626 105.6719
" />
<path d="M153.9626 105.6719
L154.7488 105.6719
" />
</g><text x="154.2347" y="108.2674"
textLength="3.6503" font-size="1.6933" lengthAdjust="spacingAndGlyphs"
text-anchor="middle" opacity="0">LED</text>
<g class="stroked-text"><desc>LED</desc>
<path d="M153.4183 108.2119
L152.8135 108.2119
" />
<path d="M152.8135 108.2119
L152.8135 106.9419
" />
<path d="M153.8416 107.5467
L154.2650 107.5467
" />
<path d="M154.4464 108.2119
L153.8416 108.2119
" />
<path d="M153.8416 108.2119
L153.8416 106.9419
" />
<path d="M153.8416 106.9419
L154.4464 106.9419
" />
<path d="M154.9906 108.2119
L154.9906 106.9419
" />
<path d="M154.9906 106.9419
L155.2930 106.9419
" />
<path d="M155.2930 106.9419
L155.4744 107.0024
" />
<path d="M155.4744 107.0024
L155.5954 107.1234
" />
<path d="M155.5954 107.1234
L155.6559 107.2443
" />
<path d="M155.6559 107.2443
L155.7163 107.4862
" />
<path d="M155.7163 107.4862
L155.7163 107.6676
" />
<path d="M155.7163 107.6676
L155.6559 107.9095
" />
<path d="M155.6559 107.9095
L155.5954 108.0305
" />
<path d="M155.5954 108.0305
L155.4744 108.1515
" />
<path d="M155.4744 108.1515
L155.2930 108.2119
" />
<path d="M155.2930 108.2119
L154.9906 108.2119
" />
</g><path style="fill:none; 
stroke:#840000; stroke-width:0.2540; stroke-opacity:1; 
stroke-linecap:round; stroke-linejoin:round;fill:none"
d="M 150.4950,95.2500
147.9550,95.2500
" /> 
<path style="fill:none; 
stroke:#840000; stroke-width:0.1524; stroke-opacity:1; 
stroke-linecap:round; stroke-linejoin:round;fill:none"
d="M 149.2250,95.2500
149.2250,92.7100
" /> 
<path style="fill:none; 
stroke:#840000; stroke-width:0.2540; stroke-opacity:1; 
stroke-linecap:round; stroke-linejoin:round;fill:none"
d="M 150.4950,92.7100
147.9550,92.7100
149.2250,95.2500
Z" /> 
<path style="fill:none; 
stroke:#840000; stroke-width:0.1524; stroke-opacity:1; 
stroke-linecap:round; stroke-linejoin:round;fill:none"
d="M 149.9870,97.0280
151.5110,98.5520
151.5110,97.7900
151.5110,98.5520
150.7490,98.5520
" /> 
<path style="fill:none; 
stroke:#840000; stroke-width:0.1524; stroke-opacity:1; 
stroke-linecap:round; stroke-linejoin:round;fill:none"
d="M 149.9870,95.7580
151.5110,97.2820
151.5110,96.5200
151.5110,97.2820
150.7490,97.2820
" /> 
</g>
<g style="fill:none; 
stroke:#840000; stroke-width:0.1524; stroke-opacity:1; 
stroke-linecap:round; stroke-linejoin:round;">
<path d="M149.2250 95.2500
L149.2250 97.7900
" />
<path d="M149.2250 92.7100
L149.2250 90.1700
" />
</g>
<g style="fill:none; 
stroke:#006464; stroke-width:0.1524; stroke-opacity:1; 
stroke-linecap:round; stroke-linejoin:round;">
<text x="153.7509" y="94.9324"
textLength="2.6827" font-size="1.6933" lengthAdjust="spacingAndGlyphs"
text-anchor="middle" opacity="0">D6</text>
<g class="stroked-text"><desc>D6</desc>
<path d="M152.8135 94.8769
L152.8135 93.6069
" />
<path d="M152.8135 93.6069
L153.1159 93.6069
" />
<path d="M153.1159 93.6069
L153.2973 93.6674
" />
<path d="M153.2973 93.6674
L153.4183 93.7884
" />
<path d="M153.4183 93.7884
L153.4788 93.9093
" />
<path d="M153.4788 93.9093
L153.5392 94.1512
" />
<path d="M153.5392 94.1512
L153.5392 94.3326
" />
<path d="M153.5392 94.3326
L153.4788 94.5745
" />
<path d="M153.4788 94.5745
L153.4183 94.6955
" />
<path d="M153.4183 94.6955
L153.2973 94.8165
" />
<path d="M153.2973 94.8165
L153.1159 94.8769
" />
<path d="M153.1159 94.8769
L152.8135 94.8769
" />
<path d="M154.6278 93.6069
L154.3859 93.6069
" />
<path d="M154.3859 93.6069
L154.2650 93.6674
" />
<path d="M154.2650 93.6674
L154.2045 93.7279
" />
<path d="M154.2045 93.7279
L154.0835 93.9093
" />
<path d="M154.0835 93.9093
L154.0231 94.1512
" />
<path d="M154.0231 94.1512
L154.0231 94.6350
" />
<path d="M154.0231 94.6350
L154.0835 94.7560
" />
<path d="M154.0835 94.7560
L154.1440 94.8165
" />
<path d="M154.1440 94.8165
L154.2650 94.8769
" />
<path d="M154.2650 94.8769
L154.5069 94.8769
" />
<path d="M154.5069 94.8769
L154.6278 94.8165
" />
<path d="M154.6278 94.8165
L154.6883 94.7560
" />
<path d="M154.6883 94.7560
L154.7488 94.6350
" />
<path d="M154.7488 94.6350
L154.7488 94.3326
" />
<path d="M154.7488 94.3326
L154.6883 94.2117
" />
<path d="M154.6883 94.2117
L154.6278 94.1512
" />
<path d="M154.6278 94.1512
L154.5069 94.0907
" />
<path d="M154.5069 94.0907
L154.2650 94.0907
" />
<path d="M154.2650 94.0907
L154.1440 94.1512
" />
<path d="M154.1440 94.1512
L154.0835 94.2117
" />
<path d="M154.0835 94.2117
L154.0231 94.3326
" />
</g><text x="154.2347" y="97.4724"
textLength="3.6503" font-size="1.6933" lengthAdjust="spacingAndGlyphs"
text-anchor="middle" opacity="0">LED</text>
<g class="stroked-text"><desc>LED</desc>
<path d="M153.4183 97.4169
L152.8135 97.4169
" />
<path d="M152.8135 97.4169
L152.8135 96.1469
" />
<path d="M153.8416 96.7517
L154.2650 96.7517
" />
<path d="M154.4464 97.4169
L153.8416 97.4169
" />
<path d="M153.8416 97.4169
L153.8416 96.1469
" />
<path d="M153.8416 96.1469
L154.4464 96.1469
" />
<path d="M154.9906 97.4169
L154.9906 96.1469
" />
<path d="M154.9906 96.1469
L155.2930 96.1469
" />
<path d="M155.2930 96.1469
L155.4744 96.2074
" />
<path d="M155.4744 96.2074
L155.5954 96.3284
" />
<path d="M155.5954 96.3284
L155.6559 96.4493
" />
<path d="M155.6559 96.4493
L155.7163 96.6912
" />
<path d="M155.7163 96.6912
L155.7163 96.8726
" />
<path d="M155.7163 96.8726
L155.6559 97.1145
" />
<path d="M155.6559 97.1145
L155.5954 97.2355
" />
<path d="M155.5954 97.2355
L155.4744 97.3565
" />
<path d="M155.4744 97.3565
L155.2930 97.4169
" />
<path d="M155.2930 97.4169
L154.9906 97.4169
" />
</g></g>
<g style="fill:none; 
stroke:#840000; stroke-width:0.2540; stroke-opacity:1; 
stroke-linecap:round; stroke-linejoin:round;">
<rect x="173.609000" y="80.645000" width="2.032000" height="5.080000" rx="0.000000" />
</g>
<g style="fill:none; 
stroke:#840000; stroke-width:0.1524; stroke-opacity:1; 
stroke-linecap:round; stroke-linejoin:round;">
<path d="M174.6250 80.6450
L174.6250 79.3750
" />
<path d="M174.6250 85.7250
L174.6250 86.9950
" />
</g>
<g style="fill:none; 
stroke:#006464; stroke-width:0.1524; stroke-opacity:1; 
stroke-linecap:round; stroke-linejoin:round;">
<text x="177.8809" y="82.5500"
textLength="2.6827" font-size="1.6933" lengthAdjust="spacingAndGlyphs"
text-anchor="middle" opacity="0">R4</text>
<g class="stroked-text"><desc>R4</desc>
<path d="M177.6692 82.4945
L177.2459 81.8898
" />
<path d="M176.9435 82.4945
L176.9435 81.2245
" />
<path d="M176.9435 81.2245
L177.4273 81.2245
" />
<path d="M177.4273 81.2245
L177.5483 81.2850
" />
<path d="M177.5483 81.2850
L177.6088 81.3455
" />
<path d="M177.6088 81.3455
L177.6692 81.4664
" />
<path d="M177.6692 81.4664
L177.6692 81.6479
" />
<path d="M177.6692 81.6479
L177.6088 81.7688
" />
<path d="M177.6088 81.7688
L177.5483 81.8293
" />
<path d="M177.5483 81.8293
L177.4273 81.8898
" />
<path d="M177.4273 81.8898
L176.9435 81.8898
" />
<path d="M178.7578 81.6479
L178.7578 82.4945
" />
<path d="M178.4554 81.1641
L178.1531 82.0712
" />
<path d="M178.1531 82.0712
L178.9392 82.0712
" />
</g><text x="177.2762" y="85.0900"
textLength="1.4732" font-size="1.6933" lengthAdjust="spacingAndGlyphs"
text-anchor="middle" opacity="0">R</text>
<g class="stroked-text"><desc>R</desc>
<path d="M177.6692 85.0345
L177.2459 84.4298
" />
<path d="M176.9435 85.0345
L176.9435 83.7645
" />
<path d="M176.9435 83.7645
L177.4273 83.7645
" />
<path d="M177.4273 83.7645
L177.5483 83.8250
" />
<path d="M177.5483 83.8250
L177.6088 83.8855
" />
<path d="M177.6088 83.8855
L177.6692 84.0064
" />
<path d="M177.6692 84.0064
L177.6692 84.1879
" />
<path d="M177.6692 84.1879
L177.6088 84.3088
" />
<path d="M177.6088 84.3088
L177.5483 84.3693
" />
<path d="M177.5483 84.3693
L177.4273 84.4298
" />
<path d="M177.4273 84.4298
L176.9435 84.4298
" />
</g><path style="fill:none; 
stroke:#840000; stroke-width:0.1524; stroke-opacity:1; 
stroke-linecap:round; stroke-linejoin:round;fill:none"
d="M 161.1630,74.9300
161.9250,73.6600
" /> 
<path style="fill:none; 
stroke:#840000; stroke-width:0.1524; stroke-opacity:1; 
stroke-linecap:round; stroke-linejoin:round;fill:none"
d="M 161.9250,76.2000
161.9250,73.6600
" /> 
<path style="fill:none; 
stroke:#840000; stroke-width:0.1524; stroke-opacity:1; 
stroke-linecap:round; stroke-linejoin:round;fill:none"
d="M 161.9250,73.6600
162.6870,74.9300
" /> 
</g>
<g style="fill:none; 
stroke:#006464; stroke-width:0.1524; stroke-opacity:1; 
stroke-linecap:round; stroke-linejoin:round;">
<text x="161.9250" y="71.7550"
textLength="3.8318" font-size="1.6933" lengthAdjust="spacingAndGlyphs"
text-anchor="middle" opacity="0">VCC</text>
<g class="stroked-text"><desc>VCC</desc>
<path d="M160.2316 70.4295
L160.6549 71.6995
" />
<path d="M160.6549 71.6995
L161.0783 70.4295
" />
<path d="M162.2273 71.5786
L162.1669 71.6391
" />
<path d="M162.1669 71.6391
L161.9854 71.6995
" />
<path d="M161.9854 71.6995
L161.8645 71.6995
" />
<path d="M161.8645 71.6995
L161.6831 71.6391
" />
<path d="M161.6831 71.6391
L161.5621 71.5181
" />
<path d="M161.5621 71.5181
L161.5016 71.3971
" />
<path d="M161.5016 71.3971
L161.4412 71.1552
" />
<path d="M161.4412 71.1552
L161.4412 70.9738
" />
<path d="M161.4412 70.9738
L161.5016 70.7319
" />
<path d="M161.5016 70.7319
L161.5621 70.6110
" />
<path d="M161.5621 70.6110
L161.6831 70.4900
" />
<path d="M161.6831 70.4900
L161.8645 70.4295
" />
<path d="M161.8645 70.4295
L161.9854 70.4295
" />
<path d="M161.9854 70.4295
L162.1669 70.4900
" />
<path d="M162.1669 70.4900
L162.2273 70.5505
" />
<path d="M163.4973 71.5786
L163.4369 71.6391
" />
<path d="M163.4369 71.6391
L163.2554 71.6995
" />
<path d="M163.2554 71.6995
L163.1345 71.6995
" />
<path d="M163.1345 71.6995
L162.9531 71.6391
" />
<path d="M162.9531 71.6391
L162.8321 71.5181
" />
<path d="M162.8321 71.5181
L162.7716 71.3971
" />
<path d="M162.7716 71.3971
L162.7112 71.1552
" />
<path d="M162.7112 71.1552
L162.7112 70.9738
" />
<path d="M162.7112 70.9738
L162.7716 70.7319
" />
<path d="M162.7716 70.7319
L162.8321 70.6110
" />
<path d="M162.8321 70.6110
L162.9531 70.4900
" />
<path d="M162.9531 70.4900
L163.1345 70.4295
" />
<path d="M163.1345 70.4295
L163.2554 70.4295
" />
<path d="M163.2554 70.4295
L163.4369 70.4900
" />
<path d="M163.4369 70.4900
L163.4973 70.5505
" />
</g><path style="fill:none; 
stroke:#840000; stroke-width:0.1524; stroke-opacity:1; 
stroke-linecap:round; stroke-linejoin:round;fill:none"
d="M 173.8630,74.9300
174.6250,73.6600
" /> 
<path style="fill:none; 
stroke:#840000; stroke-width:0.1524; stroke-opacity:1; 
stroke-linecap:round; stroke-linejoin:round;fill:none"
d="M 174.6250,76.2000
174.6250,73.6600
" /> 
<path style="fill:none; 
stroke:#840000; stroke-width:0.1524; stroke-opacity:1; 
stroke-linecap:round; stroke-linejoin:round;fill:none"
d="M 174.6250,73.6600
175.3870,74.9300
" /> 
</g>
<g style="fill:none; 
stroke:#006464; stroke-width:0.1524; stroke-opacity:1; 
stroke-linecap:round; stroke-linejoin:round;">
<text x="174.6250" y="71.7550"
textLength="3.8318" font-size="1.6933" lengthAdjust="spacingAndGlyphs"
text-anchor="middle" opacity="0">VCC</text>
<g class="stroked-text"><desc>VCC</desc>
<path d="M172.9316 70.4295
L173.3549 71.6995
" />
<path d="M173.3549 71.6995
L173.7783 70.4295
" />
<path d="M174.9273 71.5786
L174.8669 71.6391
" />
<path d="M174.8669 71.6391
L174.6854 71.6995
" />
<path d="M174.6854 71.6995
L174.5645 71.6995
" />
<path d="M174.5645 71.6995
L174.3831 71.6391
" />
<path d="M174.3831 71.6391
L174.2621 71.5181
" />
<path d="M174.2621 71.5181
L174.2016 71.3971
" />
<path d="M174.2016 71.3971
L174.1412 71.1552
" />
<path d="M174.1412 71.1552
L174.1412 70.9738
" />
<path d="M174.1412 70.9738
L174.2016 70.7319
" />
<path d="M174.2016 70.7319
L174.2621 70.6110
" />
<path d="M174.2621 70.6110
L174.3831 70.4900
" />
<path d="M174.3831 70.4900
L174.5645 70.4295
" />
<path d="M174.5645 70.4295
L174.6854 70.4295
" />
<path d="M174.6854 70.4295
L174.8669 70.4900
" />
<path d="M174.8669 70.4900
L174.9273 70.5505
" />
<path d="M176.1973 71.5786
L176.1369 71.6391
" />
<path d="M176.1369 71.6391
L175.9554 71.6995
" />
<path d="M175.9554 71.6995
L175.8345 71.6995
" />
<path d="M175.8345 71.6995
L175.6531 71.6391
" />
<path d="M175.6531 71.6391
L175.5321 71.5181
" />
<path d="M175.5321 71.5181
L175.4716 71.3971
" />
<path d="M175.4716 71.3971
L175.4112 71.1552
" />
<path d="M175.4112 71.1552
L175.4112 70.9738
" />
<path d="M175.4112 70.9738
L175.4716 70.7319
" />
<path d="M175.4716 70.7319
L175.5321 70.6110
" />
<path d="M175.5321 70.6110
L175.6531 70.4900
" />
<path d="M175.6531 70.4900
L175.8345 70.4295
" />
<path d="M175.8345 70.4295
L175.9554 70.4295
" />
<path d="M175.9554 70.4295
L176.1369 70.4900
" />
<path d="M176.1369 70.4900
L176.1973 70.5505
" />
</g></g>
<g style="fill:none; 
stroke:#840000; stroke-width:0.2540; stroke-opacity:1; 
stroke-linecap:round; stroke-linejoin:round;">
<rect x="160.909000" y="80.645000" width="2.032000" height="5.080000" rx="0.000000" />
</g>
<g style="fill:none; 
stroke:#840000; stroke-width:0.1524; stroke-opacity:1; 
stroke-linecap:round; stroke-linejoin:round;">
<path d="M161.9250 80.6450
L161.9250 79.3750
" />
<path d="M161.9250 85.7250
L161.9250 86.9950
" />
</g>
<g style="fill:none; 
stroke:#006464; stroke-width:0.1524; stroke-opacity:1; 
stroke-linecap:round; stroke-linejoin:round;">
<text x="165.1809" y="82.5500"
textLength="2.6827" font-size="1.6933" lengthAdjust="spacingAndGlyphs"
text-anchor="middle" opacity="0">R3</text>
<g class="stroked-text"><desc>R3</desc>
<path d="M164.9692 82.4945
L164.5459 81.8898
" />
<path d="M164.2435 82.4945
L164.2435 81.2245
" />
<path d="M164.2435 81.2245
L164.7273 81.2245
" />
<path d="M164.7273 81.2245
L164.8483 81.2850
" />
<path d="M164.8483 81.2850
L164.9088 81.3455
" />
<path d="M164.9088 81.3455
L164.9692 81.4664
" />
<path d="M164.9692 81.4664
L164.9692 81.6479
" />
<path d="M164.9692 81.6479
L164.9088 81.7688
" />
<path d="M164.9088 81.7688
L164.8483 81.8293
" />
<path d="M164.8483 81.8293
L164.7273 81.8898
" />
<path d="M164.7273 81.8898
L164.2435 81.8898
" />
<path d="M165.3926 81.2245
L166.1788 81.2245
" />
<path d="M166.1788 81.2245
L165.7554 81.7083
" />
<path d="M165.7554 81.7083
L165.9369 81.7083
" />
<path d="M165.9369 81.7083
L166.0578 81.7688
" />
<path d="M166.0578 81.7688
L166.1183 81.8293
" />
<path d="M166.1183 81.8293
L166.1788 81.9502
" />
<path d="M166.1788 81.9502
L166.1788 82.2526
" />
<path d="M166.1788 82.2526
L166.1183 82.3736
" />
<path d="M166.1183 82.3736
L166.0578 82.4341
" />
<path d="M166.0578 82.4341
L165.9369 82.4945
" />
<path d="M165.9369 82.4945
L165.5740 82.4945
" />
<path d="M165.5740 82.4945
L165.4531 82.4341
" />
<path d="M165.4531 82.4341
L165.3926 82.3736
" />
</g><text x="164.5762" y="85.0900"
textLength="1.4732" font-size="1.6933" lengthAdjust="spacingAndGlyphs"
text-anchor="middle" opacity="0">R</text>
<g class="stroked-text"><desc>R</desc>
<path d="M164.9692 85.0345
L164.5459 84.4298
" />
<path d="M164.2435 85.0345
L164.2435 83.7645
" />
<path d="M164.2435 83.7645
L164.7273 83.7645
" />
<path d="M164.7273 83.7645
L164.8483 83.8250
" />
<path d="M164.8483 83.8250
L164.9088 83.8855
" />
<path d="M164.9088 83.8855
L164.9692 84.0064
" />
<path d="M164.9692 84.0064
L164.9692 84.1879
" />
<path d="M164.9692 84.1879
L164.9088 84.3088
" />
<path d="M164.9088 84.3088
L164.8483 84.3693
" />
<path d="M164.8483 84.3693
L164.7273 84.4298
" />
<path d="M164.7273 84.4298
L164.2435 84.4298
" />
</g></g>
<g style="fill:none; 
stroke:#009600; stroke-width:0.1524; stroke-opacity:1; 
stroke-linecap:round; stroke-linejoin:round;">
<path d="M149.2250 76.2000
L149.2250 79.3750
" />
<path d="M149.2250 114.3000
L149.2250 108.5850
" />
<path d="M129.5400 116.8400
L161.9250 116.8400
" />
<path d="M129.5400 119.3800
L174.6250 119.3800
" />
<path d="M129.5400 114.3000
L149.2250 114.3000
" />
<path d="M161.9250 116.8400
L161.9250 108.5850
" />
<path d="M174.6250 108.5850
L174.6250 119.3800
" />
<path d="M174.6250 97.7900
L174.6250 100.9650
" />
<path d="M161.9250 97.7900
L161.9250 100.9650
" />
<path d="M161.9250 86.9950
L161.9250 90.1700
" />
<path d="M174.6250 76.2000
L174.6250 79.3750
" />
<path d="M161.9250 76.2000
L161.9250 79.3750
" />
<path d="M136.5250 97.7900
L136.5250 100.9650
" />
<path d="M136.5250 76.2000
L136.5250 79.3750
" />
<path d="M136.5250 121.9200
L136.5250 125.0950
" />
<path d="M129.5400 121.9200
L136.5250 121.9200
" />
<path d="M129.5400 111.7600
L136.5250 111.7600
" />
<path d="M136.5250 111.7600
L136.5250 108.5850
" />
<path d="M174.6250 86.9950
L174.6250 90.1700
" />
<path d="M149.2250 86.9950
L149.2250 90.1700
" />
<path d="M149.2250 97.7900
L149.2250 100.9650
" />
<path d="M136.5250 86.9950
L136.5250 90.1700
" />
</g> 
</svg>
